<?xml version="1.0" encoding="UTF-8"?>
<svg xmlns="http://www.w3.org/2000/svg" xmlns:xlink="http://www.w3.org/1999/xlink" width="375pt" height="374.999991pt" viewBox="0 0 375 374.999991" version="1.2">
<defs>
<clipPath id="clip1">
  <path d="M 59 59 L 316 59 L 316 316 L 59 316 Z M 59 59 "/>
</clipPath>
<clipPath id="clip2">
  <path d="M 218.019531 0.00390625 L 374.996094 156.980469 L 157.03125 374.945312 L 0.0507812 217.96875 Z M 218.019531 0.00390625 "/>
</clipPath>
<clipPath id="clip3">
  <path d="M 218.019531 0.00390625 L 374.996094 156.980469 L 157.03125 374.945312 L 0.0507812 217.96875 Z M 218.019531 0.00390625 "/>
</clipPath>
<clipPath id="clip4">
  <path d="M 53 53 L 322 53 L 322 322 L 53 322 Z M 53 53 "/>
</clipPath>
<clipPath id="clip5">
  <path d="M 218.019531 0.00390625 L 374.996094 156.980469 L 157.03125 374.945312 L 0.0507812 217.96875 Z M 218.019531 0.00390625 "/>
</clipPath>
<clipPath id="clip6">
  <path d="M 218.019531 0.00390625 L 374.996094 156.980469 L 157.03125 374.945312 L 0.0507812 217.96875 Z M 218.019531 0.00390625 "/>
</clipPath>
<clipPath id="clip7">
  <path d="M 66 66 L 297 66 L 297 268 L 66 268 Z M 66 66 "/>
</clipPath>
<clipPath id="clip8">
  <path d="M 218.019531 0.00390625 L 374.996094 156.980469 L 157.03125 374.945312 L 0.0507812 217.96875 Z M 218.019531 0.00390625 "/>
</clipPath>
<clipPath id="clip9">
  <path d="M 218.019531 0.00390625 L 374.996094 156.980469 L 157.03125 374.945312 L 0.0507812 217.96875 Z M 218.019531 0.00390625 "/>
</clipPath>
<clipPath id="clip10">
  <path d="M 108 66 L 273 66 L 273 137 L 108 137 Z M 108 66 "/>
</clipPath>
<clipPath id="clip11">
  <path d="M 218.019531 0.00390625 L 374.996094 156.980469 L 157.03125 374.945312 L 0.0507812 217.96875 Z M 218.019531 0.00390625 "/>
</clipPath>
<clipPath id="clip12">
  <path d="M 218.019531 0.00390625 L 374.996094 156.980469 L 157.03125 374.945312 L 0.0507812 217.96875 Z M 218.019531 0.00390625 "/>
</clipPath>
<clipPath id="clip13">
  <path d="M 86 85 L 287 85 L 287 288 L 86 288 Z M 86 85 "/>
</clipPath>
<clipPath id="clip14">
  <path d="M 218.019531 0.00390625 L 374.996094 156.980469 L 157.03125 374.945312 L 0.0507812 217.96875 Z M 218.019531 0.00390625 "/>
</clipPath>
<clipPath id="clip15">
  <path d="M 218.019531 0.00390625 L 374.996094 156.980469 L 157.03125 374.945312 L 0.0507812 217.96875 Z M 218.019531 0.00390625 "/>
</clipPath>
</defs>
<g id="surface1">
<g clip-path="url(#clip1)" clip-rule="nonzero">
<g clip-path="url(#clip2)" clip-rule="nonzero">
<g clip-path="url(#clip3)" clip-rule="nonzero">
<path style=" stroke:none;fill-rule:nonzero;fill:rgb(80.778503%,47.839355%,36.859131%);fill-opacity:1;" d="M 83.242188 291.753906 C 63.234375 271.742188 55.617188 241.972656 61.796875 207.929688 C 67.816406 174.769531 86.300781 141.339844 113.847656 113.796875 C 141.390625 86.25 174.824219 67.765625 207.980469 61.746094 C 242.023438 55.566406 271.792969 63.183594 291.804688 83.191406 C 311.816406 103.207031 319.433594 132.976562 313.253906 167.019531 C 307.234375 200.175781 288.75 233.605469 261.203125 261.152344 C 233.65625 288.699219 200.226562 307.183594 167.070312 313.203125 C 133.027344 319.382812 103.253906 311.765625 83.242188 291.753906 Z M 83.242188 291.753906 "/>
</g>
</g>
</g>
<g clip-path="url(#clip4)" clip-rule="nonzero">
<g clip-path="url(#clip5)" clip-rule="nonzero">
<g clip-path="url(#clip6)" clip-rule="nonzero">
<path style=" stroke:none;fill-rule:nonzero;fill:rgb(38.42926%,12.548828%,9.799194%);fill-opacity:1;" d="M 287.117188 87.878906 C 325.222656 125.988281 311.515625 201.460938 256.515625 256.460938 C 201.511719 311.464844 126.035156 325.171875 87.929688 287.066406 C 49.832031 248.96875 63.535156 173.484375 118.535156 118.484375 C 173.535156 63.480469 249.019531 49.78125 287.117188 87.878906 M 296.488281 78.503906 C 285.429688 67.445312 271.652344 59.859375 255.550781 55.964844 C 240.511719 52.332031 224.105469 52.082031 206.792969 55.222656 C 172.320312 61.480469 137.648438 80.617188 109.160156 109.105469 C 80.667969 137.597656 61.53125 172.269531 55.273438 206.742188 C 52.128906 224.054688 52.382812 240.460938 56.015625 255.5 C 59.910156 271.601562 67.492188 285.378906 78.554688 296.441406 C 89.621094 307.503906 103.394531 315.089844 119.5 318.984375 C 134.542969 322.621094 150.945312 322.871094 168.257812 319.726562 C 202.726562 313.46875 237.402344 294.332031 265.890625 265.839844 C 294.382812 237.351562 313.519531 202.675781 319.777344 168.207031 C 322.921875 150.894531 322.671875 134.488281 319.03125 119.449219 C 315.140625 103.34375 307.554688 89.570312 296.488281 78.503906 Z M 296.488281 78.503906 "/>
</g>
</g>
</g>
<g clip-path="url(#clip7)" clip-rule="nonzero">
<g clip-path="url(#clip8)" clip-rule="nonzero">
<g clip-path="url(#clip9)" clip-rule="nonzero">
<path style=" stroke:none;fill-rule:nonzero;fill:rgb(87.059021%,65.489197%,56.469727%);fill-opacity:1;" d="M 232.582031 226.414062 C 277.785156 189.855469 301.234375 139.496094 296.050781 98.898438 C 293.472656 94.960938 290.507812 91.273438 287.117188 87.878906 C 249.019531 49.785156 173.535156 63.484375 118.535156 118.484375 C 79.625 157.394531 61.390625 206.546875 67.535156 245.46875 C 103.78125 280.292969 175.351562 272.710938 232.582031 226.414062 Z M 232.582031 226.414062 "/>
</g>
</g>
</g>
<g clip-path="url(#clip10)" clip-rule="nonzero">
<g clip-path="url(#clip11)" clip-rule="nonzero">
<g clip-path="url(#clip12)" clip-rule="nonzero">
<path style=" stroke:none;fill-rule:nonzero;fill:rgb(93.728638%,82.749939%,77.648926%);fill-opacity:1;" d="M 272.105469 76.523438 C 231.441406 53.617188 167.03125 69.992188 118.535156 118.484375 C 115.066406 121.957031 111.769531 125.511719 108.625 129.136719 C 147.472656 145.652344 204.386719 133.800781 251.566406 95.636719 C 259.019531 89.609375 265.867188 83.199219 272.105469 76.523438 Z M 272.105469 76.523438 "/>
</g>
</g>
</g>
<g clip-path="url(#clip13)" clip-rule="nonzero">
<g clip-path="url(#clip14)" clip-rule="nonzero">
<g clip-path="url(#clip15)" clip-rule="nonzero">
<path style=" stroke:none;fill-rule:nonzero;fill:rgb(38.42926%,12.548828%,9.799194%);fill-opacity:1;" d="M 86.65625 287.449219 C 86.65625 287.449219 86.472656 286.742188 86.417969 285.222656 C 86.371094 283.699219 86.445312 281.367188 87.039062 278.101562 C 87.605469 274.847656 88.710938 270.652344 90.734375 265.507812 C 92.761719 260.378906 95.804688 254.265625 100.128906 247.441406 C 104.453125 240.648438 110.109375 233.15625 116.898438 225.710938 C 123.65625 218.238281 131.507812 210.886719 139.792969 204.1875 C 148.070312 197.507812 156.800781 191.324219 165.449219 186.132812 C 167.632812 184.707031 169.75 183.605469 171.925781 182.328125 C 174.089844 181.070312 176.253906 179.839844 178.382812 178.777344 C 180.507812 177.664062 182.664062 176.523438 184.792969 175.449219 L 191.097656 172.472656 C 193.207031 171.457031 195.277344 170.5625 197.328125 169.714844 L 203.464844 167.15625 C 203.273438 167.246094 204.085938 166.894531 204.777344 166.5625 L 206.984375 165.511719 C 208.488281 164.773438 210.054688 163.9375 211.621094 163.09375 C 217.886719 159.664062 224.1875 155.777344 230.082031 151.53125 C 236.039062 147.332031 241.570312 142.734375 246.757812 138.019531 C 251.933594 133.289062 256.636719 128.300781 260.871094 123.375 C 265.148438 118.449219 268.765625 113.5625 271.996094 109.070312 C 273.582031 106.832031 275.078125 104.679688 276.382812 102.664062 C 277.726562 100.652344 278.972656 98.761719 280.023438 97.054688 C 281.121094 95.316406 282.085938 93.761719 282.929688 92.414062 C 283.75 91.042969 284.453125 89.871094 285.015625 88.929688 C 286.210938 86.992188 286.851562 85.960938 286.851562 85.960938 C 286.851562 85.960938 286.882812 86.753906 286.828125 88.316406 C 286.816406 89.871094 286.6875 92.203125 286.113281 95.417969 C 285.925781 96.992188 285.457031 98.835938 284.957031 100.863281 C 284.542969 102.878906 283.714844 105.171875 282.914062 107.648438 C 281.121094 112.636719 278.648438 118.554688 274.765625 125.3125 C 270.914062 132.046875 265.800781 139.613281 259.335938 147.335938 C 252.890625 155.035156 245.207031 162.910156 236.839844 170.023438 C 228.476562 177.214844 219.53125 183.695312 210.417969 189.25 C 208.132812 190.640625 205.84375 191.953125 203.496094 193.226562 C 202.328125 193.878906 201.140625 194.503906 199.925781 195.128906 C 198.691406 195.730469 197.578125 196.304688 195.492188 197.210938 C 191.96875 198.839844 188.460938 200.207031 184.957031 201.921875 C 177.941406 205.050781 171.03125 208.609375 164.285156 212.207031 C 157.527344 215.832031 151.050781 219.796875 144.882812 223.898438 C 132.566406 232.117188 121.675781 241.386719 112.859375 250.898438 C 103.996094 260.363281 97.382812 269.753906 93.078125 276.496094 C 88.785156 283.277344 86.65625 287.449219 86.65625 287.449219 Z M 86.65625 287.449219 "/>
</g>
</g>
</g>
</g>
</svg>
