<svg id="Capa_1" enable-background="new 0 0 512 512" height="512" viewBox="0 0 512 512" width="512" xmlns="http://www.w3.org/2000/svg"><g><path d="m436.96 272.029c-12.997-20.015-30.294-36.69-50.574-48.874 10.185-21.013 15.512-44.113 15.512-67.652 0-85.744-69.759-155.503-155.504-155.503h-196.348v512h256.404c85.745 0 155.504-69.759 155.504-155.503 0-30.079-8.643-59.288-24.994-84.468zm-190.566-71.036h-86.334v-90.979h86.334c25.083 0 45.49 20.406 45.49 45.49s-20.406 45.489-45.49 45.489zm105.546 155.504c0 25.083-20.407 45.49-45.49 45.49h-146.39v-90.979h146.39c25.083-.001 45.49 20.405 45.49 45.489z"/></g></svg>