<?xml version="1.0" encoding="UTF-8"?>
<svg xmlns="http://www.w3.org/2000/svg" xmlns:xlink="http://www.w3.org/1999/xlink" width="375pt" height="374.999991pt" viewBox="0 0 375 374.999991" version="1.2">
<g id="surface1">
<path style=" stroke:none;fill-rule:nonzero;fill:rgb(90.19928%,92.939758%,71.759033%);fill-opacity:1;" d="M 187.738281 10.296875 C 184.839844 10.296875 181.941406 10.367188 179.042969 10.511719 C 176.148438 10.652344 173.257812 10.867188 170.371094 11.148438 C 167.484375 11.433594 164.605469 11.789062 161.738281 12.214844 C 158.871094 12.640625 156.011719 13.136719 153.167969 13.703125 C 150.324219 14.269531 147.496094 14.902344 144.683594 15.609375 C 141.871094 16.3125 139.074219 17.085938 136.300781 17.925781 C 133.523438 18.769531 130.773438 19.679688 128.042969 20.65625 C 125.3125 21.632812 122.605469 22.675781 119.925781 23.785156 C 117.246094 24.894531 114.597656 26.070312 111.976562 27.308594 C 109.355469 28.550781 106.765625 29.855469 104.207031 31.222656 C 101.648438 32.589844 99.125 34.015625 96.640625 35.507812 C 94.152344 37 91.703125 38.550781 89.289062 40.160156 C 86.878906 41.773438 84.507812 43.441406 82.179688 45.167969 C 79.851562 46.898438 77.566406 48.679688 75.324219 50.519531 C 73.082031 52.359375 70.886719 54.253906 68.738281 56.203125 C 66.589844 58.148438 64.488281 60.148438 62.4375 62.199219 C 60.386719 64.25 58.386719 66.347656 56.441406 68.496094 C 54.492188 70.644531 52.597656 72.839844 50.757812 75.082031 C 48.917969 77.324219 47.136719 79.609375 45.410156 81.941406 C 43.679688 84.269531 42.011719 86.640625 40.402344 89.050781 C 38.789062 91.460938 37.238281 93.910156 35.746094 96.398438 C 34.257812 98.886719 32.828125 101.410156 31.460938 103.96875 C 30.09375 106.523438 28.789062 109.113281 27.550781 111.734375 C 26.308594 114.359375 25.136719 117.007812 24.023438 119.6875 C 22.914062 122.367188 21.871094 125.070312 20.894531 127.800781 C 19.917969 130.53125 19.007812 133.285156 18.167969 136.0625 C 17.324219 138.835938 16.550781 141.628906 15.847656 144.441406 C 15.140625 147.257812 14.507812 150.085938 13.941406 152.929688 C 13.375 155.773438 12.878906 158.628906 12.453125 161.5 C 12.027344 164.367188 11.675781 167.246094 11.390625 170.132812 C 11.105469 173.015625 10.890625 175.910156 10.75 178.804688 C 10.609375 181.703125 10.535156 184.601562 10.535156 187.5 C 10.535156 190.398438 10.609375 193.296875 10.75 196.195312 C 10.890625 199.089844 11.105469 201.984375 11.390625 204.867188 C 11.675781 207.753906 12.027344 210.632812 12.453125 213.5 C 12.878906 216.371094 13.375 219.226562 13.941406 222.070312 C 14.507812 224.914062 15.140625 227.742188 15.847656 230.558594 C 16.550781 233.371094 17.324219 236.164062 18.167969 238.9375 C 19.007812 241.714844 19.917969 244.46875 20.894531 247.199219 C 21.871094 249.929688 22.914062 252.632812 24.023438 255.3125 C 25.136719 257.992188 26.308594 260.640625 27.550781 263.265625 C 28.789062 265.886719 30.09375 268.476562 31.460938 271.03125 C 32.828125 273.589844 34.257812 276.113281 35.746094 278.601562 C 37.238281 281.089844 38.789062 283.539062 40.402344 285.949219 C 42.011719 288.359375 43.679688 290.730469 45.410156 293.058594 C 47.136719 295.390625 48.917969 297.675781 50.757812 299.917969 C 52.597656 302.15625 54.492188 304.351562 56.441406 306.503906 C 58.386719 308.652344 60.386719 310.75 62.4375 312.800781 C 64.488281 314.851562 66.589844 316.851562 68.738281 318.796875 C 70.886719 320.746094 73.082031 322.640625 75.324219 324.480469 C 77.566406 326.320312 79.851562 328.101562 82.179688 329.832031 C 84.507812 331.558594 86.878906 333.226562 89.289062 334.839844 C 91.703125 336.449219 94.152344 338 96.640625 339.492188 C 99.125 340.984375 101.648438 342.410156 104.207031 343.777344 C 106.765625 345.144531 109.355469 346.449219 111.976562 347.691406 C 114.597656 348.929688 117.246094 350.105469 119.925781 351.214844 C 122.605469 352.324219 125.3125 353.367188 128.042969 354.34375 C 130.773438 355.320312 133.523438 356.230469 136.300781 357.074219 C 139.074219 357.914062 141.871094 358.6875 144.683594 359.390625 C 147.496094 360.097656 150.324219 360.730469 153.167969 361.296875 C 156.011719 361.863281 158.871094 362.359375 161.738281 362.785156 C 164.605469 363.210938 167.484375 363.566406 170.371094 363.851562 C 173.257812 364.132812 176.148438 364.347656 179.042969 364.488281 C 181.941406 364.632812 184.839844 364.703125 187.738281 364.703125 C 190.640625 364.703125 193.539062 364.632812 196.433594 364.488281 C 199.332031 364.347656 202.222656 364.132812 205.109375 363.851562 C 207.996094 363.566406 210.871094 363.210938 213.742188 362.785156 C 216.609375 362.359375 219.464844 361.863281 222.308594 361.296875 C 225.15625 360.730469 227.984375 360.097656 230.796875 359.390625 C 233.609375 358.6875 236.402344 357.914062 239.179688 357.074219 C 241.953125 356.230469 244.707031 355.320312 247.4375 354.34375 C 250.167969 353.367188 252.871094 352.324219 255.550781 351.214844 C 258.230469 350.105469 260.882812 348.929688 263.503906 347.691406 C 266.125 346.449219 268.714844 345.144531 271.273438 343.777344 C 273.828125 342.410156 276.351562 340.984375 278.839844 339.492188 C 281.328125 338 283.777344 336.449219 286.1875 334.839844 C 288.597656 333.226562 290.96875 331.558594 293.300781 329.832031 C 295.628906 328.101562 297.914062 326.320312 300.15625 324.480469 C 302.398438 322.640625 304.59375 320.746094 306.742188 318.796875 C 308.890625 316.851562 310.988281 314.851562 313.039062 312.800781 C 315.089844 310.75 317.089844 308.652344 319.039062 306.503906 C 320.984375 304.351562 322.878906 302.15625 324.71875 299.917969 C 326.558594 297.675781 328.34375 295.390625 330.070312 293.058594 C 331.796875 290.730469 333.46875 288.359375 335.078125 285.949219 C 336.691406 283.539062 338.242188 281.089844 339.730469 278.601562 C 341.222656 276.113281 342.652344 273.589844 344.019531 271.03125 C 345.386719 268.476562 346.6875 265.886719 347.929688 263.265625 C 349.167969 260.640625 350.34375 257.992188 351.453125 255.3125 C 352.5625 252.632812 353.605469 249.929688 354.582031 247.199219 C 355.5625 244.46875 356.46875 241.714844 357.3125 238.9375 C 358.152344 236.164062 358.925781 233.371094 359.632812 230.558594 C 360.335938 227.742188 360.972656 224.914062 361.539062 222.070312 C 362.101562 219.226562 362.597656 216.371094 363.023438 213.5 C 363.449219 210.632812 363.804688 207.753906 364.089844 204.867188 C 364.375 201.984375 364.585938 199.089844 364.730469 196.195312 C 364.871094 193.296875 364.941406 190.398438 364.941406 187.5 C 364.941406 184.601562 364.871094 181.703125 364.730469 178.804688 C 364.585938 175.910156 364.375 173.015625 364.089844 170.132812 C 363.804688 167.246094 363.449219 164.367188 363.023438 161.5 C 362.597656 158.628906 362.101562 155.773438 361.539062 152.929688 C 360.972656 150.085938 360.335938 147.257812 359.632812 144.441406 C 358.925781 141.628906 358.152344 138.835938 357.3125 136.0625 C 356.46875 133.285156 355.5625 130.53125 354.582031 127.800781 C 353.605469 125.070312 352.5625 122.367188 351.453125 119.6875 C 350.34375 117.007812 349.167969 114.359375 347.929688 111.734375 C 346.6875 109.113281 345.386719 106.523438 344.019531 103.96875 C 342.652344 101.410156 341.222656 98.886719 339.730469 96.398438 C 338.242188 93.910156 336.691406 91.460938 335.078125 89.050781 C 333.46875 86.640625 331.796875 84.269531 330.070312 81.941406 C 328.34375 79.609375 326.558594 77.324219 324.71875 75.082031 C 322.878906 72.839844 320.984375 70.644531 319.039062 68.496094 C 317.089844 66.347656 315.089844 64.25 313.039062 62.199219 C 310.988281 60.148438 308.890625 58.148438 306.742188 56.203125 C 304.59375 54.253906 302.398438 52.359375 300.15625 50.519531 C 297.914062 48.679688 295.628906 46.898438 293.300781 45.167969 C 290.96875 43.441406 288.597656 41.773438 286.1875 40.160156 C 283.777344 38.550781 281.328125 37 278.839844 35.507812 C 276.351562 34.015625 273.828125 32.589844 271.273438 31.222656 C 268.714844 29.855469 266.125 28.550781 263.503906 27.308594 C 260.882812 26.070312 258.230469 24.894531 255.550781 23.785156 C 252.871094 22.675781 250.167969 21.632812 247.4375 20.65625 C 244.707031 19.679688 241.953125 18.769531 239.179688 17.925781 C 236.402344 17.085938 233.609375 16.3125 230.796875 15.609375 C 227.984375 14.902344 225.15625 14.269531 222.308594 13.703125 C 219.464844 13.136719 216.609375 12.640625 213.742188 12.214844 C 210.871094 11.789062 207.996094 11.433594 205.109375 11.148438 C 202.222656 10.867188 199.332031 10.652344 196.433594 10.511719 C 193.539062 10.367188 190.640625 10.296875 187.738281 10.296875 Z M 187.738281 10.296875 "/>
<path style=" stroke:none;fill-rule:nonzero;fill:rgb(53.329468%,68.238831%,27.059937%);fill-opacity:1;" d="M 10.535156 77.347656 C 9.90625 77.347656 9.285156 77.40625 8.667969 77.53125 C 8.050781 77.652344 7.453125 77.835938 6.871094 78.074219 C 6.289062 78.316406 5.738281 78.613281 5.214844 78.960938 C 4.691406 79.308594 4.207031 79.707031 3.761719 80.152344 C 3.320312 80.597656 2.921875 81.082031 2.570312 81.605469 C 2.222656 82.125 1.925781 82.679688 1.6875 83.257812 C 1.445312 83.839844 1.265625 84.441406 1.140625 85.054688 C 1.019531 85.671875 0.957031 86.296875 0.957031 86.925781 C 0.957031 87.554688 1.019531 88.175781 1.140625 88.792969 C 1.265625 89.410156 1.445312 90.007812 1.6875 90.589844 C 1.925781 91.171875 2.222656 91.722656 2.570312 92.246094 C 2.921875 92.769531 3.320312 93.253906 3.761719 93.699219 C 4.207031 94.144531 4.691406 94.539062 5.214844 94.890625 C 5.738281 95.238281 6.289062 95.535156 6.871094 95.773438 C 7.453125 96.015625 8.050781 96.195312 8.667969 96.320312 C 9.285156 96.441406 9.90625 96.503906 10.535156 96.503906 C 11.164062 96.503906 11.789062 96.441406 12.40625 96.320312 C 13.023438 96.195312 13.621094 96.015625 14.203125 95.773438 C 14.78125 95.535156 15.335938 95.238281 15.859375 94.890625 C 16.382812 94.539062 16.863281 94.144531 17.308594 93.699219 C 17.753906 93.253906 18.152344 92.769531 18.5 92.246094 C 18.851562 91.722656 19.144531 91.171875 19.386719 90.589844 C 19.625 90.007812 19.808594 89.410156 19.929688 88.792969 C 20.054688 88.175781 20.113281 87.554688 20.113281 86.925781 C 20.113281 86.296875 20.054688 85.671875 19.929688 85.054688 C 19.808594 84.441406 19.625 83.839844 19.386719 83.257812 C 19.144531 82.679688 18.851562 82.125 18.5 81.605469 C 18.152344 81.082031 17.753906 80.597656 17.308594 80.152344 C 16.863281 79.707031 16.382812 79.308594 15.859375 78.960938 C 15.335938 78.613281 14.78125 78.316406 14.203125 78.074219 C 13.621094 77.835938 13.023438 77.652344 12.40625 77.53125 C 11.789062 77.40625 11.164062 77.347656 10.535156 77.347656 Z M 10.535156 77.347656 "/>
<path style=" stroke:none;fill-rule:nonzero;fill:rgb(94.509888%,73.728943%,9.799194%);fill-opacity:1;" d="M 317.050781 5.507812 C 316.734375 5.507812 316.425781 5.539062 316.117188 5.601562 C 315.808594 5.660156 315.507812 5.75 315.21875 5.871094 C 314.925781 5.992188 314.652344 6.140625 314.390625 6.316406 C 314.128906 6.488281 313.886719 6.6875 313.664062 6.910156 C 313.441406 7.132812 313.242188 7.375 313.066406 7.636719 C 312.894531 7.898438 312.746094 8.171875 312.625 8.464844 C 312.503906 8.753906 312.414062 9.054688 312.351562 9.363281 C 312.292969 9.671875 312.261719 9.984375 312.261719 10.296875 C 312.261719 10.613281 312.292969 10.921875 312.351562 11.230469 C 312.414062 11.539062 312.503906 11.839844 312.625 12.128906 C 312.746094 12.421875 312.894531 12.695312 313.066406 12.957031 C 313.242188 13.21875 313.441406 13.460938 313.664062 13.683594 C 313.886719 13.90625 314.128906 14.105469 314.390625 14.277344 C 314.652344 14.453125 314.925781 14.601562 315.21875 14.722656 C 315.507812 14.84375 315.808594 14.933594 316.117188 14.996094 C 316.425781 15.054688 316.734375 15.085938 317.050781 15.085938 C 317.363281 15.085938 317.675781 15.054688 317.984375 14.996094 C 318.292969 14.933594 318.59375 14.84375 318.882812 14.722656 C 319.171875 14.601562 319.449219 14.453125 319.710938 14.277344 C 319.972656 14.105469 320.214844 13.90625 320.4375 13.683594 C 320.660156 13.460938 320.855469 13.21875 321.03125 12.957031 C 321.207031 12.695312 321.355469 12.421875 321.472656 12.128906 C 321.59375 11.839844 321.6875 11.539062 321.746094 11.230469 C 321.808594 10.921875 321.839844 10.613281 321.839844 10.296875 C 321.839844 9.984375 321.808594 9.671875 321.746094 9.363281 C 321.6875 9.054688 321.59375 8.753906 321.472656 8.464844 C 321.355469 8.171875 321.207031 7.898438 321.03125 7.636719 C 320.855469 7.375 320.660156 7.132812 320.4375 6.910156 C 320.214844 6.6875 319.972656 6.488281 319.710938 6.316406 C 319.449219 6.140625 319.171875 5.992188 318.882812 5.871094 C 318.59375 5.75 318.292969 5.660156 317.984375 5.601562 C 317.675781 5.539062 317.363281 5.507812 317.050781 5.507812 Z M 345.785156 0.71875 C 345.15625 0.71875 344.53125 0.75 343.90625 0.8125 C 343.285156 0.871094 342.664062 0.964844 342.046875 1.085938 C 341.433594 1.207031 340.824219 1.359375 340.222656 1.542969 C 339.625 1.726562 339.035156 1.9375 338.453125 2.175781 C 337.875 2.417969 337.308594 2.683594 336.753906 2.980469 C 336.203125 3.277344 335.664062 3.597656 335.140625 3.945312 C 334.621094 4.296875 334.117188 4.667969 333.632812 5.066406 C 333.148438 5.464844 332.683594 5.886719 332.238281 6.328125 C 331.796875 6.773438 331.375 7.238281 330.976562 7.722656 C 330.578125 8.207031 330.207031 8.710938 329.855469 9.230469 C 329.507812 9.753906 329.1875 10.292969 328.890625 10.84375 C 328.59375 11.398438 328.328125 11.964844 328.085938 12.542969 C 327.847656 13.125 327.636719 13.714844 327.453125 14.316406 C 327.269531 14.914062 327.117188 15.523438 326.996094 16.136719 C 326.875 16.753906 326.78125 17.375 326.71875 17.996094 C 326.660156 18.621094 326.628906 19.25 326.628906 19.875 C 326.628906 20.503906 326.660156 21.128906 326.71875 21.753906 C 326.78125 22.378906 326.875 22.996094 326.996094 23.613281 C 327.117188 24.226562 327.269531 24.835938 327.453125 25.4375 C 327.636719 26.035156 327.847656 26.625 328.085938 27.207031 C 328.328125 27.785156 328.59375 28.351562 328.890625 28.90625 C 329.1875 29.460938 329.507812 29.996094 329.855469 30.519531 C 330.207031 31.039062 330.578125 31.542969 330.976562 32.027344 C 331.375 32.511719 331.796875 32.976562 332.238281 33.421875 C 332.683594 33.867188 333.148438 34.285156 333.632812 34.683594 C 334.117188 35.082031 334.621094 35.457031 335.140625 35.804688 C 335.664062 36.152344 336.203125 36.476562 336.753906 36.769531 C 337.308594 37.066406 337.875 37.335938 338.453125 37.574219 C 339.035156 37.8125 339.625 38.027344 340.222656 38.207031 C 340.824219 38.390625 341.433594 38.542969 342.046875 38.664062 C 342.664062 38.785156 343.285156 38.878906 343.90625 38.941406 C 344.53125 39 345.15625 39.03125 345.785156 39.03125 C 346.414062 39.03125 347.039062 39 347.664062 38.941406 C 348.289062 38.878906 348.90625 38.785156 349.523438 38.664062 C 350.136719 38.542969 350.746094 38.390625 351.347656 38.207031 C 351.945312 38.027344 352.535156 37.8125 353.117188 37.574219 C 353.695312 37.335938 354.261719 37.066406 354.816406 36.769531 C 355.371094 36.476562 355.90625 36.152344 356.429688 35.804688 C 356.949219 35.457031 357.453125 35.082031 357.9375 34.683594 C 358.421875 34.285156 358.886719 33.867188 359.332031 33.421875 C 359.773438 32.976562 360.195312 32.511719 360.59375 32.027344 C 360.992188 31.542969 361.367188 31.039062 361.714844 30.519531 C 362.0625 29.996094 362.382812 29.460938 362.679688 28.90625 C 362.976562 28.351562 363.242188 27.785156 363.484375 27.207031 C 363.722656 26.625 363.933594 26.035156 364.117188 25.4375 C 364.300781 24.835938 364.453125 24.226562 364.574219 23.613281 C 364.695312 22.996094 364.789062 22.378906 364.851562 21.753906 C 364.910156 21.128906 364.941406 20.503906 364.941406 19.875 C 364.941406 19.25 364.910156 18.621094 364.851562 17.996094 C 364.789062 17.375 364.695312 16.753906 364.574219 16.136719 C 364.453125 15.523438 364.300781 14.914062 364.117188 14.316406 C 363.933594 13.714844 363.722656 13.125 363.484375 12.542969 C 363.242188 11.964844 362.976562 11.398438 362.679688 10.84375 C 362.382812 10.292969 362.0625 9.753906 361.714844 9.230469 C 361.367188 8.710938 360.992188 8.207031 360.59375 7.722656 C 360.195312 7.238281 359.773438 6.773438 359.332031 6.328125 C 358.886719 5.886719 358.421875 5.464844 357.9375 5.066406 C 357.453125 4.667969 356.949219 4.296875 356.429688 3.945312 C 355.90625 3.597656 355.371094 3.277344 354.816406 2.980469 C 354.261719 2.683594 353.695312 2.417969 353.117188 2.175781 C 352.535156 1.9375 351.945312 1.726562 351.347656 1.542969 C 350.746094 1.359375 350.136719 1.207031 349.523438 1.085938 C 348.90625 0.964844 348.289062 0.871094 347.664062 0.8125 C 347.039062 0.75 346.414062 0.71875 345.785156 0.71875 Z M 345.785156 0.71875 "/>
<path style=" stroke:none;fill-rule:nonzero;fill:rgb(53.329468%,68.238831%,27.059937%);fill-opacity:1;" d="M 364.941406 53.398438 C 364.3125 53.398438 363.691406 53.460938 363.074219 53.585938 C 362.457031 53.707031 361.859375 53.890625 361.277344 54.128906 C 360.695312 54.371094 360.144531 54.664062 359.621094 55.015625 C 359.097656 55.363281 358.613281 55.761719 358.167969 56.207031 C 357.726562 56.652344 357.328125 57.132812 356.976562 57.65625 C 356.628906 58.179688 356.332031 58.730469 356.09375 59.3125 C 355.851562 59.894531 355.671875 60.492188 355.546875 61.109375 C 355.425781 61.726562 355.363281 62.351562 355.363281 62.980469 C 355.363281 63.609375 355.425781 64.230469 355.546875 64.847656 C 355.671875 65.464844 355.851562 66.0625 356.09375 66.644531 C 356.332031 67.226562 356.628906 67.777344 356.976562 68.300781 C 357.328125 68.824219 357.726562 69.308594 358.167969 69.753906 C 358.613281 70.195312 359.097656 70.59375 359.621094 70.941406 C 360.144531 71.292969 360.695312 71.585938 361.277344 71.828125 C 361.859375 72.070312 362.457031 72.25 363.074219 72.375 C 363.691406 72.496094 364.3125 72.558594 364.941406 72.558594 C 365.570312 72.558594 366.195312 72.496094 366.8125 72.375 C 367.429688 72.25 368.027344 72.070312 368.609375 71.828125 C 369.1875 71.585938 369.742188 71.292969 370.265625 70.941406 C 370.785156 70.59375 371.269531 70.195312 371.714844 69.753906 C 372.160156 69.308594 372.558594 68.824219 372.90625 68.300781 C 373.257812 67.777344 373.550781 67.226562 373.792969 66.644531 C 374.03125 66.0625 374.214844 65.464844 374.335938 64.847656 C 374.460938 64.230469 374.519531 63.609375 374.519531 62.980469 C 374.519531 62.351562 374.460938 61.726562 374.335938 61.109375 C 374.214844 60.492188 374.03125 59.894531 373.792969 59.3125 C 373.550781 58.730469 373.257812 58.179688 372.90625 57.65625 C 372.558594 57.132812 372.160156 56.652344 371.714844 56.207031 C 371.269531 55.761719 370.785156 55.363281 370.265625 55.015625 C 369.742188 54.664062 369.1875 54.371094 368.609375 54.128906 C 368.027344 53.890625 367.429688 53.707031 366.8125 53.585938 C 366.195312 53.460938 365.570312 53.398438 364.941406 53.398438 Z M 364.941406 53.398438 "/>
<path style=" stroke:none;fill-rule:nonzero;fill:rgb(98.429871%,80.389404%,34.899902%);fill-opacity:1;" d="M 336.207031 302.441406 C 335.578125 302.441406 334.953125 302.503906 334.339844 302.625 C 333.722656 302.75 333.121094 302.929688 332.542969 303.171875 C 331.960938 303.414062 331.410156 303.707031 330.886719 304.058594 C 330.363281 304.40625 329.878906 304.804688 329.433594 305.246094 C 328.988281 305.691406 328.59375 306.175781 328.242188 306.699219 C 327.894531 307.222656 327.597656 307.773438 327.355469 308.355469 C 327.117188 308.9375 326.933594 309.535156 326.8125 310.152344 C 326.691406 310.769531 326.628906 311.390625 326.628906 312.019531 C 326.628906 312.648438 326.691406 313.273438 326.8125 313.890625 C 326.933594 314.507812 327.117188 315.105469 327.355469 315.6875 C 327.597656 316.269531 327.894531 316.820312 328.242188 317.34375 C 328.59375 317.867188 328.988281 318.347656 329.433594 318.792969 C 329.878906 319.238281 330.363281 319.636719 330.886719 319.984375 C 331.410156 320.335938 331.960938 320.628906 332.542969 320.871094 C 333.121094 321.109375 333.722656 321.292969 334.339844 321.414062 C 334.953125 321.539062 335.578125 321.597656 336.207031 321.597656 C 336.835938 321.597656 337.457031 321.539062 338.074219 321.414062 C 338.691406 321.292969 339.292969 321.109375 339.871094 320.871094 C 340.453125 320.628906 341.003906 320.335938 341.527344 319.984375 C 342.050781 319.636719 342.535156 319.238281 342.980469 318.792969 C 343.425781 318.347656 343.820312 317.867188 344.171875 317.34375 C 344.519531 316.820312 344.816406 316.269531 345.054688 315.6875 C 345.296875 315.105469 345.480469 314.507812 345.601562 313.890625 C 345.722656 313.273438 345.785156 312.648438 345.785156 312.019531 C 345.785156 311.390625 345.722656 310.769531 345.601562 310.152344 C 345.480469 309.535156 345.296875 308.9375 345.054688 308.355469 C 344.816406 307.773438 344.519531 307.222656 344.171875 306.699219 C 343.820312 306.175781 343.425781 305.691406 342.980469 305.246094 C 342.535156 304.804688 342.050781 304.40625 341.527344 304.058594 C 341.003906 303.707031 340.453125 303.414062 339.871094 303.171875 C 339.292969 302.929688 338.691406 302.75 338.074219 302.625 C 337.457031 302.503906 336.835938 302.441406 336.207031 302.441406 Z M 20.113281 230.601562 C 19.488281 230.601562 18.863281 230.632812 18.238281 230.695312 C 17.613281 230.757812 16.992188 230.847656 16.378906 230.972656 C 15.761719 231.09375 15.15625 231.246094 14.554688 231.429688 C 13.953125 231.609375 13.363281 231.820312 12.785156 232.0625 C 12.203125 232.300781 11.636719 232.570312 11.085938 232.867188 C 10.53125 233.160156 9.992188 233.484375 9.472656 233.832031 C 8.949219 234.179688 8.445312 234.554688 7.960938 234.953125 C 7.476562 235.351562 7.011719 235.769531 6.570312 236.214844 C 6.125 236.65625 5.703125 237.121094 5.304688 237.605469 C 4.910156 238.09375 4.535156 238.597656 4.1875 239.117188 C 3.835938 239.640625 3.515625 240.175781 3.21875 240.730469 C 2.925781 241.285156 2.65625 241.851562 2.417969 242.429688 C 2.175781 243.007812 1.964844 243.597656 1.78125 244.199219 C 1.601562 244.800781 1.449219 245.40625 1.324219 246.023438 C 1.203125 246.636719 1.113281 247.257812 1.050781 247.882812 C 0.988281 248.507812 0.957031 249.132812 0.957031 249.761719 C 0.957031 250.386719 0.988281 251.015625 1.050781 251.636719 C 1.113281 252.261719 1.203125 252.882812 1.324219 253.496094 C 1.449219 254.113281 1.601562 254.722656 1.78125 255.320312 C 1.964844 255.921875 2.175781 256.511719 2.417969 257.089844 C 2.65625 257.671875 2.925781 258.238281 3.21875 258.792969 C 3.515625 259.34375 3.835938 259.882812 4.1875 260.402344 C 4.535156 260.925781 4.910156 261.429688 5.304688 261.914062 C 5.703125 262.398438 6.125 262.863281 6.570312 263.304688 C 7.011719 263.75 7.476562 264.171875 7.960938 264.570312 C 8.445312 264.96875 8.949219 265.339844 9.472656 265.6875 C 9.992188 266.039062 10.53125 266.359375 11.085938 266.65625 C 11.636719 266.953125 12.203125 267.21875 12.785156 267.460938 C 13.363281 267.699219 13.953125 267.910156 14.554688 268.09375 C 15.15625 268.273438 15.761719 268.425781 16.378906 268.550781 C 16.992188 268.671875 17.613281 268.765625 18.238281 268.824219 C 18.863281 268.886719 19.488281 268.917969 20.113281 268.917969 C 20.742188 268.917969 21.367188 268.886719 21.992188 268.824219 C 22.617188 268.765625 23.238281 268.671875 23.851562 268.550781 C 24.46875 268.425781 25.074219 268.273438 25.675781 268.09375 C 26.277344 267.910156 26.867188 267.699219 27.445312 267.460938 C 28.027344 267.21875 28.59375 266.953125 29.144531 266.65625 C 29.699219 266.359375 30.238281 266.039062 30.757812 265.6875 C 31.28125 265.339844 31.78125 264.96875 32.269531 264.570312 C 32.753906 264.171875 33.21875 263.75 33.660156 263.304688 C 34.105469 262.863281 34.527344 262.398438 34.921875 261.914062 C 35.320312 261.429688 35.695312 260.925781 36.042969 260.402344 C 36.390625 259.882812 36.714844 259.34375 37.011719 258.792969 C 37.304688 258.238281 37.574219 257.671875 37.8125 257.089844 C 38.054688 256.511719 38.265625 255.921875 38.445312 255.320312 C 38.628906 254.722656 38.78125 254.113281 38.902344 253.496094 C 39.027344 252.882812 39.117188 252.261719 39.179688 251.636719 C 39.242188 251.015625 39.273438 250.386719 39.273438 249.761719 C 39.273438 249.132812 39.242188 248.507812 39.179688 247.882812 C 39.117188 247.257812 39.027344 246.636719 38.902344 246.023438 C 38.78125 245.40625 38.628906 244.800781 38.445312 244.199219 C 38.265625 243.597656 38.054688 243.007812 37.8125 242.429688 C 37.574219 241.851562 37.304688 241.285156 37.011719 240.730469 C 36.714844 240.175781 36.390625 239.640625 36.042969 239.117188 C 35.695312 238.597656 35.320312 238.09375 34.921875 237.605469 C 34.527344 237.121094 34.105469 236.65625 33.660156 236.214844 C 33.21875 235.769531 32.753906 235.351562 32.269531 234.953125 C 31.78125 234.554688 31.28125 234.179688 30.757812 233.832031 C 30.238281 233.484375 29.699219 233.160156 29.144531 232.867188 C 28.59375 232.570312 28.027344 232.300781 27.445312 232.0625 C 26.867188 231.820312 26.277344 231.609375 25.675781 231.429688 C 25.074219 231.246094 24.46875 231.09375 23.851562 230.972656 C 23.238281 230.847656 22.617188 230.757812 21.992188 230.695312 C 21.367188 230.632812 20.742188 230.601562 20.113281 230.601562 Z M 20.113281 230.601562 "/>
<path style=" stroke:none;fill-rule:nonzero;fill:rgb(53.329468%,68.238831%,27.059937%);fill-opacity:1;" d="M 68.007812 355.125 C 67.378906 355.125 66.753906 355.1875 66.140625 355.308594 C 65.523438 355.429688 64.921875 355.613281 64.34375 355.855469 C 63.761719 356.09375 63.210938 356.390625 62.6875 356.738281 C 62.164062 357.089844 61.679688 357.484375 61.234375 357.929688 C 60.789062 358.375 60.394531 358.859375 60.042969 359.382812 C 59.695312 359.90625 59.398438 360.457031 59.160156 361.039062 C 58.917969 361.617188 58.734375 362.21875 58.613281 362.835938 C 58.492188 363.453125 58.429688 364.074219 58.429688 364.703125 C 58.429688 365.332031 58.492188 365.953125 58.613281 366.570312 C 58.734375 367.1875 58.917969 367.789062 59.160156 368.367188 C 59.398438 368.949219 59.695312 369.5 60.042969 370.023438 C 60.394531 370.546875 60.789062 371.03125 61.234375 371.476562 C 61.679688 371.921875 62.164062 372.316406 62.6875 372.667969 C 63.210938 373.015625 63.761719 373.3125 64.34375 373.550781 C 64.921875 373.792969 65.523438 373.976562 66.140625 374.097656 C 66.753906 374.21875 67.378906 374.28125 68.007812 374.28125 C 68.636719 374.28125 69.257812 374.21875 69.875 374.097656 C 70.492188 373.976562 71.09375 373.792969 71.671875 373.550781 C 72.253906 373.3125 72.804688 373.015625 73.328125 372.667969 C 73.851562 372.316406 74.335938 371.921875 74.78125 371.476562 C 75.226562 371.03125 75.621094 370.546875 75.972656 370.023438 C 76.320312 369.5 76.617188 368.949219 76.855469 368.367188 C 77.097656 367.789062 77.28125 367.1875 77.402344 366.570312 C 77.523438 365.953125 77.585938 365.332031 77.585938 364.703125 C 77.585938 364.074219 77.523438 363.453125 77.402344 362.835938 C 77.28125 362.21875 77.097656 361.617188 76.855469 361.039062 C 76.617188 360.457031 76.320312 359.90625 75.972656 359.382812 C 75.621094 358.859375 75.226562 358.375 74.78125 357.929688 C 74.335938 357.484375 73.851562 357.089844 73.328125 356.738281 C 72.804688 356.390625 72.253906 356.09375 71.671875 355.855469 C 71.09375 355.613281 70.492188 355.429688 69.875 355.308594 C 69.257812 355.1875 68.636719 355.125 68.007812 355.125 Z M 68.007812 355.125 "/>
<path style=" stroke:none;fill-rule:nonzero;fill:rgb(100%,100%,100%);fill-opacity:1;" d="M 36.878906 192.289062 C 36.089844 192.289062 35.3125 192.367188 34.542969 192.519531 C 33.769531 192.671875 33.023438 192.898438 32.296875 193.199219 C 31.570312 193.5 30.878906 193.871094 30.226562 194.308594 C 29.570312 194.742188 28.96875 195.238281 28.410156 195.796875 C 27.855469 196.351562 27.359375 196.957031 26.921875 197.609375 C 26.484375 198.265625 26.117188 198.953125 25.816406 199.679688 C 25.515625 200.40625 25.289062 201.15625 25.132812 201.925781 C 24.980469 202.699219 24.902344 203.476562 24.902344 204.261719 C 24.902344 205.046875 24.980469 205.828125 25.132812 206.597656 C 25.289062 207.371094 25.515625 208.117188 25.816406 208.84375 C 26.117188 209.570312 26.484375 210.261719 26.921875 210.914062 C 27.359375 211.566406 27.855469 212.171875 28.410156 212.730469 C 28.96875 213.285156 29.570312 213.78125 30.226562 214.21875 C 30.878906 214.65625 31.570312 215.023438 32.296875 215.324219 C 33.023438 215.625 33.769531 215.851562 34.542969 216.003906 C 35.3125 216.160156 36.089844 216.234375 36.878906 216.234375 C 37.664062 216.234375 38.441406 216.160156 39.214844 216.003906 C 39.984375 215.851562 40.734375 215.625 41.460938 215.324219 C 42.1875 215.023438 42.875 214.65625 43.53125 214.21875 C 44.183594 213.78125 44.789062 213.285156 45.34375 212.730469 C 45.898438 212.171875 46.394531 211.566406 46.832031 210.914062 C 47.269531 210.261719 47.636719 209.570312 47.9375 208.84375 C 48.238281 208.117188 48.46875 207.371094 48.621094 206.597656 C 48.773438 205.828125 48.851562 205.046875 48.851562 204.261719 C 48.851562 203.476562 48.773438 202.699219 48.621094 201.925781 C 48.46875 201.15625 48.238281 200.40625 47.9375 199.679688 C 47.636719 198.953125 47.269531 198.265625 46.832031 197.609375 C 46.394531 196.957031 45.898438 196.351562 45.34375 195.796875 C 44.789062 195.238281 44.183594 194.742188 43.53125 194.308594 C 42.875 193.871094 42.1875 193.5 41.460938 193.199219 C 40.734375 192.898438 39.984375 192.671875 39.214844 192.519531 C 38.441406 192.367188 37.664062 192.289062 36.878906 192.289062 Z M 36.878906 192.289062 "/>
<path style=" stroke:none;fill-rule:nonzero;fill:rgb(94.509888%,73.728943%,9.799194%);fill-opacity:1;" d="M 48.851562 264.128906 C 48.535156 264.128906 48.226562 264.160156 47.917969 264.21875 C 47.609375 264.28125 47.308594 264.371094 47.019531 264.492188 C 46.726562 264.613281 46.453125 264.761719 46.191406 264.933594 C 45.929688 265.109375 45.6875 265.308594 45.464844 265.53125 C 45.242188 265.753906 45.042969 265.996094 44.867188 266.257812 C 44.695312 266.519531 44.546875 266.792969 44.425781 267.085938 C 44.304688 267.375 44.214844 267.675781 44.152344 267.984375 C 44.09375 268.292969 44.0625 268.601562 44.0625 268.917969 C 44.0625 269.230469 44.09375 269.542969 44.152344 269.851562 C 44.214844 270.160156 44.304688 270.460938 44.425781 270.75 C 44.546875 271.039062 44.695312 271.316406 44.867188 271.578125 C 45.042969 271.839844 45.242188 272.082031 45.464844 272.304688 C 45.6875 272.527344 45.929688 272.726562 46.191406 272.898438 C 46.453125 273.074219 46.726562 273.222656 47.019531 273.34375 C 47.308594 273.460938 47.609375 273.554688 47.917969 273.613281 C 48.226562 273.675781 48.535156 273.707031 48.851562 273.707031 C 49.164062 273.707031 49.476562 273.675781 49.785156 273.613281 C 50.09375 273.554688 50.394531 273.460938 50.683594 273.34375 C 50.972656 273.222656 51.25 273.074219 51.511719 272.898438 C 51.773438 272.726562 52.015625 272.527344 52.238281 272.304688 C 52.460938 272.082031 52.65625 271.839844 52.832031 271.578125 C 53.007812 271.316406 53.15625 271.039062 53.273438 270.75 C 53.394531 270.460938 53.488281 270.160156 53.546875 269.851562 C 53.609375 269.542969 53.640625 269.230469 53.640625 268.917969 C 53.640625 268.601562 53.609375 268.292969 53.546875 267.984375 C 53.488281 267.675781 53.394531 267.375 53.273438 267.085938 C 53.15625 266.792969 53.007812 266.519531 52.832031 266.257812 C 52.65625 265.996094 52.460938 265.753906 52.238281 265.53125 C 52.015625 265.308594 51.773438 265.109375 51.511719 264.933594 C 51.25 264.761719 50.972656 264.613281 50.683594 264.492188 C 50.394531 264.371094 50.09375 264.28125 49.785156 264.21875 C 49.476562 264.160156 49.164062 264.128906 48.851562 264.128906 Z M 48.851562 264.128906 "/>
<path style=" stroke:none;fill-rule:nonzero;fill:rgb(100%,100%,100%);fill-opacity:1;" d="M 331.417969 106.082031 C 331.101562 106.082031 330.792969 106.113281 330.484375 106.175781 C 330.175781 106.234375 329.875 106.328125 329.585938 106.445312 C 329.292969 106.566406 329.019531 106.714844 328.757812 106.890625 C 328.496094 107.0625 328.253906 107.261719 328.03125 107.484375 C 327.808594 107.707031 327.609375 107.949219 327.433594 108.210938 C 327.261719 108.472656 327.113281 108.75 326.992188 109.039062 C 326.871094 109.328125 326.78125 109.628906 326.71875 109.9375 C 326.660156 110.246094 326.628906 110.558594 326.628906 110.871094 C 326.628906 111.1875 326.660156 111.496094 326.71875 111.804688 C 326.78125 112.113281 326.871094 112.414062 326.992188 112.703125 C 327.113281 112.996094 327.261719 113.269531 327.433594 113.53125 C 327.609375 113.792969 327.808594 114.035156 328.03125 114.257812 C 328.253906 114.480469 328.496094 114.679688 328.757812 114.855469 C 329.019531 115.027344 329.292969 115.175781 329.585938 115.296875 C 329.875 115.417969 330.175781 115.507812 330.484375 115.570312 C 330.792969 115.628906 331.101562 115.660156 331.417969 115.660156 C 331.730469 115.660156 332.042969 115.628906 332.351562 115.570312 C 332.660156 115.507812 332.960938 115.417969 333.25 115.296875 C 333.539062 115.175781 333.816406 115.027344 334.078125 114.855469 C 334.339844 114.679688 334.582031 114.480469 334.804688 114.257812 C 335.027344 114.035156 335.226562 113.792969 335.398438 113.53125 C 335.574219 113.269531 335.722656 112.996094 335.84375 112.703125 C 335.960938 112.414062 336.054688 112.113281 336.113281 111.804688 C 336.175781 111.496094 336.207031 111.1875 336.207031 110.871094 C 336.207031 110.558594 336.175781 110.246094 336.113281 109.9375 C 336.054688 109.628906 335.960938 109.328125 335.84375 109.039062 C 335.722656 108.75 335.574219 108.472656 335.398438 108.210938 C 335.226562 107.949219 335.027344 107.707031 334.804688 107.484375 C 334.582031 107.261719 334.339844 107.0625 334.078125 106.890625 C 333.816406 106.714844 333.539062 106.566406 333.25 106.445312 C 332.960938 106.328125 332.660156 106.234375 332.351562 106.175781 C 332.042969 106.113281 331.730469 106.082031 331.417969 106.082031 Z M 331.417969 106.082031 "/>
<path style=" stroke:none;fill-rule:nonzero;fill:rgb(53.329468%,68.238831%,27.059937%);fill-opacity:1;" d="M 187.738281 72.757812 C 185.859375 72.757812 183.984375 72.804688 182.109375 72.894531 C 180.230469 72.988281 178.359375 73.125 176.488281 73.308594 C 174.621094 73.492188 172.757812 73.71875 170.898438 73.996094 C 169.042969 74.269531 167.191406 74.589844 165.347656 74.957031 C 163.507812 75.324219 161.675781 75.734375 159.851562 76.1875 C 158.03125 76.644531 156.21875 77.144531 154.421875 77.691406 C 152.625 78.234375 150.84375 78.824219 149.074219 79.457031 C 147.304688 80.085938 145.554688 80.761719 143.816406 81.480469 C 142.082031 82.199219 140.367188 82.960938 138.667969 83.761719 C 136.96875 84.566406 135.292969 85.410156 133.636719 86.292969 C 131.976562 87.179688 130.34375 88.105469 128.734375 89.070312 C 127.121094 90.035156 125.535156 91.039062 123.972656 92.082031 C 122.410156 93.125 120.875 94.207031 119.367188 95.324219 C 117.859375 96.445312 116.378906 97.597656 114.925781 98.789062 C 113.472656 99.980469 112.050781 101.207031 110.660156 102.46875 C 109.269531 103.730469 107.90625 105.023438 106.578125 106.351562 C 105.25 107.679688 103.957031 109.039062 102.695312 110.429688 C 101.433594 111.820312 100.207031 113.242188 99.015625 114.695312 C 97.824219 116.148438 96.667969 117.628906 95.546875 119.136719 C 94.429688 120.644531 93.347656 122.179688 92.304688 123.742188 C 91.261719 125.300781 90.253906 126.886719 89.289062 128.5 C 88.324219 130.109375 87.398438 131.742188 86.511719 133.398438 C 85.628906 135.058594 84.78125 136.734375 83.980469 138.433594 C 83.175781 140.128906 82.414062 141.847656 81.695312 143.582031 C 80.976562 145.316406 80.300781 147.066406 79.667969 148.835938 C 79.035156 150.605469 78.445312 152.386719 77.902344 154.183594 C 77.355469 155.984375 76.855469 157.792969 76.398438 159.613281 C 75.941406 161.4375 75.53125 163.269531 75.164062 165.109375 C 74.796875 166.953125 74.476562 168.800781 74.199219 170.660156 C 73.925781 172.519531 73.695312 174.382812 73.511719 176.25 C 73.328125 178.121094 73.1875 179.992188 73.097656 181.867188 C 73.003906 183.746094 72.957031 185.621094 72.957031 187.5 C 72.957031 189.378906 73.003906 191.253906 73.097656 193.132812 C 73.1875 195.007812 73.328125 196.878906 73.511719 198.75 C 73.695312 200.617188 73.925781 202.480469 74.199219 204.339844 C 74.476562 206.199219 74.796875 208.046875 75.164062 209.890625 C 75.53125 211.730469 75.941406 213.5625 76.398438 215.386719 C 76.855469 217.207031 77.355469 219.015625 77.902344 220.816406 C 78.445312 222.613281 79.035156 224.394531 79.667969 226.164062 C 80.300781 227.933594 80.976562 229.683594 81.695312 231.417969 C 82.414062 233.152344 83.175781 234.871094 83.980469 236.566406 C 84.78125 238.265625 85.628906 239.941406 86.511719 241.597656 C 87.398438 243.257812 88.324219 244.890625 89.289062 246.5 C 90.253906 248.113281 91.261719 249.699219 92.304688 251.257812 C 93.347656 252.820312 94.429688 254.355469 95.546875 255.863281 C 96.667969 257.371094 97.824219 258.851562 99.015625 260.304688 C 100.207031 261.757812 101.433594 263.179688 102.695312 264.570312 C 103.957031 265.960938 105.25 267.320312 106.578125 268.648438 C 107.90625 269.976562 109.269531 271.269531 110.660156 272.53125 C 112.050781 273.792969 113.472656 275.019531 114.925781 276.210938 C 116.378906 277.402344 117.859375 278.554688 119.367188 279.675781 C 120.875 280.792969 122.410156 281.875 123.972656 282.917969 C 125.535156 283.960938 127.121094 284.964844 128.734375 285.929688 C 130.34375 286.894531 131.976562 287.820312 133.636719 288.707031 C 135.292969 289.589844 136.96875 290.433594 138.667969 291.238281 C 140.367188 292.039062 142.082031 292.800781 143.816406 293.519531 C 145.554688 294.238281 147.304688 294.914062 149.074219 295.542969 C 150.84375 296.175781 152.625 296.765625 154.421875 297.308594 C 156.21875 297.855469 158.03125 298.355469 159.851562 298.8125 C 161.675781 299.265625 163.507812 299.675781 165.347656 300.042969 C 167.191406 300.410156 169.042969 300.730469 170.898438 301.003906 C 172.757812 301.28125 174.621094 301.507812 176.488281 301.691406 C 178.359375 301.875 180.230469 302.011719 182.109375 302.105469 C 183.984375 302.195312 185.859375 302.242188 187.738281 302.242188 C 189.617188 302.242188 191.496094 302.195312 193.371094 302.105469 C 195.246094 302.011719 197.121094 301.875 198.988281 301.691406 C 200.859375 301.507812 202.722656 301.28125 204.578125 301.003906 C 206.4375 300.730469 208.289062 300.410156 210.128906 300.042969 C 211.972656 299.675781 213.804688 299.265625 215.625 298.8125 C 217.449219 298.355469 219.257812 297.855469 221.054688 297.308594 C 222.851562 296.765625 224.636719 296.175781 226.40625 295.542969 C 228.171875 294.914062 229.925781 294.238281 231.660156 293.519531 C 233.398438 292.800781 235.113281 292.039062 236.8125 291.238281 C 238.507812 290.433594 240.1875 289.589844 241.84375 288.707031 C 243.5 287.820312 245.132812 286.894531 246.746094 285.929688 C 248.355469 284.964844 249.945312 283.960938 251.503906 282.917969 C 253.066406 281.875 254.601562 280.792969 256.113281 279.675781 C 257.621094 278.554688 259.101562 277.402344 260.554688 276.210938 C 262.003906 275.019531 263.425781 273.792969 264.820312 272.53125 C 266.210938 271.269531 267.570312 269.976562 268.898438 268.648438 C 270.226562 267.320312 271.523438 265.960938 272.785156 264.570312 C 274.046875 263.179688 275.273438 261.757812 276.464844 260.304688 C 277.65625 258.851562 278.8125 257.371094 279.929688 255.863281 C 281.050781 254.355469 282.132812 252.820312 283.175781 251.257812 C 284.21875 249.699219 285.222656 248.113281 286.1875 246.5 C 287.15625 244.890625 288.082031 243.257812 288.964844 241.597656 C 289.851562 239.941406 290.695312 238.265625 291.5 236.566406 C 292.300781 234.871094 293.0625 233.152344 293.78125 231.417969 C 294.5 229.683594 295.175781 227.933594 295.808594 226.164062 C 296.441406 224.394531 297.03125 222.613281 297.578125 220.816406 C 298.121094 219.015625 298.625 217.207031 299.082031 215.386719 C 299.535156 213.5625 299.949219 211.730469 300.316406 209.890625 C 300.679688 208.046875 301.003906 206.199219 301.277344 204.339844 C 301.554688 202.480469 301.785156 200.617188 301.96875 198.75 C 302.152344 196.878906 302.289062 195.007812 302.382812 193.132812 C 302.472656 191.253906 302.519531 189.378906 302.519531 187.5 C 302.519531 185.621094 302.472656 183.746094 302.382812 181.867188 C 302.289062 179.992188 302.152344 178.121094 301.96875 176.25 C 301.785156 174.382812 301.554688 172.519531 301.277344 170.660156 C 301.003906 168.800781 300.679688 166.953125 300.316406 165.109375 C 299.949219 163.269531 299.535156 161.4375 299.082031 159.613281 C 298.625 157.792969 298.121094 155.984375 297.578125 154.183594 C 297.03125 152.386719 296.441406 150.605469 295.808594 148.835938 C 295.175781 147.066406 294.5 145.316406 293.78125 143.582031 C 293.0625 141.847656 292.300781 140.128906 291.5 138.433594 C 290.695312 136.734375 289.851562 135.058594 288.964844 133.398438 C 288.082031 131.742188 287.15625 130.109375 286.1875 128.5 C 285.222656 126.886719 284.21875 125.300781 283.175781 123.742188 C 282.132812 122.179688 281.050781 120.644531 279.929688 119.136719 C 278.8125 117.628906 277.65625 116.148438 276.464844 114.695312 C 275.273438 113.242188 274.046875 111.820312 272.785156 110.429688 C 271.523438 109.039062 270.226562 107.679688 268.898438 106.351562 C 267.570312 105.023438 266.210938 103.730469 264.820312 102.46875 C 263.425781 101.207031 262.003906 99.980469 260.554688 98.789062 C 259.101562 97.597656 257.621094 96.445312 256.113281 95.324219 C 254.601562 94.207031 253.066406 93.125 251.503906 92.082031 C 249.945312 91.039062 248.355469 90.035156 246.746094 89.070312 C 245.132812 88.105469 243.5 87.179688 241.84375 86.292969 C 240.1875 85.410156 238.507812 84.566406 236.8125 83.761719 C 235.113281 82.960938 233.398438 82.199219 231.660156 81.480469 C 229.925781 80.761719 228.171875 80.085938 226.40625 79.457031 C 224.636719 78.824219 222.851562 78.234375 221.054688 77.691406 C 219.257812 77.144531 217.449219 76.644531 215.625 76.1875 C 213.804688 75.734375 211.972656 75.324219 210.128906 74.957031 C 208.289062 74.589844 206.4375 74.269531 204.578125 73.996094 C 202.722656 73.71875 200.859375 73.492188 198.988281 73.308594 C 197.121094 73.125 195.246094 72.988281 193.371094 72.894531 C 191.496094 72.804688 189.617188 72.757812 187.738281 72.757812 Z M 187.738281 72.757812 "/>
<path style=" stroke:none;fill-rule:nonzero;fill:rgb(27.839661%,16.859436%,16.079712%);fill-opacity:1;" d="M 187.738281 74.472656 C 250.0625 74.472656 300.765625 125.175781 300.765625 187.5 C 300.765625 249.824219 250.0625 300.527344 187.738281 300.527344 C 125.417969 300.527344 74.710938 249.824219 74.710938 187.5 C 74.710938 125.175781 125.417969 74.472656 187.738281 74.472656 M 187.738281 67.769531 C 121.613281 67.769531 68.007812 121.375 68.007812 187.5 C 68.007812 253.625 121.613281 307.230469 187.738281 307.230469 C 253.863281 307.230469 307.472656 253.625 307.472656 187.5 C 307.472656 121.375 253.863281 67.769531 187.738281 67.769531 Z M 187.738281 67.769531 "/>
<path style=" stroke:none;fill-rule:nonzero;fill:rgb(99.21875%,98.81897%,93.728638%);fill-opacity:1;" d="M 187.738281 94.109375 C 186.210938 94.109375 184.683594 94.148438 183.15625 94.222656 C 181.628906 94.296875 180.105469 94.410156 178.585938 94.558594 C 177.066406 94.707031 175.546875 94.894531 174.035156 95.121094 C 172.523438 95.34375 171.019531 95.605469 169.519531 95.902344 C 168.019531 96.203125 166.53125 96.535156 165.046875 96.90625 C 163.566406 97.28125 162.09375 97.6875 160.628906 98.128906 C 159.167969 98.574219 157.714844 99.054688 156.277344 99.570312 C 154.839844 100.082031 153.414062 100.632812 152 101.21875 C 150.589844 101.804688 149.191406 102.421875 147.808594 103.074219 C 146.429688 103.730469 145.0625 104.417969 143.714844 105.136719 C 142.367188 105.855469 141.039062 106.609375 139.726562 107.394531 C 138.414062 108.183594 137.125 109 135.855469 109.847656 C 134.582031 110.699219 133.335938 111.578125 132.105469 112.488281 C 130.878906 113.398438 129.675781 114.339844 128.492188 115.308594 C 127.3125 116.277344 126.15625 117.277344 125.023438 118.300781 C 123.890625 119.328125 122.78125 120.382812 121.703125 121.460938 C 120.621094 122.542969 119.566406 123.648438 118.542969 124.78125 C 117.515625 125.914062 116.515625 127.070312 115.546875 128.253906 C 114.578125 129.433594 113.636719 130.640625 112.726562 131.867188 C 111.816406 133.09375 110.9375 134.34375 110.085938 135.613281 C 109.238281 136.886719 108.421875 138.175781 107.636719 139.488281 C 106.851562 140.796875 106.097656 142.128906 105.375 143.476562 C 104.65625 144.824219 103.96875 146.1875 103.316406 147.570312 C 102.660156 148.953125 102.042969 150.347656 101.457031 151.761719 C 100.871094 153.171875 100.324219 154.597656 99.808594 156.039062 C 99.292969 157.476562 98.8125 158.925781 98.371094 160.390625 C 97.925781 161.851562 97.519531 163.324219 97.148438 164.808594 C 96.777344 166.289062 96.441406 167.78125 96.144531 169.28125 C 95.84375 170.78125 95.582031 172.285156 95.359375 173.796875 C 95.136719 175.308594 94.949219 176.824219 94.796875 178.347656 C 94.648438 179.867188 94.535156 181.390625 94.460938 182.917969 C 94.386719 184.445312 94.347656 185.972656 94.347656 187.5 C 94.347656 189.027344 94.386719 190.554688 94.460938 192.082031 C 94.535156 193.609375 94.648438 195.132812 94.796875 196.652344 C 94.949219 198.175781 95.136719 199.691406 95.359375 201.203125 C 95.582031 202.714844 95.84375 204.21875 96.144531 205.71875 C 96.441406 207.21875 96.777344 208.710938 97.148438 210.191406 C 97.519531 211.675781 97.925781 213.148438 98.371094 214.609375 C 98.8125 216.074219 99.292969 217.523438 99.808594 218.960938 C 100.324219 220.402344 100.871094 221.828125 101.457031 223.238281 C 102.042969 224.652344 102.660156 226.046875 103.316406 227.429688 C 103.96875 228.8125 104.65625 230.175781 105.375 231.523438 C 106.097656 232.871094 106.851562 234.203125 107.636719 235.511719 C 108.421875 236.824219 109.238281 238.113281 110.085938 239.386719 C 110.9375 240.65625 111.816406 241.90625 112.726562 243.132812 C 113.636719 244.359375 114.578125 245.566406 115.546875 246.746094 C 116.515625 247.929688 117.515625 249.085938 118.542969 250.21875 C 119.566406 251.351562 120.621094 252.457031 121.703125 253.539062 C 122.78125 254.617188 123.890625 255.671875 125.023438 256.699219 C 126.15625 257.722656 127.3125 258.722656 128.492188 259.691406 C 129.675781 260.660156 130.878906 261.601562 132.105469 262.511719 C 133.335938 263.421875 134.582031 264.300781 135.855469 265.152344 C 137.125 266 138.414062 266.816406 139.726562 267.605469 C 141.039062 268.390625 142.367188 269.144531 143.714844 269.863281 C 145.0625 270.582031 146.429688 271.269531 147.808594 271.925781 C 149.191406 272.578125 150.589844 273.195312 152 273.78125 C 153.414062 274.367188 154.839844 274.917969 156.277344 275.429688 C 157.714844 275.945312 159.167969 276.425781 160.628906 276.871094 C 162.09375 277.3125 163.566406 277.71875 165.046875 278.09375 C 166.53125 278.464844 168.019531 278.796875 169.519531 279.097656 C 171.019531 279.394531 172.523438 279.65625 174.035156 279.878906 C 175.546875 280.105469 177.066406 280.292969 178.585938 280.441406 C 180.105469 280.589844 181.628906 280.703125 183.15625 280.777344 C 184.683594 280.851562 186.210938 280.890625 187.738281 280.890625 C 189.269531 280.890625 190.796875 280.851562 192.320312 280.777344 C 193.847656 280.703125 195.371094 280.589844 196.894531 280.441406 C 198.414062 280.292969 199.929688 280.105469 201.441406 279.878906 C 202.953125 279.65625 204.460938 279.394531 205.960938 279.097656 C 207.457031 278.796875 208.949219 278.464844 210.429688 278.09375 C 211.914062 277.71875 213.386719 277.3125 214.847656 276.871094 C 216.3125 276.425781 217.761719 275.945312 219.203125 275.429688 C 220.640625 274.917969 222.066406 274.367188 223.476562 273.78125 C 224.890625 273.195312 226.289062 272.578125 227.667969 271.925781 C 229.050781 271.269531 230.414062 270.582031 231.761719 269.863281 C 233.113281 269.144531 234.441406 268.390625 235.75 267.605469 C 237.0625 266.816406 238.355469 266 239.625 265.152344 C 240.894531 264.300781 242.144531 263.421875 243.371094 262.511719 C 244.601562 261.601562 245.804688 260.660156 246.984375 259.691406 C 248.167969 258.722656 249.324219 257.722656 250.457031 256.699219 C 251.589844 255.671875 252.695312 254.617188 253.777344 253.539062 C 254.859375 252.457031 255.910156 251.351562 256.9375 250.21875 C 257.964844 249.085938 258.960938 247.929688 259.929688 246.746094 C 260.902344 245.566406 261.839844 244.359375 262.75 243.132812 C 263.660156 241.90625 264.542969 240.65625 265.390625 239.386719 C 266.238281 238.113281 267.058594 236.824219 267.84375 235.511719 C 268.628906 234.203125 269.382812 232.871094 270.101562 231.523438 C 270.824219 230.175781 271.511719 228.8125 272.164062 227.429688 C 272.816406 226.046875 273.4375 224.652344 274.019531 223.238281 C 274.605469 221.828125 275.15625 220.402344 275.671875 218.960938 C 276.1875 217.523438 276.664062 216.074219 277.109375 214.609375 C 277.550781 213.148438 277.960938 211.675781 278.332031 210.191406 C 278.703125 208.710938 279.039062 207.21875 279.335938 205.71875 C 279.632812 204.21875 279.894531 202.714844 280.121094 201.203125 C 280.34375 199.691406 280.53125 198.175781 280.679688 196.652344 C 280.832031 195.132812 280.941406 193.609375 281.019531 192.082031 C 281.09375 190.554688 281.128906 189.027344 281.128906 187.5 C 281.128906 185.972656 281.09375 184.445312 281.019531 182.917969 C 280.941406 181.390625 280.832031 179.867188 280.679688 178.347656 C 280.53125 176.824219 280.34375 175.308594 280.121094 173.796875 C 279.894531 172.285156 279.632812 170.78125 279.335938 169.28125 C 279.039062 167.78125 278.703125 166.289062 278.332031 164.808594 C 277.960938 163.324219 277.550781 161.851562 277.109375 160.390625 C 276.664062 158.925781 276.1875 157.476562 275.671875 156.039062 C 275.15625 154.597656 274.605469 153.171875 274.019531 151.761719 C 273.4375 150.347656 272.816406 148.953125 272.164062 147.570312 C 271.511719 146.1875 270.824219 144.824219 270.101562 143.476562 C 269.382812 142.128906 268.628906 140.796875 267.84375 139.488281 C 267.058594 138.175781 266.238281 136.886719 265.390625 135.613281 C 264.542969 134.34375 263.660156 133.09375 262.75 131.867188 C 261.839844 130.640625 260.902344 129.433594 259.929688 128.253906 C 258.960938 127.070312 257.964844 125.914062 256.9375 124.78125 C 255.910156 123.648438 254.859375 122.542969 253.777344 121.460938 C 252.695312 120.382812 251.589844 119.328125 250.457031 118.300781 C 249.324219 117.277344 248.167969 116.277344 246.984375 115.308594 C 245.804688 114.339844 244.601562 113.398438 243.371094 112.488281 C 242.144531 111.578125 240.894531 110.699219 239.625 109.847656 C 238.355469 109 237.0625 108.183594 235.75 107.394531 C 234.441406 106.609375 233.113281 105.855469 231.761719 105.136719 C 230.414062 104.417969 229.050781 103.730469 227.667969 103.074219 C 226.289062 102.421875 224.890625 101.804688 223.476562 101.21875 C 222.066406 100.632812 220.640625 100.082031 219.203125 99.570312 C 217.761719 99.054688 216.3125 98.574219 214.847656 98.128906 C 213.386719 97.6875 211.914062 97.28125 210.429688 96.90625 C 208.949219 96.535156 207.457031 96.203125 205.960938 95.902344 C 204.460938 95.605469 202.953125 95.34375 201.441406 95.121094 C 199.929688 94.894531 198.414062 94.707031 196.894531 94.558594 C 195.371094 94.410156 193.847656 94.296875 192.320312 94.222656 C 190.796875 94.148438 189.269531 94.109375 187.738281 94.109375 Z M 187.738281 94.109375 "/>
<path style=" stroke:none;fill-rule:nonzero;fill:rgb(27.839661%,16.859436%,16.079712%);fill-opacity:1;" d="M 282.386719 172.910156 C 282.179688 171.605469 280.957031 170.707031 279.648438 170.910156 C 278.34375 171.109375 277.441406 172.332031 277.652344 173.644531 C 282.113281 202.265625 272.605469 231.507812 252.226562 251.871094 C 216.703125 287.371094 158.90625 287.371094 123.386719 251.871094 C 87.863281 216.378906 87.863281 158.621094 123.386719 123.121094 C 158.90625 87.628906 216.703125 87.628906 252.226562 123.121094 C 255.953125 126.847656 259.378906 130.988281 262.695312 135.769531 C 263.453125 136.859375 264.941406 137.132812 266.035156 136.375 C 267.113281 135.632812 267.390625 134.132812 266.636719 133.042969 C 263.152344 128.015625 259.546875 123.664062 255.613281 119.738281 C 218.222656 82.375 157.386719 82.371094 119.992188 119.738281 C 82.601562 157.101562 82.601562 217.898438 119.992188 255.261719 C 157.378906 292.625 218.21875 292.628906 255.613281 255.261719 C 277.074219 233.820312 287.082031 203.035156 282.386719 172.910156 Z M 282.386719 172.910156 "/>
<path style=" stroke:none;fill-rule:nonzero;fill:rgb(27.839661%,16.859436%,16.079712%);fill-opacity:1;" d="M 271.882812 153 C 272.386719 154.222656 273.789062 154.808594 275.007812 154.304688 C 276.226562 153.808594 276.820312 152.410156 276.3125 151.183594 C 274.804688 147.515625 273.394531 144.5 271.878906 141.714844 C 271.246094 140.550781 269.789062 140.125 268.625 140.757812 C 268.417969 140.867188 268.234375 141.011719 268.074219 141.167969 C 267.34375 141.902344 267.144531 143.050781 267.664062 144.007812 C 269.105469 146.636719 270.445312 149.496094 271.882812 153 Z M 271.882812 153 "/>
<path style=" stroke:none;fill-rule:nonzero;fill:rgb(53.329468%,68.238831%,27.059937%);fill-opacity:1;" d="M 144.636719 179.71875 C 142.558594 179.71875 140.601562 180.527344 139.132812 181.996094 C 137.664062 183.46875 136.851562 185.421875 136.851562 187.5 C 136.851562 189.578125 137.664062 191.53125 139.132812 193.003906 L 172.65625 226.527344 C 174.128906 228 176.082031 228.808594 178.160156 228.808594 L 178.160156 230.601562 L 178.308594 228.808594 C 180.441406 228.765625 182.472656 227.84375 183.898438 226.289062 L 236.582031 168.816406 C 237.984375 167.285156 238.707031 165.296875 238.621094 163.21875 C 238.53125 161.140625 237.632812 159.230469 236.105469 157.820312 C 234.570312 156.417969 232.621094 155.664062 230.507812 155.78125 C 228.433594 155.871094 226.519531 156.761719 225.113281 158.296875 L 177.921875 209.773438 L 150.144531 181.996094 C 148.667969 180.527344 146.714844 179.71875 144.636719 179.71875 Z M 144.636719 179.71875 "/>
<path style=" stroke:none;fill-rule:nonzero;fill:rgb(27.839661%,16.859436%,16.079712%);fill-opacity:1;" d="M 230.84375 157.566406 C 232.34375 157.566406 233.777344 158.128906 234.890625 159.144531 C 236.066406 160.226562 236.753906 161.695312 236.824219 163.296875 C 236.890625 164.894531 236.335938 166.421875 235.253906 167.601562 L 182.570312 225.070312 C 181.476562 226.269531 179.914062 226.976562 178.160156 227.011719 C 176.5625 227.011719 175.058594 226.390625 173.925781 225.257812 L 140.402344 191.734375 C 139.273438 190.601562 138.648438 189.097656 138.648438 187.5 C 138.648438 185.898438 139.273438 184.398438 140.40625 183.265625 C 141.53125 182.136719 143.035156 181.511719 144.636719 181.511719 C 146.234375 181.511719 147.738281 182.136719 148.871094 183.265625 L 175.320312 209.71875 L 177.972656 212.371094 L 180.507812 209.605469 L 226.433594 159.507812 C 227.578125 158.257812 229.144531 157.566406 230.84375 157.566406 M 230.84375 153.976562 C 228.25 153.976562 225.671875 155.019531 223.785156 157.082031 L 177.859375 207.179688 L 151.40625 180.726562 C 149.539062 178.855469 147.089844 177.921875 144.636719 177.921875 C 142.183594 177.921875 139.730469 178.855469 137.863281 180.726562 C 134.125 184.46875 134.125 190.53125 137.863281 194.273438 L 171.390625 227.796875 C 173.183594 229.597656 175.621094 230.601562 178.160156 230.601562 C 178.234375 230.601562 178.300781 230.601562 178.367188 230.601562 C 180.976562 230.546875 183.453125 229.425781 185.21875 227.5 L 237.902344 170.027344 C 241.480469 166.128906 241.210938 160.066406 237.3125 156.496094 C 235.472656 154.808594 233.15625 153.976562 230.84375 153.976562 Z M 230.84375 153.976562 "/>
</g>
</svg>
