<svg id="Layer_1" enable-background="new 0 0 512 512" height="512" viewBox="0 0 512 512" width="512" xmlns="http://www.w3.org/2000/svg"><g><path d="m496 0h-480c-8.837 0-16 7.164-16 16v480c0 8.836 7.163 16 16 16h480c8.837 0 16-7.164 16-16 0-6.18 0-474.12 0-480 0-8.836-7.163-16-16-16zm-464 32h448v80h-448zm0 448v-336h448v336z"/><circle cx="72" cy="72" r="16"/><circle cx="128" cy="72" r="16"/><circle cx="184" cy="72" r="16"/><path d="m384 248c-20.448 0-47.63 0-70.685 0l-8.538-50.659c-1.469-8.715-9.727-14.589-18.437-13.118-8.714 1.468-14.587 9.723-13.118 18.437l7.642 45.34h-49.237l8.12-45.169c1.564-8.697-4.219-17.015-12.916-18.579-8.706-1.568-17.016 4.22-18.578 12.917l-9.138 50.831c-7.34 0-61.733 0-71.115 0-8.837 0-16 7.164-16 16s7.163 16 16 16h1.679l11.236 101.127c2.717 24.441 23.225 42.873 47.704 42.873h134.762c24.479 0 44.987-18.432 47.704-42.874l11.236-101.126h1.679c8.837 0 16-7.164 16-16s-7.163-16-16-16zm-44.72 129.592c-.913 8.214-7.748 14.408-15.899 14.408h-134.762c-8.151 0-14.986-6.194-15.899-14.407l-10.844-97.593h31.486l-1.109 6.169c-1.763 9.802 5.77 18.834 15.766 18.834 7.597 0 14.338-5.433 15.729-13.172l2.126-11.831h60.384l1.965 11.659c1.472 8.737 9.745 14.584 18.437 13.118 8.714-1.468 14.587-9.723 13.118-18.437l-1.069-6.34h31.415z"/></g></svg>