<?xml version="1.0" encoding="UTF-8"?>
<svg xmlns="http://www.w3.org/2000/svg" xmlns:xlink="http://www.w3.org/1999/xlink" width="375pt" height="374.999991pt" viewBox="0 0 375 374.999991" version="1.2">
<defs>
<clipPath id="clip1">
  <path d="M 0.0507812 1.25 L 374.609375 1.25 L 374.609375 374.746094 L 0.0507812 374.746094 Z M 0.0507812 1.25 "/>
</clipPath>
</defs>
<g id="surface1">
<path style=" stroke:none;fill-rule:evenodd;fill:rgb(76.078796%,74.899292%,74.899292%);fill-opacity:1;" d="M 187.519531 346.976562 C 192.917969 347.851562 193.484375 339.039062 190.902344 336.164062 C 190 336.164062 189.097656 336.164062 188.195312 336.164062 C 189.980469 340.945312 186.554688 343.714844 187.519531 346.976562 Z M 247.714844 336.164062 C 248.914062 336.316406 251.101562 335.480469 250.417969 337.511719 C 251.03125 340.375 246.601562 338.199219 247.039062 340.894531 C 260.585938 351.050781 251.957031 317.386719 247.714844 336.164062 Z M 160.464844 346.976562 C 168.195312 349.40625 182.511719 348.921875 182.109375 340.21875 C 181.988281 337.570312 177.914062 333.984375 176.023438 333.457031 C 167.835938 331.1875 165.417969 343.402344 169.257812 346.976562 C 160.78125 347.425781 158.8125 335.230469 163.847656 330.078125 C 154.742188 329.589844 156.523438 343.269531 160.464844 346.976562 Z M 184.816406 332.78125 C 187.949219 334.503906 191.359375 331.414062 190.902344 327.375 C 188.707031 326.332031 185.015625 329.585938 184.816406 332.78125 Z M 303.851562 321.292969 C 304.011719 325.984375 308.769531 329.277344 312.644531 328.050781 C 312.339844 323.5 307.835938 319.957031 303.851562 321.292969 Z M 137.46875 326.699219 C 134.222656 326.0625 131.800781 328.652344 130.03125 327.375 C 130.371094 324.210938 131.65625 320.496094 127.324219 320.613281 C 120.691406 330.316406 135.023438 336.574219 137.46875 326.699219 Z M 152.347656 320.613281 C 152.347656 321.292969 152.347656 321.96875 152.347656 322.644531 C 153.542969 325.035156 157.90625 327.167969 161.144531 325.347656 C 160.816406 321.457031 155.0625 319.921875 152.347656 320.613281 Z M 176.023438 321.96875 C 180.378906 322.265625 182.609375 320.4375 182.785156 316.558594 C 178.78125 316.613281 175.902344 317.792969 176.023438 321.96875 Z M 224.042969 321.292969 C 220.890625 321.511719 218.710938 320.761719 216.605469 319.941406 C 218.261719 329.597656 234.734375 322.523438 228.101562 314.53125 C 227.425781 314.53125 226.746094 314.53125 226.070312 314.53125 C 226.105469 317.496094 226.546875 320.863281 224.042969 321.292969 Z M 307.234375 306.421875 C 307.945312 310.894531 311.722656 312.300781 315.351562 313.855469 C 317.675781 309.253906 311.46875 304.46875 307.234375 306.421875 Z M 261.242188 284.117188 C 261.917969 284.117188 262.59375 284.117188 263.269531 284.117188 C 264.648438 283.464844 264.734375 281.523438 264.621094 279.386719 C 261.140625 278.511719 259.773438 282.15625 261.242188 284.117188 Z M 253.800781 284.117188 C 257.566406 284.046875 257.839844 280.496094 257.859375 276.683594 C 254.183594 276.59375 252.347656 281.253906 253.800781 284.117188 Z M 52.925781 271.949219 C 55.5625 273.492188 61.246094 274.863281 63.75 272.628906 C 64.28125 268.125 50.851562 267.867188 52.925781 271.949219 Z M 113.796875 267.894531 C 109.761719 267.875 105.824219 267.753906 106.359375 263.164062 C 106.910156 261.015625 110.824219 262.21875 110.417969 259.109375 C 95.910156 252.488281 103.027344 280.25 113.796875 267.894531 Z M 42.78125 251.671875 C 46.515625 253.179688 50.867188 249.984375 50.898438 245.589844 C 46.769531 243.6875 43.894531 248.363281 42.78125 251.671875 Z M 303.851562 244.914062 C 303.851562 245.589844 303.851562 246.265625 303.851562 246.941406 C 305.65625 248.25 310.65625 248.234375 309.261719 244.238281 C 307.316406 244.320312 304.832031 243.871094 303.851562 244.914062 Z M 38.722656 277.359375 C 37.207031 265.167969 25.648438 252.621094 21.136719 244.238281 C 19.292969 244.300781 19.777344 243.113281 18.433594 244.238281 C 17.90625 244.386719 17.644531 244.804688 17.757812 245.589844 C 21.269531 256.949219 32.183594 266.769531 33.988281 282.089844 C 33.8125 284.894531 30.097656 286.824219 31.960938 289.523438 C 39.125 291.679688 39.300781 282.003906 38.722656 277.359375 Z M 289.648438 240.859375 C 289.902344 244.644531 296.160156 244.984375 298.445312 242.886719 C 298.148438 238.390625 293.050781 240.992188 289.648438 240.859375 Z M 33.988281 242.210938 C 39.042969 240.277344 43.160156 237.40625 46.839844 234.097656 C 41.632812 230.304688 32.160156 236.765625 33.988281 242.210938 Z M 337.671875 217.878906 C 339.125 218.453125 340.0625 219.542969 339.699219 221.933594 C 338.003906 224.75 335.148438 226.398438 332.257812 228.015625 C 344.296875 233.355469 346.082031 211.453125 337.671875 217.878906 Z M 66.453125 219.230469 C 68.730469 221.886719 74.980469 220.628906 73.894531 215.851562 C 70.078125 215.644531 66.8125 215.984375 66.453125 219.230469 Z M 61.71875 211.121094 C 64.265625 212.257812 71.097656 212.582031 70.511719 208.417969 C 68.980469 205.933594 60.128906 206.160156 61.71875 211.121094 Z M 310.617188 197.601562 C 309.449219 200.796875 319 209.699219 321.4375 203.007812 C 319.480469 200.183594 313.40625 193.140625 310.617188 197.601562 Z M 313.996094 185.433594 C 317.3125 187.078125 318.988281 190.355469 323.464844 190.839844 C 326.585938 185.585938 316.488281 179.007812 313.996094 185.433594 Z M 329.550781 178.675781 C 330.628906 180.753906 335.082031 179.457031 335.640625 182.054688 C 336.039062 184.933594 335.15625 186.523438 334.964844 188.816406 C 347.777344 188.496094 334.886719 168.726562 329.550781 178.675781 Z M 63.070312 188.136719 C 62.738281 185.769531 62.0625 183.738281 62.394531 180.703125 C 63.742188 178.894531 68.257812 180.253906 68.484375 177.324219 C 62.042969 168.953125 50.839844 187.800781 63.070312 188.136719 Z M 217.277344 173.269531 C 217.738281 190.097656 189.664062 196.195312 177.375 186.109375 C 172.445312 182.070312 176.035156 176.261719 169.257812 174.621094 C 162.855469 182.21875 173.289062 188.050781 175.34375 193.546875 C 177.511719 199.324219 177.269531 210.183594 178.050781 219.230469 C 178.835938 228.316406 180.046875 237.695312 180.757812 245.589844 C 181.746094 256.636719 181.675781 291.253906 193.605469 290.199219 C 199.363281 289.691406 201.394531 277.097656 202.398438 271.273438 C 206.929688 245.035156 205.941406 219.125 210.515625 195.574219 C 216.585938 191.339844 230.398438 177.960938 219.308594 171.242188 C 217.832031 171.117188 217.15625 171.792969 217.277344 173.269531 Z M 320.757812 127.984375 C 320.757812 128.660156 320.757812 129.335938 320.757812 130.011719 C 325.746094 130.210938 327.207031 133.933594 327.527344 138.796875 C 334.375 135.847656 327.503906 123.703125 320.757812 127.984375 Z M 269.359375 126.632812 C 239.515625 126.367188 231.953125 155.570312 230.804688 184.082031 C 230.628906 188.464844 228.875 196.355469 234.863281 197.601562 C 242.460938 180.804688 242.34375 151.480469 255.832031 140.824219 C 268.277344 130.992188 287.40625 143.175781 292.355469 155.019531 C 298.046875 168.652344 298.40625 186.984375 301.824219 202.332031 C 313.703125 172.558594 301.160156 126.910156 269.359375 126.632812 Z M 110.417969 125.957031 C 107.53125 126.246094 102.902344 127.578125 99.59375 129.335938 C 81.523438 138.929688 74.578125 166.292969 78.628906 192.195312 C 79.203125 195.867188 78.023438 201.570312 82.007812 203.6875 C 83.246094 194.199219 86.613281 182.765625 88.097656 171.917969 C 88.980469 165.453125 88.464844 158.957031 90.800781 153.667969 C 94.78125 144.671875 107.167969 135.601562 117.179688 136.09375 C 130.878906 136.765625 131.203125 149.019531 137.46875 158.398438 C 138.820312 160.421875 140.546875 161.183594 141.527344 163.128906 C 146.816406 173.605469 145.414062 187.257812 150.996094 196.25 C 155.761719 161.503906 143.835938 122.59375 110.417969 125.957031 Z M 50.222656 127.304688 C 53.460938 127.390625 54.277344 125.054688 54.277344 121.898438 C 50.992188 121.601562 49.414062 125.664062 50.222656 127.304688 Z M 41.429688 126.632812 C 45.140625 127.839844 46.226562 120.050781 43.457031 119.195312 C 42.46875 121.359375 41.140625 123.1875 41.429688 126.632812 Z M 178.050781 117.84375 C 180.648438 119.777344 182.289062 116.085938 186.167969 117.171875 C 187.570312 119.144531 188.535156 121.5625 188.875 124.605469 C 197.96875 116.628906 179.664062 106.085938 178.050781 117.84375 Z M 88.097656 111.085938 C 85.863281 109.714844 82.648438 109.320312 82.007812 106.355469 C 82.621094 103.8125 85.703125 103.734375 85.390625 100.269531 C 73.1875 95.566406 77.746094 119.886719 88.097656 111.085938 Z M 112.445312 100.269531 C 114.855469 98.625 117.988281 97.699219 121.238281 96.890625 C 119.207031 92.613281 109.890625 96.09375 112.445312 100.269531 Z M 32.636719 94.867188 C 34.1875 92.976562 33.007812 89.488281 29.929688 90.132812 C 28.378906 92.023438 29.558594 95.511719 32.636719 94.867188 Z M 336.992188 95.539062 C 337.75 95.683594 338.046875 96.292969 338.347656 96.890625 C 343.054688 95.289062 347.320312 93.242188 347.8125 87.429688 C 343.273438 86.617188 338.0625 90.664062 336.992188 95.539062 Z M 288.296875 88.78125 C 292.152344 89.480469 291.800781 85.976562 295.0625 86.078125 C 297.003906 87.515625 295.785156 92.109375 297.089844 94.1875 C 302.472656 92.742188 300.015625 84.316406 297.089844 82.019531 C 291.359375 81.480469 288.164062 83.46875 288.296875 88.78125 Z M 35.339844 82.695312 C 37.125 80.835938 35.085938 78.980469 33.3125 78.644531 C 31.847656 80.1875 33.066406 82.859375 35.339844 82.695312 Z M 327.527344 82.695312 C 331.851562 83.945312 337.238281 80.796875 337.671875 75.9375 C 332.335938 76.242188 328.757812 78.300781 327.527344 82.695312 Z M 96.890625 71.207031 C 95.339844 69.824219 94.074219 68.164062 91.476562 67.828125 C 89.214844 70.71875 95.65625 75.671875 96.890625 71.207031 Z M 234.863281 70.53125 C 234.78125 68.585938 235.234375 66.105469 234.1875 65.125 C 233.511719 65.125 232.835938 65.125 232.15625 65.125 C 232.808594 67.175781 232.0625 70.628906 234.863281 70.53125 Z M 94.859375 65.125 C 95.054688 68.535156 97.367188 69.828125 100.949219 69.855469 C 101.960938 65.460938 97.398438 63.800781 94.859375 65.125 Z M 213.898438 65.125 C 216.253906 66.644531 220.011719 64.753906 219.308594 61.070312 C 217.03125 60.210938 214.1875 62.039062 213.898438 65.125 Z M 208.484375 61.070312 C 211.238281 60.214844 214.019531 59.386719 215.925781 57.6875 C 214.265625 53.792969 207.632812 56.402344 208.484375 61.070312 Z M 241.628906 52.28125 C 241.449219 56.210938 236.816406 55.828125 235.539062 59.714844 C 239.136719 63.332031 240.261719 69.417969 245.683594 71.207031 C 249.050781 65.382812 239.449219 64.769531 239.597656 59.714844 C 239.632812 58.550781 244.234375 56.363281 244.335938 52.957031 C 244.445312 49.097656 243.175781 46.925781 237.570312 45.523438 C 238.402344 49.40625 241.777344 48.988281 241.628906 52.28125 Z M 129.355469 54.984375 C 131.511719 54.664062 129.816406 50.492188 131.382812 49.578125 C 135.191406 48.703125 134.339844 52.484375 138.148438 51.605469 C 137.65625 41.109375 121.308594 47.546875 129.355469 54.984375 Z M 217.277344 45.523438 C 215.273438 55.273438 231.148438 57.882812 234.863281 51.605469 C 234.449219 44.511719 222.925781 41.050781 217.277344 45.523438 Z M 189.550781 43.496094 C 192.507812 43.300781 194.675781 42.3125 194.285156 38.765625 C 191.902344 37.398438 187.109375 40.1875 189.550781 43.496094 Z M 205.78125 48.902344 C 205.675781 43.390625 209.890625 42.191406 210.515625 37.414062 C 205.015625 34.191406 199.359375 46.566406 205.78125 48.902344 Z M 345.789062 286.820312 C 355.875 299.054688 342.082031 310.203125 332.933594 320.613281 C 327.855469 326.394531 317.875 339.0625 311.96875 340.21875 C 306.886719 341.210938 301.441406 336.949219 297.761719 338.191406 C 297.585938 333.730469 302.929688 334.789062 301.824219 329.402344 C 293.1875 331.789062 286.4375 337.773438 278.828125 342.246094 C 254.632812 356.46875 223.378906 369.039062 182.785156 367.253906 C 121.867188 364.574219 79.921875 334.132812 50.898438 300.339844 C 52.839844 298.675781 58.5625 300.789062 59.011719 297.632812 C 55.703125 291.859375 46.476562 292.125 38.722656 292.902344 C 36.671875 293.109375 33.722656 294.652344 31.960938 294.253906 C 26.621094 293.050781 19.03125 277.007812 16.402344 271.273438 C 12.917969 263.664062 5.589844 249.636719 7.609375 241.535156 C 9.847656 232.574219 22.296875 235.363281 25.195312 225.988281 C 22.492188 221.605469 17.925781 228.40625 15.726562 226.664062 C 6.960938 188.1875 13.832031 142.207031 27.902344 114.464844 C 29.3125 111.847656 26.894531 113.359375 27.226562 110.410156 C 28.46875 107.597656 31.199219 106.269531 31.285156 102.296875 C 27.289062 100.324219 25.5625 105.886719 23.84375 108.382812 C 13.484375 98.484375 20.328125 87.898438 28.578125 76.613281 C 32.503906 71.242188 38.269531 64.714844 42.78125 60.390625 C 48.734375 54.691406 58.296875 46.328125 67.804688 48.226562 C 68.300781 51.871094 61.222656 55.226562 58.335938 58.367188 C 50.289062 67.117188 42.230469 79.171875 38.046875 91.484375 C 43.5 89.09375 46.648438 82.03125 50.898438 76.613281 C 55.140625 71.207031 59.867188 66.125 63.75 61.070312 C 96.324219 33.457031 134.675781 6.316406 196.3125 9.023438 C 223.167969 10.203125 244.714844 17.484375 264.621094 26.597656 C 284.5 35.699219 300.234375 49.117188 318.730469 57.6875 C 314.996094 51.246094 305.398438 47.179688 303.175781 41.46875 C 321.113281 36.195312 336.199219 54.195312 345.105469 64.445312 C 356.851562 77.953125 370.429688 97.40625 357.960938 112.4375 C 354.5 108.898438 354.960938 115.152344 352.550781 116.492188 C 374.941406 161.863281 369.019531 226.101562 349.167969 267.21875 C 344.359375 277.179688 337.382812 282.597656 337.671875 296.28125 C 341.503906 294.257812 341.914062 288.8125 345.789062 286.820312 "/>
<path style=" stroke:none;fill-rule:evenodd;fill:rgb(6.269836%,5.879211%,5.099487%);fill-opacity:1;" d="M 210.515625 37.414062 C 209.890625 42.195312 205.675781 43.386719 205.78125 48.902344 C 199.359375 46.566406 205.011719 34.191406 210.515625 37.414062 "/>
<path style=" stroke:none;fill-rule:evenodd;fill:rgb(6.269836%,5.879211%,5.099487%);fill-opacity:1;" d="M 194.28125 38.765625 C 194.675781 42.3125 192.507812 43.300781 189.546875 43.496094 C 187.109375 40.1875 191.902344 37.402344 194.28125 38.765625 "/>
<path style=" stroke:none;fill-rule:evenodd;fill:rgb(6.269836%,5.879211%,5.099487%);fill-opacity:1;" d="M 221.335938 47.550781 C 221.425781 50.835938 228.863281 52.472656 230.128906 50.253906 C 228.140625 48.65625 223.667969 46.632812 221.335938 47.550781 Z M 234.867188 51.605469 C 231.148438 57.882812 215.277344 55.273438 217.277344 45.523438 C 222.925781 41.046875 234.449219 44.511719 234.867188 51.605469 "/>
<path style=" stroke:none;fill-rule:evenodd;fill:rgb(6.269836%,5.879211%,5.099487%);fill-opacity:1;" d="M 138.148438 51.609375 C 134.339844 52.484375 135.191406 48.703125 131.382812 49.578125 C 129.816406 50.492188 131.511719 54.664062 129.351562 54.984375 C 121.304688 47.546875 137.65625 41.113281 138.148438 51.609375 "/>
<path style=" stroke:none;fill-rule:evenodd;fill:rgb(6.269836%,5.879211%,5.099487%);fill-opacity:1;" d="M 237.570312 45.523438 C 243.175781 46.925781 244.445312 49.097656 244.335938 52.957031 C 244.234375 56.363281 239.632812 58.550781 239.597656 59.714844 C 239.449219 64.769531 249.050781 65.382812 245.683594 71.207031 C 240.261719 69.417969 239.136719 63.335938 235.539062 59.714844 C 236.816406 55.828125 241.449219 56.210938 241.628906 52.28125 C 241.777344 48.988281 238.40625 49.40625 237.570312 45.523438 "/>
<path style=" stroke:none;fill-rule:evenodd;fill:rgb(81.17981%,81.17981%,81.17981%);fill-opacity:1;" d="M 230.128906 50.253906 C 228.863281 52.472656 221.425781 50.835938 221.339844 47.550781 C 223.667969 46.632812 228.136719 48.65625 230.128906 50.253906 "/>
<path style=" stroke:none;fill-rule:evenodd;fill:rgb(6.269836%,5.879211%,5.099487%);fill-opacity:1;" d="M 215.925781 57.691406 C 214.019531 59.386719 211.238281 60.214844 208.484375 61.070312 C 207.632812 56.402344 214.265625 53.792969 215.925781 57.691406 "/>
<path style=" stroke:none;fill-rule:evenodd;fill:rgb(6.269836%,5.879211%,5.099487%);fill-opacity:1;" d="M 219.304688 61.070312 C 220.011719 64.753906 216.253906 66.644531 213.894531 65.125 C 214.1875 62.039062 217.03125 60.210938 219.304688 61.070312 "/>
<path style=" stroke:none;fill-rule:evenodd;fill:rgb(6.269836%,5.879211%,5.099487%);fill-opacity:1;" d="M 100.949219 69.859375 C 97.367188 69.832031 95.054688 68.535156 94.859375 65.125 C 97.398438 63.800781 101.960938 65.460938 100.949219 69.859375 "/>
<path style=" stroke:none;fill-rule:evenodd;fill:rgb(6.269836%,5.879211%,5.099487%);fill-opacity:1;" d="M 232.15625 65.125 C 232.835938 65.125 233.507812 65.125 234.1875 65.125 C 235.230469 66.109375 234.78125 68.585938 234.863281 70.53125 C 232.0625 70.628906 232.808594 67.179688 232.15625 65.125 "/>
<path style=" stroke:none;fill-rule:evenodd;fill:rgb(6.269836%,5.879211%,5.099487%);fill-opacity:1;" d="M 91.476562 67.828125 C 94.074219 68.164062 95.339844 69.828125 96.886719 71.207031 C 95.65625 75.671875 89.214844 70.71875 91.476562 67.828125 "/>
<path style=" stroke:none;fill-rule:evenodd;fill:rgb(6.269836%,5.879211%,5.099487%);fill-opacity:1;" d="M 337.667969 75.9375 C 337.238281 80.800781 331.847656 83.949219 327.523438 82.699219 C 328.757812 78.300781 332.335938 76.242188 337.667969 75.9375 "/>
<path style=" stroke:none;fill-rule:evenodd;fill:rgb(6.269836%,5.879211%,5.099487%);fill-opacity:1;" d="M 33.3125 78.644531 C 35.085938 78.980469 37.125 80.835938 35.339844 82.699219 C 33.066406 82.859375 31.847656 80.1875 33.3125 78.644531 "/>
<path style=" stroke:none;fill-rule:evenodd;fill:rgb(6.269836%,5.879211%,5.099487%);fill-opacity:1;" d="M 297.085938 82.023438 C 300.015625 84.320312 302.472656 92.742188 297.085938 94.1875 C 295.785156 92.109375 297 87.515625 295.058594 86.078125 C 291.796875 85.976562 292.148438 89.480469 288.292969 88.78125 C 288.164062 83.46875 291.359375 81.480469 297.085938 82.023438 "/>
<path style=" stroke:none;fill-rule:evenodd;fill:rgb(6.269836%,5.879211%,5.099487%);fill-opacity:1;" d="M 347.816406 87.429688 C 347.320312 93.242188 343.054688 95.289062 338.347656 96.890625 C 338.046875 96.289062 337.75 95.683594 336.992188 95.539062 C 338.066406 90.664062 343.273438 86.613281 347.816406 87.429688 "/>
<path style=" stroke:none;fill-rule:evenodd;fill:rgb(6.269836%,5.879211%,5.099487%);fill-opacity:1;" d="M 29.929688 90.132812 C 33.007812 89.488281 34.1875 92.976562 32.636719 94.867188 C 29.558594 95.511719 28.378906 92.023438 29.929688 90.132812 "/>
<path style=" stroke:none;fill-rule:evenodd;fill:rgb(6.269836%,5.879211%,5.099487%);fill-opacity:1;" d="M 121.238281 96.894531 C 117.988281 97.699219 114.855469 98.625 112.445312 100.273438 C 109.890625 96.09375 119.207031 92.617188 121.238281 96.894531 "/>
<path style=" stroke:none;fill-rule:evenodd;fill:rgb(6.269836%,5.879211%,5.099487%);fill-opacity:1;" d="M 85.390625 100.269531 C 85.703125 103.738281 82.621094 103.8125 82.007812 106.355469 C 82.648438 109.320312 85.863281 109.714844 88.097656 111.085938 C 77.746094 119.886719 73.1875 95.566406 85.390625 100.269531 "/>
<path style=" stroke:none;fill-rule:evenodd;fill:rgb(6.269836%,5.879211%,5.099487%);fill-opacity:1;" d="M 188.871094 124.605469 C 188.53125 121.5625 187.570312 119.148438 186.167969 117.171875 C 182.285156 116.085938 180.644531 119.78125 178.050781 117.84375 C 179.660156 106.089844 197.964844 116.628906 188.871094 124.605469 "/>
<path style=" stroke:none;fill-rule:evenodd;fill:rgb(6.269836%,5.879211%,5.099487%);fill-opacity:1;" d="M 43.457031 119.199219 C 46.226562 120.050781 45.140625 127.84375 41.429688 126.632812 C 41.140625 123.1875 42.46875 121.359375 43.457031 119.199219 "/>
<path style=" stroke:none;fill-rule:evenodd;fill:rgb(6.269836%,5.879211%,5.099487%);fill-opacity:1;" d="M 54.277344 121.898438 C 54.277344 125.054688 53.460938 127.390625 50.222656 127.308594 C 49.414062 125.664062 50.992188 121.601562 54.277344 121.898438 "/>
<path style=" stroke:none;fill-rule:evenodd;fill:rgb(6.269836%,5.879211%,5.099487%);fill-opacity:1;" d="M 150.996094 196.25 C 145.414062 187.257812 146.816406 173.609375 141.527344 163.132812 C 140.546875 161.1875 138.820312 160.421875 137.46875 158.398438 C 131.199219 149.023438 130.878906 136.769531 117.179688 136.09375 C 107.167969 135.605469 94.78125 144.671875 90.800781 153.667969 C 88.464844 158.957031 88.980469 165.457031 88.097656 171.917969 C 86.613281 182.765625 83.246094 194.199219 82.007812 203.6875 C 78.023438 201.570312 79.199219 195.867188 78.628906 192.195312 C 74.578125 166.292969 81.523438 138.929688 99.59375 129.335938 C 102.902344 127.578125 107.53125 126.246094 110.417969 125.957031 C 143.835938 122.59375 155.761719 161.507812 150.996094 196.25 "/>
<path style=" stroke:none;fill-rule:evenodd;fill:rgb(6.269836%,5.879211%,5.099487%);fill-opacity:1;" d="M 301.824219 202.332031 C 298.40625 186.984375 298.046875 168.652344 292.355469 155.019531 C 287.40625 143.175781 268.277344 130.992188 255.832031 140.824219 C 242.34375 151.480469 242.460938 180.804688 234.867188 197.601562 C 228.875 196.355469 230.628906 188.464844 230.804688 184.085938 C 231.953125 155.570312 239.515625 126.371094 269.355469 126.632812 C 301.160156 126.910156 313.699219 172.5625 301.824219 202.332031 "/>
<path style=" stroke:none;fill-rule:evenodd;fill:rgb(6.269836%,5.879211%,5.099487%);fill-opacity:1;" d="M 327.523438 138.796875 C 327.207031 133.933594 325.742188 130.210938 320.757812 130.011719 C 320.757812 129.335938 320.757812 128.660156 320.757812 127.984375 C 327.5 123.703125 334.375 135.851562 327.523438 138.796875 "/>
<path style=" stroke:none;fill-rule:evenodd;fill:rgb(6.269836%,5.879211%,5.099487%);fill-opacity:1;" d="M 188.195312 241.535156 C 187.589844 255.492188 188.140625 273.992188 193.605469 284.117188 C 196 271.097656 200.457031 253.238281 197.664062 239.507812 C 194.960938 238.652344 190.832031 240.285156 188.195312 241.535156 Z M 186.84375 236.128906 C 189.632812 234.277344 195.472656 232.316406 199.691406 234.101562 C 200.457031 221.570312 203.582031 207.800781 203.074219 196.25 C 196.710938 198.9375 186.972656 197.082031 181.433594 194.898438 C 184.386719 207.492188 183.429688 223.996094 186.84375 236.128906 Z M 219.304688 171.242188 C 230.398438 177.960938 216.585938 191.339844 210.515625 195.574219 C 205.941406 219.125 206.925781 245.035156 202.398438 271.273438 C 201.394531 277.101562 199.359375 289.691406 193.605469 290.199219 C 181.671875 291.253906 181.746094 256.636719 180.753906 245.589844 C 180.046875 237.695312 178.835938 228.316406 178.050781 219.230469 C 177.269531 210.183594 177.511719 199.328125 175.34375 193.546875 C 173.285156 188.054688 162.855469 182.222656 169.257812 174.621094 C 176.035156 176.261719 172.445312 182.070312 177.375 186.113281 C 189.664062 196.195312 217.738281 190.101562 217.277344 173.269531 C 217.15625 171.792969 217.828125 171.117188 219.304688 171.242188 "/>
<path style=" stroke:none;fill-rule:evenodd;fill:rgb(6.269836%,5.879211%,5.099487%);fill-opacity:1;" d="M 68.484375 177.324219 C 68.257812 180.253906 63.742188 178.894531 62.394531 180.703125 C 62.0625 183.738281 62.738281 185.769531 63.070312 188.136719 C 50.839844 187.800781 62.039062 168.953125 68.484375 177.324219 "/>
<path style=" stroke:none;fill-rule:evenodd;fill:rgb(6.269836%,5.879211%,5.099487%);fill-opacity:1;" d="M 334.964844 188.816406 C 335.152344 186.523438 336.039062 184.933594 335.640625 182.054688 C 335.085938 179.457031 330.628906 180.753906 329.554688 178.675781 C 334.890625 168.726562 347.777344 188.496094 334.964844 188.816406 "/>
<path style=" stroke:none;fill-rule:evenodd;fill:rgb(6.269836%,5.879211%,5.099487%);fill-opacity:1;" d="M 323.464844 190.84375 C 318.988281 190.359375 317.3125 187.078125 313.996094 185.433594 C 316.488281 179.007812 326.585938 185.585938 323.464844 190.84375 "/>
<path style=" stroke:none;fill-rule:evenodd;fill:rgb(85.099792%,28.239441%,34.899902%);fill-opacity:1;" d="M 181.433594 194.898438 C 186.972656 197.082031 196.710938 198.9375 203.074219 196.25 C 203.585938 207.800781 200.457031 221.570312 199.695312 234.101562 C 195.472656 232.316406 189.636719 234.277344 186.84375 236.128906 C 183.429688 223.996094 184.386719 207.492188 181.433594 194.898438 "/>
<path style=" stroke:none;fill-rule:evenodd;fill:rgb(6.269836%,5.879211%,5.099487%);fill-opacity:1;" d="M 321.4375 203.007812 C 319 209.699219 309.449219 200.796875 310.613281 197.601562 C 313.40625 193.140625 319.480469 200.183594 321.4375 203.007812 "/>
<path style=" stroke:none;fill-rule:evenodd;fill:rgb(6.269836%,5.879211%,5.099487%);fill-opacity:1;" d="M 70.511719 208.417969 C 71.09375 212.585938 64.265625 212.257812 61.71875 211.121094 C 60.128906 206.160156 68.980469 205.933594 70.511719 208.417969 "/>
<path style=" stroke:none;fill-rule:evenodd;fill:rgb(6.269836%,5.879211%,5.099487%);fill-opacity:1;" d="M 73.894531 215.851562 C 74.980469 220.628906 68.730469 221.886719 66.453125 219.230469 C 66.8125 215.984375 70.078125 215.644531 73.894531 215.851562 "/>
<path style=" stroke:none;fill-rule:evenodd;fill:rgb(6.269836%,5.879211%,5.099487%);fill-opacity:1;" d="M 332.257812 228.015625 C 335.148438 226.398438 338.003906 224.75 339.699219 221.933594 C 340.0625 219.542969 339.125 218.453125 337.667969 217.878906 C 346.082031 211.453125 344.296875 233.355469 332.257812 228.015625 "/>
<path style=" stroke:none;fill-rule:evenodd;fill:rgb(6.269836%,5.879211%,5.099487%);fill-opacity:1;" d="M 46.839844 234.101562 C 43.15625 237.40625 39.039062 240.277344 33.988281 242.210938 C 32.160156 236.765625 41.632812 230.304688 46.839844 234.101562 "/>
<path style=" stroke:none;fill-rule:evenodd;fill:rgb(96.469116%,50.588989%,58.039856%);fill-opacity:1;" d="M 197.664062 239.507812 C 200.457031 253.238281 196 271.097656 193.605469 284.117188 C 188.140625 273.992188 187.589844 255.492188 188.195312 241.535156 C 190.832031 240.28125 194.960938 238.652344 197.664062 239.507812 "/>
<path style=" stroke:none;fill-rule:evenodd;fill:rgb(6.269836%,5.879211%,5.099487%);fill-opacity:1;" d="M 298.441406 242.886719 C 296.160156 244.984375 289.902344 244.644531 289.648438 240.859375 C 293.054688 240.992188 298.148438 238.390625 298.441406 242.886719 "/>
<path style=" stroke:none;fill-rule:evenodd;fill:rgb(6.269836%,5.879211%,5.099487%);fill-opacity:1;" d="M 31.960938 289.523438 C 30.097656 286.824219 33.8125 284.894531 33.988281 282.089844 C 32.183594 266.769531 21.269531 256.949219 17.757812 245.589844 C 17.644531 244.804688 17.90625 244.386719 18.433594 244.238281 C 19.777344 243.113281 19.292969 244.300781 21.136719 244.238281 C 25.648438 252.621094 37.207031 265.167969 38.722656 277.359375 C 39.300781 282.003906 39.125 291.679688 31.960938 289.523438 "/>
<path style=" stroke:none;fill-rule:evenodd;fill:rgb(6.269836%,5.879211%,5.099487%);fill-opacity:1;" d="M 309.261719 244.238281 C 310.65625 248.234375 305.65625 248.25 303.851562 246.941406 C 303.851562 246.265625 303.851562 245.589844 303.851562 244.914062 C 304.835938 243.871094 307.3125 244.320312 309.261719 244.238281 "/>
<path style=" stroke:none;fill-rule:evenodd;fill:rgb(6.269836%,5.879211%,5.099487%);fill-opacity:1;" d="M 50.898438 245.589844 C 50.867188 249.984375 46.515625 253.179688 42.78125 251.671875 C 43.894531 248.363281 46.765625 243.6875 50.898438 245.589844 "/>
<path style=" stroke:none;fill-rule:evenodd;fill:rgb(6.269836%,5.879211%,5.099487%);fill-opacity:1;" d="M 110.417969 259.109375 C 110.824219 262.21875 106.910156 261.015625 106.359375 263.164062 C 105.824219 267.753906 109.761719 267.875 113.796875 267.894531 C 103.027344 280.25 95.910156 252.488281 110.417969 259.109375 "/>
<path style=" stroke:none;fill-rule:evenodd;fill:rgb(6.269836%,5.879211%,5.099487%);fill-opacity:1;" d="M 63.746094 272.628906 C 61.246094 274.863281 55.5625 273.492188 52.925781 271.949219 C 50.851562 267.867188 64.28125 268.125 63.746094 272.628906 "/>
<path style=" stroke:none;fill-rule:evenodd;fill:rgb(6.269836%,5.879211%,5.099487%);fill-opacity:1;" d="M 257.859375 276.683594 C 257.84375 280.496094 257.566406 284.046875 253.804688 284.117188 C 252.347656 281.253906 254.183594 276.59375 257.859375 276.683594 "/>
<path style=" stroke:none;fill-rule:evenodd;fill:rgb(6.269836%,5.879211%,5.099487%);fill-opacity:1;" d="M 264.625 279.386719 C 264.730469 281.523438 264.648438 283.464844 263.269531 284.117188 C 262.59375 284.117188 261.917969 284.117188 261.242188 284.117188 C 259.773438 282.15625 261.136719 278.511719 264.625 279.386719 "/>
<path style=" stroke:none;fill-rule:evenodd;fill:rgb(6.269836%,5.879211%,5.099487%);fill-opacity:1;" d="M 315.347656 313.859375 C 311.71875 312.300781 307.941406 310.894531 307.230469 306.421875 C 311.46875 304.46875 317.675781 309.253906 315.347656 313.859375 "/>
<path style=" stroke:none;fill-rule:evenodd;fill:rgb(6.269836%,5.879211%,5.099487%);fill-opacity:1;" d="M 226.070312 314.53125 C 226.746094 314.53125 227.425781 314.53125 228.101562 314.53125 C 234.734375 322.523438 218.257812 329.597656 216.605469 319.941406 C 218.707031 320.761719 220.886719 321.515625 224.042969 321.292969 C 226.546875 320.863281 226.105469 317.496094 226.070312 314.53125 "/>
<path style=" stroke:none;fill-rule:evenodd;fill:rgb(6.269836%,5.879211%,5.099487%);fill-opacity:1;" d="M 182.785156 316.5625 C 182.609375 320.4375 180.378906 322.265625 176.023438 321.96875 C 175.902344 317.792969 178.777344 316.613281 182.785156 316.5625 "/>
<path style=" stroke:none;fill-rule:evenodd;fill:rgb(6.269836%,5.879211%,5.099487%);fill-opacity:1;" d="M 161.140625 325.347656 C 157.90625 327.167969 153.542969 325.035156 152.347656 322.644531 C 152.347656 321.96875 152.347656 321.292969 152.347656 320.613281 C 155.0625 319.921875 160.816406 321.457031 161.140625 325.347656 "/>
<path style=" stroke:none;fill-rule:evenodd;fill:rgb(6.269836%,5.879211%,5.099487%);fill-opacity:1;" d="M 127.324219 320.613281 C 131.652344 320.496094 130.371094 324.210938 130.027344 327.375 C 131.800781 328.652344 134.222656 326.0625 137.46875 326.699219 C 135.023438 336.574219 120.691406 330.316406 127.324219 320.613281 "/>
<path style=" stroke:none;fill-rule:evenodd;fill:rgb(6.269836%,5.879211%,5.099487%);fill-opacity:1;" d="M 312.644531 328.050781 C 308.769531 329.277344 304.011719 325.984375 303.851562 321.292969 C 307.835938 319.957031 312.339844 323.5 312.644531 328.050781 "/>
<path style=" stroke:none;fill-rule:evenodd;fill:rgb(6.269836%,5.879211%,5.099487%);fill-opacity:1;" d="M 190.902344 327.375 C 191.355469 331.414062 187.949219 334.507812 184.8125 332.78125 C 185.015625 329.585938 188.707031 326.332031 190.902344 327.375 "/>
<path style=" stroke:none;fill-rule:evenodd;fill:rgb(6.269836%,5.879211%,5.099487%);fill-opacity:1;" d="M 171.964844 342.921875 C 174.875 343.125 177.421875 342.96875 177.375 340.21875 C 175.820312 339.515625 174.261719 338.820312 173.316406 337.511719 C 172.15625 338.605469 171.636719 340.339844 171.964844 342.921875 Z M 163.847656 330.078125 C 158.8125 335.230469 160.78125 347.425781 169.257812 346.976562 C 165.417969 343.402344 167.835938 331.1875 176.023438 333.457031 C 177.914062 333.984375 181.984375 337.570312 182.109375 340.21875 C 182.507812 348.921875 168.195312 349.40625 160.464844 346.976562 C 156.523438 343.273438 154.742188 329.589844 163.847656 330.078125 "/>
<path style=" stroke:none;fill-rule:evenodd;fill:rgb(6.269836%,5.879211%,5.099487%);fill-opacity:1;" d="M 247.039062 340.894531 C 246.597656 338.199219 251.03125 340.375 250.417969 337.511719 C 251.101562 335.480469 248.914062 336.316406 247.710938 336.164062 C 251.957031 317.386719 260.585938 351.050781 247.039062 340.894531 "/>
<path style=" stroke:none;fill-rule:evenodd;fill:rgb(6.269836%,5.879211%,5.099487%);fill-opacity:1;" d="M 188.195312 336.164062 C 189.097656 336.164062 189.996094 336.164062 190.902344 336.164062 C 193.484375 339.039062 192.917969 347.851562 187.519531 346.976562 C 186.554688 343.714844 189.980469 340.941406 188.195312 336.164062 "/>
<path style=" stroke:none;fill-rule:evenodd;fill:rgb(81.17981%,81.17981%,81.17981%);fill-opacity:1;" d="M 173.316406 337.511719 C 174.261719 338.820312 175.820312 339.515625 177.375 340.21875 C 177.421875 342.96875 174.875 343.125 171.964844 342.921875 C 171.636719 340.339844 172.15625 338.605469 173.316406 337.511719 "/>
<g clip-path="url(#clip1)" clip-rule="nonzero">
<path style=" stroke:none;fill-rule:evenodd;fill:rgb(6.269836%,5.879211%,5.099487%);fill-opacity:1;" d="M 337.671875 296.28125 C 337.382812 282.597656 344.359375 277.179688 349.167969 267.21875 C 369.019531 226.101562 374.941406 161.863281 352.550781 116.492188 C 354.960938 115.152344 354.5 108.898438 357.960938 112.4375 C 370.429688 97.40625 356.851562 77.953125 345.105469 64.445312 C 336.199219 54.195312 321.113281 36.195312 303.175781 41.46875 C 305.398438 47.179688 314.996094 51.246094 318.730469 57.6875 C 300.234375 49.117188 284.5 35.699219 264.621094 26.597656 C 244.714844 17.484375 223.167969 10.203125 196.3125 9.023438 C 134.675781 6.316406 96.324219 33.457031 63.75 61.070312 C 59.867188 66.125 55.140625 71.207031 50.898438 76.613281 C 46.648438 82.03125 43.5 89.09375 38.046875 91.484375 C 42.230469 79.171875 50.289062 67.117188 58.335938 58.367188 C 61.222656 55.226562 68.300781 51.871094 67.804688 48.226562 C 58.296875 46.328125 48.734375 54.691406 42.78125 60.390625 C 38.269531 64.714844 32.503906 71.242188 28.578125 76.613281 C 20.328125 87.898438 13.484375 98.484375 23.84375 108.382812 C 25.5625 105.886719 27.289062 100.324219 31.285156 102.296875 C 31.199219 106.269531 28.46875 107.597656 27.226562 110.410156 C 26.894531 113.359375 29.3125 111.847656 27.902344 114.464844 C 13.832031 142.207031 6.960938 188.1875 15.726562 226.664062 C 17.925781 228.40625 22.492188 221.605469 25.195312 225.988281 C 22.296875 235.363281 9.847656 232.574219 7.609375 241.535156 C 5.589844 249.636719 12.917969 263.664062 16.402344 271.273438 C 19.03125 277.007812 26.621094 293.050781 31.960938 294.253906 C 33.722656 294.652344 36.671875 293.109375 38.722656 292.902344 C 46.476562 292.125 55.703125 291.859375 59.011719 297.632812 C 58.5625 300.789062 52.839844 298.675781 50.898438 300.339844 C 79.921875 334.132812 121.867188 364.574219 182.785156 367.253906 C 223.378906 369.039062 254.632812 356.46875 278.828125 342.246094 C 286.4375 337.773438 293.1875 331.789062 301.824219 329.402344 C 302.929688 334.789062 297.585938 333.730469 297.761719 338.191406 C 301.441406 336.949219 306.886719 341.210938 311.96875 340.21875 C 317.875 339.0625 327.855469 326.394531 332.933594 320.613281 C 342.082031 310.203125 355.875 299.054688 345.789062 286.820312 C 341.914062 288.8125 341.503906 294.257812 337.671875 296.28125 Z M 362.019531 119.195312 C 383.390625 165.40625 376.238281 245.179688 350.519531 280.738281 C 351.96875 285.765625 357.046875 289.914062 357.285156 296.28125 C 357.703125 307.570312 346.210938 317.472656 338.347656 326.023438 C 331.730469 333.21875 321.65625 347.132812 312.644531 348.328125 C 304.75 349.375 296.960938 344.777344 291.675781 344.273438 C 257.835938 368.175781 202.964844 382.171875 148.96875 370.632812 C 101.351562 360.457031 66.480469 331.898438 41.429688 301.015625 C 22.53125 306.648438 16.875 288.449219 10.316406 274.65625 C 2.867188 258.988281 -7.433594 237.695312 8.289062 228.691406 C -0.0664062 191.320312 5.09375 143.671875 18.433594 115.816406 C 16.894531 108.824219 10.382812 103.222656 10.316406 95.539062 C 10.230469 85.246094 22.144531 72.203125 29.929688 63.773438 C 37.273438 55.820312 48.871094 42.570312 57.660156 40.792969 C 63.730469 39.5625 70.042969 41.957031 73.21875 42.144531 C 99.050781 22.421875 133.882812 4.183594 178.050781 1.589844 C 227.40625 -1.308594 267.277344 14.683594 295.734375 35.382812 C 315.003906 25.800781 329.214844 37.707031 341.726562 49.578125 C 349.4375 56.894531 357.242188 65.164062 361.339844 71.882812 C 370.742188 87.296875 375.886719 106.242188 362.019531 119.195312 "/>
</g>
</g>
</svg>
