<?xml version="1.0" encoding="UTF-8"?>
<svg xmlns="http://www.w3.org/2000/svg" xmlns:xlink="http://www.w3.org/1999/xlink" width="375pt" height="374.999991pt" viewBox="0 0 375 374.999991" version="1.2">
<defs>
<clipPath id="clip1">
  <path d="M 89 70 L 286 70 L 286 304 L 89 304 Z M 89 70 "/>
</clipPath>
<clipPath id="clip2">
  <path d="M 170.734375 28.375 L 332.886719 121.011719 L 204.160156 346.332031 L 42.007812 253.695312 Z M 170.734375 28.375 "/>
</clipPath>
<clipPath id="clip3">
  <path d="M 170.734375 28.375 L 332.886719 121.011719 L 204.160156 346.332031 L 42.007812 253.695312 Z M 170.734375 28.375 "/>
</clipPath>
<clipPath id="clip4">
  <path d="M 170.734375 28.375 L 332.683594 120.894531 L 204.054688 346.042969 L 42.105469 253.523438 Z M 170.734375 28.375 "/>
</clipPath>
<clipPath id="clip5">
  <path d="M 83 65 L 291 65 L 291 310 L 83 310 Z M 83 65 "/>
</clipPath>
<clipPath id="clip6">
  <path d="M 170.734375 28.375 L 332.886719 121.011719 L 204.160156 346.332031 L 42.007812 253.695312 Z M 170.734375 28.375 "/>
</clipPath>
<clipPath id="clip7">
  <path d="M 170.734375 28.375 L 332.886719 121.011719 L 204.160156 346.332031 L 42.007812 253.695312 Z M 170.734375 28.375 "/>
</clipPath>
<clipPath id="clip8">
  <path d="M 170.734375 28.375 L 332.683594 120.894531 L 204.054688 346.042969 L 42.105469 253.523438 Z M 170.734375 28.375 "/>
</clipPath>
<clipPath id="clip9">
  <path d="M 95 76 L 263 76 L 263 269 L 95 269 Z M 95 76 "/>
</clipPath>
<clipPath id="clip10">
  <path d="M 170.734375 28.375 L 332.886719 121.011719 L 204.160156 346.332031 L 42.007812 253.695312 Z M 170.734375 28.375 "/>
</clipPath>
<clipPath id="clip11">
  <path d="M 170.734375 28.375 L 332.886719 121.011719 L 204.160156 346.332031 L 42.007812 253.695312 Z M 170.734375 28.375 "/>
</clipPath>
<clipPath id="clip12">
  <path d="M 170.734375 28.375 L 332.683594 120.894531 L 204.054688 346.042969 L 42.105469 253.523438 Z M 170.734375 28.375 "/>
</clipPath>
<clipPath id="clip13">
  <path d="M 110 76 L 232 76 L 232 159 L 110 159 Z M 110 76 "/>
</clipPath>
<clipPath id="clip14">
  <path d="M 170.734375 28.375 L 332.886719 121.011719 L 204.160156 346.332031 L 42.007812 253.695312 Z M 170.734375 28.375 "/>
</clipPath>
<clipPath id="clip15">
  <path d="M 170.734375 28.375 L 332.886719 121.011719 L 204.160156 346.332031 L 42.007812 253.695312 Z M 170.734375 28.375 "/>
</clipPath>
<clipPath id="clip16">
  <path d="M 170.734375 28.375 L 332.683594 120.894531 L 204.054688 346.042969 L 42.105469 253.523438 Z M 170.734375 28.375 "/>
</clipPath>
<clipPath id="clip17">
  <path d="M 125 82 L 248 82 L 248 291 L 125 291 Z M 125 82 "/>
</clipPath>
<clipPath id="clip18">
  <path d="M 170.734375 28.375 L 332.886719 121.011719 L 204.160156 346.332031 L 42.007812 253.695312 Z M 170.734375 28.375 "/>
</clipPath>
<clipPath id="clip19">
  <path d="M 170.734375 28.375 L 332.886719 121.011719 L 204.160156 346.332031 L 42.007812 253.695312 Z M 170.734375 28.375 "/>
</clipPath>
<clipPath id="clip20">
  <path d="M 170.734375 28.375 L 332.683594 120.894531 L 204.054688 346.042969 L 42.105469 253.523438 Z M 170.734375 28.375 "/>
</clipPath>
</defs>
<g id="surface1">
<path style=" stroke:none;fill-rule:nonzero;fill:rgb(63.529968%,31.759644%,21.569824%);fill-opacity:1;" d="M 187.5 0 C 184.429688 0 181.363281 0.0742188 178.300781 0.226562 C 175.234375 0.375 172.175781 0.601562 169.121094 0.902344 C 166.066406 1.203125 163.023438 1.578125 159.988281 2.03125 C 156.953125 2.480469 153.929688 3.003906 150.921875 3.601562 C 147.910156 4.203125 144.917969 4.875 141.941406 5.617188 C 138.964844 6.363281 136.007812 7.183594 133.070312 8.074219 C 130.136719 8.964844 127.222656 9.925781 124.332031 10.960938 C 121.445312 11.996094 118.582031 13.097656 115.746094 14.273438 C 112.910156 15.445312 110.105469 16.691406 107.332031 18.003906 C 104.558594 19.3125 101.820312 20.691406 99.113281 22.140625 C 96.40625 23.585938 93.738281 25.097656 91.105469 26.675781 C 88.472656 28.253906 85.882812 29.894531 83.332031 31.597656 C 80.777344 33.304688 78.269531 35.070312 75.804688 36.898438 C 73.339844 38.726562 70.921875 40.613281 68.550781 42.558594 C 66.179688 44.507812 63.855469 46.511719 61.582031 48.570312 C 59.308594 50.632812 57.085938 52.746094 54.917969 54.917969 C 52.746094 57.085938 50.632812 59.308594 48.570312 61.582031 C 46.511719 63.855469 44.507812 66.179688 42.558594 68.550781 C 40.613281 70.921875 38.726562 73.339844 36.898438 75.804688 C 35.070312 78.269531 33.304688 80.777344 31.597656 83.332031 C 29.894531 85.882812 28.253906 88.472656 26.675781 91.105469 C 25.097656 93.738281 23.585938 96.40625 22.140625 99.113281 C 20.691406 101.820312 19.3125 104.558594 18.003906 107.332031 C 16.691406 110.105469 15.445312 112.910156 14.273438 115.746094 C 13.097656 118.582031 11.996094 121.445312 10.960938 124.332031 C 9.925781 127.222656 8.964844 130.136719 8.074219 133.070312 C 7.183594 136.007812 6.363281 138.964844 5.621094 141.941406 C 4.875 144.917969 4.203125 147.910156 3.601562 150.921875 C 3.003906 153.929688 2.480469 156.953125 2.03125 159.988281 C 1.578125 163.023438 1.203125 166.066406 0.902344 169.121094 C 0.601562 172.175781 0.375 175.234375 0.226562 178.300781 C 0.0742188 181.363281 0 184.429688 0 187.5 C 0 190.570312 0.0742188 193.636719 0.226562 196.699219 C 0.375 199.765625 0.601562 202.824219 0.902344 205.878906 C 1.203125 208.933594 1.578125 211.976562 2.03125 215.011719 C 2.480469 218.046875 3.003906 221.070312 3.601562 224.078125 C 4.203125 227.089844 4.875 230.082031 5.621094 233.058594 C 6.363281 236.035156 7.183594 238.992188 8.074219 241.929688 C 8.964844 244.863281 9.925781 247.777344 10.960938 250.667969 C 11.996094 253.554688 13.097656 256.417969 14.273438 259.253906 C 15.445312 262.089844 16.691406 264.890625 18.003906 267.667969 C 19.3125 270.441406 20.691406 273.179688 22.140625 275.886719 C 23.585938 278.59375 25.097656 281.261719 26.675781 283.894531 C 28.253906 286.527344 29.894531 289.117188 31.597656 291.667969 C 33.304688 294.222656 35.070312 296.730469 36.898438 299.195312 C 38.726562 301.660156 40.613281 304.078125 42.558594 306.449219 C 44.507812 308.820312 46.511719 311.144531 48.570312 313.417969 C 50.632812 315.691406 52.746094 317.914062 54.917969 320.082031 C 57.085938 322.253906 59.308594 324.367188 61.582031 326.429688 C 63.855469 328.488281 66.179688 330.492188 68.550781 332.4375 C 70.921875 334.386719 73.339844 336.273438 75.804688 338.101562 C 78.269531 339.929688 80.777344 341.695312 83.332031 343.402344 C 85.882812 345.105469 88.472656 346.746094 91.105469 348.324219 C 93.738281 349.902344 96.40625 351.414062 99.113281 352.859375 C 101.820312 354.308594 104.558594 355.6875 107.332031 356.996094 C 110.105469 358.308594 112.910156 359.554688 115.746094 360.726562 C 118.582031 361.902344 121.445312 363.003906 124.332031 364.039062 C 127.222656 365.074219 130.136719 366.035156 133.070312 366.925781 C 136.007812 367.816406 138.964844 368.636719 141.941406 369.378906 C 144.917969 370.125 147.910156 370.796875 150.921875 371.398438 C 153.929688 371.996094 156.953125 372.519531 159.988281 372.96875 C 163.023438 373.421875 166.066406 373.796875 169.121094 374.097656 C 172.175781 374.398438 175.234375 374.625 178.300781 374.773438 C 181.363281 374.925781 184.429688 375 187.5 375 C 190.570312 375 193.636719 374.925781 196.699219 374.773438 C 199.765625 374.625 202.824219 374.398438 205.878906 374.097656 C 208.933594 373.796875 211.976562 373.421875 215.011719 372.96875 C 218.046875 372.519531 221.070312 371.996094 224.078125 371.398438 C 227.089844 370.796875 230.082031 370.125 233.058594 369.378906 C 236.035156 368.636719 238.992188 367.816406 241.929688 366.925781 C 244.863281 366.035156 247.777344 365.074219 250.667969 364.039062 C 253.554688 363.003906 256.417969 361.902344 259.253906 360.726562 C 262.089844 359.554688 264.890625 358.308594 267.667969 356.996094 C 270.441406 355.6875 273.179688 354.308594 275.886719 352.859375 C 278.59375 351.414062 281.261719 349.902344 283.894531 348.324219 C 286.527344 346.746094 289.117188 345.105469 291.667969 343.402344 C 294.222656 341.695312 296.730469 339.929688 299.195312 338.101562 C 301.660156 336.273438 304.078125 334.386719 306.449219 332.4375 C 308.820312 330.492188 311.144531 328.488281 313.417969 326.429688 C 315.691406 324.367188 317.914062 322.253906 320.082031 320.082031 C 322.253906 317.914062 324.367188 315.691406 326.429688 313.417969 C 328.488281 311.144531 330.492188 308.820312 332.4375 306.449219 C 334.386719 304.078125 336.273438 301.660156 338.101562 299.195312 C 339.929688 296.730469 341.695312 294.222656 343.402344 291.667969 C 345.105469 289.117188 346.746094 286.527344 348.324219 283.894531 C 349.902344 281.261719 351.414062 278.59375 352.859375 275.886719 C 354.308594 273.179688 355.6875 270.441406 356.996094 267.667969 C 358.308594 264.890625 359.554688 262.089844 360.726562 259.253906 C 361.902344 256.417969 363.003906 253.554688 364.039062 250.667969 C 365.074219 247.777344 366.035156 244.863281 366.925781 241.929688 C 367.816406 238.992188 368.636719 236.035156 369.378906 233.058594 C 370.125 230.082031 370.796875 227.089844 371.398438 224.078125 C 371.996094 221.070312 372.519531 218.046875 372.96875 215.011719 C 373.421875 211.976562 373.796875 208.933594 374.097656 205.878906 C 374.398438 202.824219 374.625 199.765625 374.773438 196.699219 C 374.925781 193.636719 375 190.570312 375 187.5 C 375 184.429688 374.925781 181.363281 374.773438 178.300781 C 374.625 175.234375 374.398438 172.175781 374.097656 169.121094 C 373.796875 166.066406 373.421875 163.023438 372.96875 159.988281 C 372.519531 156.953125 371.996094 153.929688 371.398438 150.921875 C 370.796875 147.910156 370.125 144.917969 369.378906 141.941406 C 368.636719 138.964844 367.816406 136.007812 366.925781 133.070312 C 366.035156 130.136719 365.074219 127.222656 364.039062 124.332031 C 363.003906 121.445312 361.902344 118.582031 360.726562 115.746094 C 359.554688 112.910156 358.308594 110.105469 356.996094 107.332031 C 355.6875 104.558594 354.308594 101.820312 352.859375 99.113281 C 351.414062 96.40625 349.902344 93.738281 348.324219 91.105469 C 346.746094 88.472656 345.105469 85.882812 343.402344 83.332031 C 341.695312 80.777344 339.929688 78.269531 338.101562 75.804688 C 336.273438 73.339844 334.386719 70.921875 332.4375 68.550781 C 330.492188 66.179688 328.488281 63.855469 326.429688 61.582031 C 324.367188 59.308594 322.253906 57.085938 320.082031 54.917969 C 317.914062 52.746094 315.691406 50.632812 313.417969 48.570312 C 311.144531 46.511719 308.820312 44.507812 306.449219 42.558594 C 304.078125 40.613281 301.660156 38.726562 299.195312 36.898438 C 296.730469 35.070312 294.222656 33.304688 291.667969 31.597656 C 289.117188 29.894531 286.527344 28.253906 283.894531 26.675781 C 281.261719 25.097656 278.59375 23.585938 275.886719 22.140625 C 273.179688 20.691406 270.441406 19.3125 267.667969 18.003906 C 264.890625 16.691406 262.089844 15.445312 259.253906 14.273438 C 256.417969 13.097656 253.554688 11.996094 250.667969 10.960938 C 247.777344 9.925781 244.863281 8.964844 241.929688 8.074219 C 238.992188 7.183594 236.035156 6.363281 233.058594 5.617188 C 230.082031 4.875 227.089844 4.203125 224.078125 3.601562 C 221.070312 3.003906 218.046875 2.480469 215.011719 2.03125 C 211.976562 1.578125 208.933594 1.203125 205.878906 0.902344 C 202.824219 0.601562 199.765625 0.375 196.699219 0.226562 C 193.636719 0.0742188 190.570312 0 187.5 0 Z M 187.5 0 "/>
<path style=" stroke:none;fill-rule:nonzero;fill:rgb(87.059021%,65.489197%,56.469727%);fill-opacity:1;" d="M 187.351562 374.699219 C 137.332031 374.699219 90.230469 355.230469 54.886719 319.8125 C 19.46875 284.46875 0 237.371094 0 187.351562 C 0 137.332031 19.46875 90.230469 54.886719 54.886719 C 90.230469 19.46875 137.332031 0 187.351562 0 C 237.371094 0 284.46875 19.46875 319.8125 54.886719 C 355.230469 90.304688 374.699219 137.332031 374.699219 187.351562 C 374.699219 237.371094 355.230469 284.46875 319.8125 319.8125 C 284.46875 355.230469 237.371094 374.699219 187.351562 374.699219 Z M 187.351562 11.230469 C 140.324219 11.230469 96.070312 29.578125 62.824219 62.824219 C 29.578125 96.070312 11.230469 140.324219 11.230469 187.351562 C 11.230469 234.375 29.578125 278.628906 62.824219 311.875 C 96.070312 345.121094 140.324219 363.46875 187.351562 363.46875 C 234.375 363.46875 278.628906 345.121094 311.875 311.875 C 345.121094 278.628906 363.46875 234.375 363.46875 187.351562 C 363.46875 140.324219 345.121094 96.070312 311.875 62.824219 C 278.628906 29.578125 234.375 11.230469 187.351562 11.230469 Z M 187.351562 11.230469 "/>
<g clip-path="url(#clip1)" clip-rule="nonzero">
<g clip-path="url(#clip2)" clip-rule="nonzero">
<g clip-path="url(#clip3)" clip-rule="nonzero">
<g clip-path="url(#clip4)" clip-rule="nonzero">
<path style=" stroke:none;fill-rule:nonzero;fill:rgb(80.778503%,47.839355%,36.859131%);fill-opacity:1;" d="M 125.855469 294.925781 C 105.210938 283.132812 92.464844 260.671875 89.960938 231.683594 C 87.519531 203.453125 95.128906 172.238281 111.382812 143.785156 C 127.640625 115.332031 150.667969 92.921875 176.226562 80.6875 C 202.46875 68.121094 228.289062 67.699219 248.933594 79.492188 C 269.578125 91.285156 282.328125 113.746094 284.832031 142.734375 C 287.269531 170.960938 279.660156 202.179688 263.40625 230.632812 C 247.148438 259.085938 224.121094 281.496094 198.566406 293.730469 C 172.324219 306.296875 146.5 306.71875 125.855469 294.925781 Z M 125.855469 294.925781 "/>
</g>
</g>
</g>
</g>
<g clip-path="url(#clip5)" clip-rule="nonzero">
<g clip-path="url(#clip6)" clip-rule="nonzero">
<g clip-path="url(#clip7)" clip-rule="nonzero">
<g clip-path="url(#clip8)" clip-rule="nonzero">
<path style=" stroke:none;fill-rule:nonzero;fill:rgb(38.42926%,10.978699%,7.839966%);fill-opacity:1;" d="M 246.164062 84.332031 C 285.476562 106.792969 291.027344 171.054688 258.570312 227.871094 C 226.109375 284.683594 167.933594 312.542969 128.621094 290.082031 C 89.320312 267.628906 83.765625 203.359375 116.222656 146.546875 C 148.679688 89.730469 206.863281 61.878906 246.164062 84.332031 M 251.699219 74.648438 C 240.285156 68.128906 227.441406 65.035156 213.523438 65.445312 C 200.523438 65.832031 187.167969 69.269531 173.824219 75.65625 C 147.253906 88.378906 123.359375 111.589844 106.546875 141.019531 C 89.734375 170.449219 81.871094 202.820312 84.40625 232.167969 C 85.679688 246.910156 89.507812 260.164062 95.773438 271.554688 C 102.488281 283.753906 111.675781 293.246094 123.089844 299.765625 C 134.503906 306.289062 147.347656 309.386719 161.265625 308.972656 C 174.265625 308.585938 187.625 305.148438 200.96875 298.761719 C 227.539062 286.039062 251.429688 262.828125 268.242188 233.398438 C 285.058594 203.964844 292.921875 171.597656 290.386719 142.25 C 289.113281 127.507812 285.285156 114.257812 279.015625 102.863281 C 272.304688 90.664062 263.113281 81.171875 251.699219 74.648438 Z M 251.699219 74.648438 "/>
</g>
</g>
</g>
</g>
<g clip-path="url(#clip9)" clip-rule="nonzero">
<g clip-path="url(#clip10)" clip-rule="nonzero">
<g clip-path="url(#clip11)" clip-rule="nonzero">
<g clip-path="url(#clip12)" clip-rule="nonzero">
<path style=" stroke:none;fill-rule:nonzero;fill:rgb(87.059021%,65.489197%,56.469727%);fill-opacity:1;" d="M 232.527344 208.800781 C 261.113281 169.121094 269.007812 123.070312 255.84375 91.289062 C 252.886719 88.667969 249.664062 86.332031 246.164062 84.332031 C 206.863281 61.878906 148.679688 89.734375 116.222656 146.546875 C 93.261719 186.738281 89.324219 230.65625 102.902344 260.867188 C 139.980469 281.074219 196.34375 259.050781 232.527344 208.800781 Z M 232.527344 208.800781 "/>
</g>
</g>
</g>
</g>
<g clip-path="url(#clip13)" clip-rule="nonzero">
<g clip-path="url(#clip14)" clip-rule="nonzero">
<g clip-path="url(#clip15)" clip-rule="nonzero">
<g clip-path="url(#clip16)" clip-rule="nonzero">
<path style=" stroke:none;fill-rule:nonzero;fill:rgb(93.728638%,82.749939%,77.648926%);fill-opacity:1;" d="M 231.488281 78.449219 C 193.453125 68.886719 144.839844 96.453125 116.222656 146.546875 C 114.171875 150.132812 112.285156 153.75 110.539062 157.386719 C 145.683594 162.167969 189.21875 139.929688 219.050781 98.507812 C 223.765625 91.964844 227.902344 85.25 231.488281 78.449219 Z M 231.488281 78.449219 "/>
</g>
</g>
</g>
</g>
<g clip-path="url(#clip17)" clip-rule="nonzero">
<g clip-path="url(#clip18)" clip-rule="nonzero">
<g clip-path="url(#clip19)" clip-rule="nonzero">
<g clip-path="url(#clip20)" clip-rule="nonzero">
<path style=" stroke:none;fill-rule:nonzero;fill:rgb(38.42926%,10.978699%,7.839966%);fill-opacity:1;" d="M 127.671875 290.679688 C 127.671875 290.679688 127.371094 290.144531 126.988281 288.921875 C 126.613281 287.699219 126.160156 285.792969 125.917969 283.007812 C 125.660156 280.242188 125.632812 276.59375 126.136719 271.972656 C 126.648438 267.363281 127.765625 261.730469 129.765625 255.238281 C 131.769531 248.765625 134.707031 241.4375 138.566406 233.886719 C 142.394531 226.332031 147.136719 218.625 152.378906 211.355469 C 157.617188 204.097656 163.332031 197.148438 169.199219 191.019531 C 170.652344 189.375 172.125 188.011719 173.609375 186.496094 C 175.085938 184.992188 176.570312 183.515625 178.0625 182.179688 C 179.539062 180.808594 181.035156 179.402344 182.523438 178.058594 L 186.980469 174.246094 C 188.46875 172.957031 189.949219 171.773438 191.421875 170.628906 L 195.835938 167.191406 C 195.703125 167.308594 196.28125 166.839844 196.769531 166.417969 L 198.324219 165.078125 C 199.382812 164.144531 200.46875 163.121094 201.550781 162.085938 C 205.875 157.917969 210.125 153.367188 213.972656 148.613281 C 217.871094 143.886719 221.34375 138.933594 224.511719 133.957031 C 227.660156 128.96875 230.375 123.882812 232.722656 118.945312 C 235.101562 114 236.957031 109.234375 238.585938 104.875 C 239.375 102.707031 240.113281 100.628906 240.726562 98.707031 C 241.371094 96.777344 241.964844 94.964844 242.441406 93.347656 C 242.945312 91.695312 243.386719 90.21875 243.773438 88.941406 C 244.132812 87.644531 244.445312 86.539062 244.695312 85.648438 C 245.238281 83.8125 245.527344 82.832031 245.527344 82.832031 C 245.527344 82.832031 245.726562 83.472656 246.03125 84.75 C 246.363281 86.015625 246.773438 87.9375 247.019531 90.667969 C 247.214844 91.988281 247.238281 93.589844 247.28125 95.34375 C 247.390625 97.070312 247.226562 99.117188 247.121094 101.300781 C 246.769531 105.746094 246.070312 111.09375 244.417969 117.4375 C 242.777344 123.753906 240.304688 131.023438 236.765625 138.722656 C 233.238281 146.398438 228.75 154.492188 223.535156 162.117188 C 218.335938 169.804688 212.511719 177.042969 206.351562 183.570312 C 204.804688 185.207031 203.238281 186.78125 201.617188 188.335938 C 200.816406 189.121094 199.988281 189.890625 199.140625 190.667969 C 198.273438 191.429688 197.496094 192.144531 196.007812 193.339844 C 193.507812 195.445312 190.964844 197.328125 188.503906 199.5 C 183.503906 203.589844 178.6875 208.011719 174.011719 212.425781 C 169.332031 216.863281 164.953125 221.515625 160.859375 226.210938 C 152.683594 235.609375 145.898438 245.546875 140.851562 255.21875 C 135.753906 264.859375 132.464844 273.945312 130.464844 280.367188 C 128.476562 286.820312 127.671875 290.679688 127.671875 290.679688 Z M 127.671875 290.679688 "/>
</g>
</g>
</g>
</g>
</g>
</svg>
