<svg id="Capa_1" enable-background="new 0 0 512 512" height="512" viewBox="0 0 512 512" width="512" xmlns="http://www.w3.org/2000/svg"><g><g><g><path d="m494.5 256c0 24.81-40.044 42.987-47.313 65.374-7.534 23.203 13.916 61.396-.139 80.709-14.196 19.506-57.243 10.836-76.749 25.032-19.313 14.055-14.29 55.749-37.492 63.283-7.333 2.381-15.44 2.529-23.9-1.039-17.369-7.324-36.223-21.879-52.907-21.879-24.81 0-54.419 32.187-76.806 24.918-23.203-7.534-28.179-51.228-47.492-65.283-19.506-14.196-62.553-5.526-76.749-25.032-14.055-19.313 7.395-57.507-.139-80.709-7.27-22.387-47.314-40.564-47.314-65.374s40.044-42.987 47.313-65.374c7.534-23.203-13.916-61.396.139-80.709 14.196-19.506 57.243-10.836 76.749-25.032 19.313-14.055 24.29-57.749 47.492-65.283 22.387-7.269 51.997 24.919 76.807 24.919 16.684 0 35.538-14.555 52.906-21.879 8.46-3.567 16.567-3.42 23.9-1.039 23.203 7.534 26.179 50.228 45.492 64.283 19.506 14.196 54.553 4.526 68.749 24.032 14.055 19.313-7.394 57.507.139 80.709 7.27 22.386 47.314 40.563 47.314 65.373z" fill="#ffc270"/><path d="m415.093 256c0 93.388-65.705 168.093-159.093 168.093-5.055 0-10.059.778-15.001.344-86.361-7.592-154.092-80.105-154.092-168.437s67.731-160.845 154.092-168.437c4.943-.435 9.946.344 15.001.344 93.388 0 159.093 74.706 159.093 168.093z" fill="#ffe282"/><g><path d="m457.187 190.626c-7.534-23.202 13.916-61.396-.139-80.709-14.196-19.506-57.243-10.836-76.749-25.032-19.313-14.055-24.29-57.749-47.492-65.283-7.333-2.381-15.44-.528-23.9 3.039 18.167 12.467 23.899 49.513 41.392 62.244 19.506 14.196 62.553 5.526 76.749 25.032 14.055 19.313-7.394 57.506.139 80.709 7.269 22.387 47.313 40.564 47.313 65.374s-40.044 42.987-47.313 65.374c-7.534 23.203 13.916 61.396-.139 80.709-14.196 19.506-57.243 10.836-76.749 25.032-17.493 12.731-23.225 49.777-41.392 62.244 8.46 3.567 16.567 5.42 23.9 3.039 23.202-7.534 28.179-51.227 47.492-65.283 19.506-14.196 62.553-5.526 76.749-25.032 14.056-19.313-7.394-57.507.139-80.709 7.269-22.387 47.313-40.564 47.313-65.374s-40.044-42.987-47.313-65.374z" fill="#ffb85d"/></g><path d="m256 86.907c-5.056 0-10.057.235-15 .67 86.359 7.593 154.093 80.092 154.093 168.423s-67.734 160.83-154.093 168.423c4.943.435 9.944.67 15 .67 93.388 0 169.093-75.705 169.093-169.093s-75.705-169.093-169.093-169.093z" fill="#fdda78"/></g></g><g><g><path d="m256 432.593c-44.745 0-87.427-16.765-120.185-47.206-32.583-30.278-52.424-71.29-55.869-115.48-.322-4.13 2.765-7.738 6.895-8.06 4.134-.326 7.738 2.765 8.061 6.894 3.151 40.426 21.307 77.95 51.124 105.658 29.974 27.854 69.03 43.194 109.974 43.194 89.103 0 161.593-72.49 161.593-161.593s-72.49-161.593-161.593-161.593c-82.06 0-151.064 61.372-160.507 142.755-.478 4.114-4.193 7.057-8.315 6.585-4.114-.478-7.062-4.2-6.585-8.315 10.322-88.948 85.73-156.025 175.407-156.025 97.374 0 176.593 79.219 176.593 176.593s-79.219 176.593-176.593 176.593z"/></g><g><path d="m396.269 427.966c-3.392 0-6.467-2.317-7.289-5.761-.961-4.029 1.525-8.075 5.554-9.036 6.548-1.562 13.631-2.493 20.48-3.393 14.764-1.94 30.029-3.946 35.969-12.107 5.833-8.015 3.066-23.045.391-37.58-2.605-14.15-5.298-28.782-1.32-41.033 3.802-11.709 14.335-21.653 24.522-31.27 11.025-10.406 22.424-21.167 22.424-31.786s-11.399-21.38-22.424-31.787c-10.187-9.617-20.721-19.561-24.522-31.271-3.978-12.251-1.285-26.883 1.32-41.033 2.676-14.535 5.442-29.564-.391-37.579-5.939-8.161-21.206-10.166-35.969-12.106-14.181-1.863-28.844-3.789-39.128-11.274-10.144-7.382-16.429-20.63-22.508-33.443-6.436-13.564-13.09-27.589-22.888-30.771-9.153-2.97-22.427 4.216-35.261 11.169-12.811 6.939-26.057 14.115-39.229 14.115s-26.419-7.176-39.229-14.116c-12.835-6.952-26.108-14.142-35.262-11.169-7.803 2.533-13.588 11.619-19.874 24.482-1.819 3.722-6.311 5.264-10.031 3.445-3.722-1.819-5.264-6.31-3.445-10.031 6.418-13.134 14.461-27.533 28.719-32.162 15.274-4.961 31.424 3.786 47.039 12.246 11.166 6.05 22.713 12.305 32.083 12.305s20.917-6.255 32.084-12.305c15.615-8.459 31.762-17.205 47.038-12.247 15.946 5.178 24.01 22.172 31.808 38.608 5.274 11.116 10.728 22.61 17.783 27.745 7.198 5.238 19.936 6.912 32.255 8.53 17.903 2.352 36.415 4.784 46.143 18.152 9.624 13.223 6.264 31.472 3.015 49.121-2.267 12.313-4.611 25.046-1.806 33.685 2.619 8.066 11.736 16.672 20.553 24.996 13.337 12.59 27.127 25.609 27.127 42.695s-13.79 30.105-27.127 42.695c-8.817 8.323-17.934 16.93-20.553 24.995-2.805 8.639-.461 21.372 1.806 33.685 3.249 17.649 6.608 35.899-3.015 49.122-9.728 13.368-28.24 15.8-46.142 18.152-6.768.889-13.161 1.729-18.953 3.111-.585.139-1.171.206-1.747.206z"/></g><g><path d="m186.216 500.975c-3.141 0-6.257-.443-9.338-1.443-15.946-5.178-24.01-22.172-31.808-38.608-5.274-11.116-10.727-22.61-17.783-27.745-7.198-5.238-19.936-6.912-32.255-8.53-17.903-2.352-36.415-4.784-46.144-18.152-9.624-13.223-6.264-31.472-3.015-49.121 2.267-12.314 4.611-25.046 1.806-33.685-2.619-8.065-11.736-16.672-20.553-24.996-13.336-12.591-27.126-25.609-27.126-42.695s13.79-30.105 27.127-42.694c8.817-8.323 17.934-16.93 20.553-24.995 2.805-8.639.461-21.372-1.806-33.685-3.249-17.649-6.608-35.899 3.015-49.122 9.729-13.368 28.241-15.8 46.144-18.152 12.319-1.618 25.058-3.292 32.256-8.53 1.749-1.273 3.442-2.952 5.175-5.133 2.576-3.243 7.294-3.784 10.538-1.206 3.243 2.577 3.783 7.294 1.206 10.537-2.587 3.256-5.234 5.85-8.093 7.93-10.285 7.485-24.948 9.412-39.129 11.275-14.764 1.94-30.03 3.945-35.969 12.106-5.833 8.015-3.066 23.045-.391 37.58 2.605 14.15 5.298 28.782 1.32 41.033-3.802 11.71-14.335 21.654-24.522 31.271-11.025 10.405-22.424 21.167-22.424 31.785 0 10.619 11.399 21.38 22.424 31.787 10.187 9.617 20.721 19.561 24.522 31.271 3.978 12.251 1.285 26.883-1.32 41.033-2.676 14.535-5.442 29.564.391 37.579 5.939 8.161 21.206 10.167 35.969 12.106 14.181 1.863 28.844 3.79 39.129 11.275 10.143 7.382 16.429 20.63 22.508 33.443 6.436 13.564 13.09 27.59 22.888 30.771 9.156 2.975 22.427-4.216 35.261-11.169 12.81-6.94 26.057-14.116 39.229-14.116s26.418 7.176 39.229 14.116c12.834 6.952 26.106 14.14 35.261 11.169 9.797-3.181 16.452-17.207 22.887-30.771 2.948-6.212 5.996-12.636 9.468-18.341 2.154-3.538 6.768-4.661 10.306-2.507 3.539 2.153 4.661 6.768 2.507 10.306-3.068 5.039-5.818 10.835-8.729 16.972-7.798 16.435-15.861 33.43-31.807 38.607-15.276 4.96-31.424-3.787-47.039-12.246-11.167-6.05-22.714-12.305-32.084-12.305s-20.917 6.256-32.083 12.305c-12.466 6.753-25.271 13.689-37.701 13.69z"/></g></g></g></svg>