<?xml version="1.0" encoding="UTF-8"?>
<svg xmlns="http://www.w3.org/2000/svg" xmlns:xlink="http://www.w3.org/1999/xlink" width="375pt" height="374.999991pt" viewBox="0 0 375 374.999991" version="1.2">
<defs>
<clipPath id="clip1">
  <path d="M 0 9 L 375 9 L 375 365.90625 L 0 365.90625 Z M 0 9 "/>
</clipPath>
</defs>
<g id="surface1">
<path style=" stroke:none;fill-rule:nonzero;fill:rgb(100%,79.998779%,0%);fill-opacity:1;" d="M 187.507812 63.828125 C 119.207031 63.828125 63.855469 119.15625 63.855469 187.402344 C 63.855469 255.648438 119.207031 310.980469 187.507812 310.980469 C 255.78125 310.980469 311.148438 255.648438 311.148438 187.402344 C 311.148438 119.15625 255.78125 63.828125 187.507812 63.828125 "/>
<g clip-path="url(#clip1)" clip-rule="nonzero">
<path style=" stroke:none;fill-rule:nonzero;fill:rgb(100%,79.998779%,0%);fill-opacity:1;" d="M 187.507812 320.246094 C 114.089844 320.246094 54.589844 260.769531 54.589844 187.402344 C 54.589844 114.042969 114.089844 54.5625 187.507812 54.5625 C 260.90625 54.5625 320.410156 114.042969 320.410156 187.402344 C 320.410156 260.769531 260.90625 320.246094 187.507812 320.246094 Z M 374.988281 187.402344 L 335.625 139.296875 L 339.191406 77.246094 L 279.011719 61.484375 L 245.457031 9.144531 L 187.507812 31.789062 L 129.550781 9.144531 L 95.988281 61.484375 L 35.820312 77.242188 L 39.382812 139.296875 L 0.0117188 187.402344 L 39.382812 235.507812 L 35.8125 297.5625 L 95.984375 313.320312 L 129.550781 365.667969 L 187.507812 343.023438 L 245.457031 365.667969 L 279.011719 313.320312 L 339.191406 297.566406 L 335.625 235.515625 L 374.988281 187.402344 "/>
</g>
<path style=" stroke:none;fill-rule:nonzero;fill:rgb(0.389099%,9.799194%,16.079712%);fill-opacity:1;" d="M 170.363281 172.203125 C 178.949219 184.507812 195.847656 187.535156 208.121094 178.972656 C 208.121094 178.972656 205.0625 207.777344 184.015625 204.976562 C 184.015625 204.976562 166.289062 203.125 170.363281 172.203125 "/>
<path style=" stroke:none;fill-rule:nonzero;fill:rgb(0.389099%,9.799194%,16.079712%);fill-opacity:1;" d="M 116.863281 143.851562 C 119.546875 139.398438 123.46875 135.632812 128.148438 132.949219 C 132.816406 130.269531 138.328125 128.746094 143.890625 128.867188 C 149.453125 128.96875 154.96875 130.78125 159.453125 133.851562 C 163.945312 136.917969 167.460938 141.128906 169.570312 145.886719 C 165.484375 142.675781 161.441406 139.878906 157.117188 137.972656 C 152.816406 136.042969 148.3125 134.992188 143.761719 134.886719 C 139.203125 134.789062 134.617188 135.625 130.136719 137.222656 C 125.632812 138.804688 121.308594 141.160156 116.863281 143.851562 "/>
<path style=" stroke:none;fill-rule:nonzero;fill:rgb(0.389099%,9.799194%,16.079712%);fill-opacity:1;" d="M 268.164062 170.804688 C 264.925781 166.746094 261.679688 163.039062 257.996094 160 C 254.351562 156.953125 250.332031 154.582031 246.027344 153.105469 C 241.710938 151.632812 237.125 151.058594 232.425781 151.382812 C 227.710938 151.6875 222.949219 152.914062 218 154.515625 C 221.617188 150.785156 226.378906 148.042969 231.65625 146.710938 C 236.921875 145.378906 242.726562 145.585938 247.980469 147.414062 C 253.25 149.214844 257.894531 152.550781 261.355469 156.679688 C 264.808594 160.8125 267.1875 165.695312 268.164062 170.804688 "/>
<path style=" stroke:none;fill-rule:nonzero;fill:rgb(100%,34.118652%,34.118652%);fill-opacity:1;" d="M 261.480469 184.339844 C 260.308594 190.914062 249.871094 194.550781 238.160156 192.464844 C 226.453125 190.378906 217.917969 183.359375 219.09375 176.789062 C 220.261719 170.21875 230.699219 166.578125 242.402344 168.664062 C 254.113281 170.75 262.652344 177.769531 261.480469 184.339844 "/>
<path style=" stroke:none;fill-rule:nonzero;fill:rgb(100%,34.118652%,34.118652%);fill-opacity:1;" d="M 163.566406 166.894531 C 162.390625 173.46875 151.949219 177.109375 140.246094 175.023438 C 128.535156 172.9375 119.996094 165.917969 121.171875 159.347656 C 122.34375 152.773438 132.777344 149.136719 144.492188 151.222656 C 156.195312 153.304688 164.734375 160.320312 163.566406 166.894531 "/>
</g>
</svg>
