<svg id="Capa_1" enable-background="new 0 0 512 512" height="512" viewBox="0 0 512 512" width="512" xmlns="http://www.w3.org/2000/svg"><g><g><g><g><circle cx="256" cy="256" fill="#bed9fd" r="248.5"/></g></g></g><g><g><g><path d="m256 7.5c-5.038 0-10.036.168-15 .463 130.256 7.758 233.5 115.832 233.5 248.037s-103.244 240.279-233.5 248.037c4.964.295 9.962.463 15 .463 137.243 0 248.5-111.257 248.5-248.5s-111.257-248.5-248.5-248.5z" fill="#9ec8fc"/></g></g></g><g><g><g><path d="m497.182 316.034h-196.434c-10.24 0-18.542 8.302-18.542 18.542v45.97c0 11.874 9.625 21.499 21.499 21.499 16.361 0 29.624 13.263 29.624 29.624v60.545c80.715-26.408 143.22-93.021 163.853-176.18z" fill="#b1f8d3"/></g></g></g><g><g><g><path d="m311.976 216.124v20.091c0 12.576 10.195 22.77 22.77 22.77h169.717c.012-.995.038-1.987.038-2.985 0-21.64-2.772-42.632-7.97-62.646h-161.785c-12.576 0-22.77 10.194-22.77 22.77z" fill="#b1f8d3"/></g></g></g><g><g><g><path d="m319.876 15.803v69.523c0 37.437 30.349 67.786 67.786 67.786h94.596c-30.53-67.029-89.967-118.101-162.382-137.309z" fill="#b1f8d3"/></g></g></g><g><g><g><path d="m11.18 213.229h14.714c15.772 0 28.559 12.786 28.559 28.558v1.611c0 15.772 12.786 28.559 28.559 28.559h38.622c16.97 0 30.727-13.757 30.727-30.728v-15.469c0-6.921 5.61-12.531 12.531-12.531s12.531-5.61 12.531-12.531v-28.381c0-14.298 11.59-25.888 25.888-25.888h19.55c14.944 0 27.059-12.115 27.059-27.06v-17.584c0-19.925-16.152-36.077-36.077-36.077h-117.643c-43.871 36.881-74.806 88.644-85.02 147.521z" fill="#b1f8d3"/></g></g></g><g><g><g><ellipse cx="120.81" cy="451.478" fill="#77d1b3" rx="48.984" ry="48.984" transform="matrix(.707 -.707 .707 .707 -283.859 217.661)"/></g></g></g><g><g><g><path d="m467.182 316.034c-17.996 72.532-67.848 132.472-133.852 164.131v12.048c80.715-26.408 143.22-93.021 163.852-176.179z" fill="#88f2a9"/></g></g></g><g><g><g><path d="m496.53 193.354h-30c5.198 20.014 7.97 41.005 7.97 62.646 0 .999-.026 1.99-.038 2.985h30c.012-.996.038-1.987.038-2.985 0-21.641-2.772-42.632-7.97-62.646z" fill="#88f2a9"/></g></g></g><g><g><g><path d="m319.876 15.803v10.083c58.697 23.969 106.186 69.713 132.382 127.225h30c-30.53-67.028-89.967-118.1-162.382-137.308z" fill="#88f2a9"/></g></g></g><g><g><g><path d="m213.841 65.709h-30c19.925 0 36.077 16.152 36.077 36.077v17.584c0 14.945-12.115 27.06-27.059 27.06h-19.55c-14.298 0-25.888 11.59-25.888 25.888v28.381c0 6.92-5.61 12.531-12.531 12.531s-12.531 5.61-12.531 12.53v15.469c0 16.971-13.757 30.728-30.727 30.728h30c16.97 0 30.727-13.757 30.727-30.728v-15.469c0-6.92 5.61-12.53 12.531-12.53s12.531-5.61 12.531-12.531v-28.381c0-14.298 11.59-25.888 25.888-25.888h19.55c14.944 0 27.059-12.115 27.059-27.06v-17.584c0-19.925-16.152-36.077-36.077-36.077z" fill="#88f2a9"/></g></g></g><g><g><g><path d="m120.81 402.494c-5.234 0-10.272.829-15 2.349 19.714 6.336 33.984 24.815 33.984 46.635 0 21.819-14.27 40.298-33.984 46.635 4.728 1.52 9.766 2.349 15 2.349 27.053 0 48.984-21.931 48.984-48.984s-21.93-48.984-48.984-48.984z" fill="#67b59f"/></g></g></g><path d="m437.019 74.98c-48.352-48.351-112.639-74.98-181.019-74.98-84.079 0-162.856 41.346-210.729 110.601-2.355 3.407-1.502 8.079 1.905 10.434 3.407 2.356 8.079 1.502 10.434-1.905 11.973-17.32 25.998-32.786 41.624-46.161.593.151 1.211.24 1.852.24h112.754c15.757 0 28.577 12.82 28.577 28.577v17.584c0 10.785-8.774 19.56-19.559 19.56h-19.55c-18.41 0-33.388 14.978-33.388 33.388v28.381c0 2.774-2.257 5.031-5.031 5.031-11.045 0-20.031 8.985-20.031 20.03v15.469c0 12.808-10.42 23.228-23.228 23.228h-38.62c-11.612 0-21.059-9.447-21.059-21.059v-1.611c0-19.882-16.176-36.058-36.059-36.058h-5.594c4.524-21.28 11.896-41.907 21.938-61.134 1.917-3.672.496-8.203-3.176-10.12-3.672-1.919-8.203-.496-10.12 3.176-18.932 36.253-28.94 77.178-28.94 118.349 0 64.954 24.312 126.752 68.479 174.254-2.669 6.557-4.153 13.719-4.153 21.224 0 31.146 25.339 56.484 56.484 56.484 14.744 0 28.182-5.685 38.251-14.97 30.779 12.605 63.382 19.008 96.939 19.008 68.38 0 132.667-26.629 181.019-74.98 48.353-48.353 74.981-112.64 74.981-181.02s-26.628-132.667-74.981-181.02zm33.327 70.631h-82.685c-33.242 0-60.286-27.044-60.286-60.286v-59.623c36.991 11.415 70.885 31.733 99.037 59.885 17.91 17.91 32.638 38.149 43.934 60.024zm-349.535 347.351c-22.875 0-41.484-18.609-41.484-41.484s18.61-41.484 41.484-41.484 41.484 18.61 41.484 41.484-18.61 41.484-41.484 41.484zm48.235-12.124c5.23-8.561 8.248-18.614 8.248-29.36 0-31.146-25.338-56.484-56.484-56.484-18.021 0-34.085 8.493-44.435 21.676-39.623-44.251-61.375-101.051-61.375-160.67 0-11.819.887-23.614 2.609-35.271h8.284c11.612 0 21.059 9.447 21.059 21.058v1.611c0 19.883 16.176 36.059 36.059 36.059h38.622c21.079 0 38.228-17.149 38.228-38.228v-15.469c0-2.774 2.257-5.03 5.031-5.03 11.045 0 20.031-8.986 20.031-20.031v-28.381c0-10.139 8.249-18.388 18.388-18.388h19.55c19.056 0 34.559-15.503 34.559-34.56v-17.584c0-24.028-19.549-43.577-43.577-43.577h-95.494c39.881-27.748 87.774-43.209 137.651-43.209 19.237 0 38.125 2.256 56.376 6.61v63.715c0 41.513 33.773 75.286 75.286 75.286h89.78c3.547 8.229 6.643 16.65 9.244 25.243h-151.94c-16.691 0-30.27 13.579-30.27 30.27v20.091c0 16.691 13.579 30.27 30.27 30.27h71.141c4.142 0 7.5-3.358 7.5-7.5s-3.358-7.5-7.5-7.5h-71.141c-8.42 0-15.27-6.85-15.27-15.27v-20.091c0-8.42 6.85-15.27 15.27-15.27h155.936c3.83 16.437 5.949 33.384 6.263 50.631h-61.059c-4.142 0-7.5 3.358-7.5 7.5s3.358 7.5 7.5 7.5h60.877c-.607 14.28-2.446 28.338-5.479 42.049h-190.536c-14.359 0-26.042 11.682-26.042 26.042v45.97c0 15.99 13.009 28.999 28.999 28.999 12.199 0 22.124 9.925 22.124 22.124v55.108c-22.355 6.733-45.823 10.223-69.829 10.223-30.037 0-59.258-5.436-86.954-16.162zm257.367-54.425c-24.702 24.702-53.827 43.366-85.583 55.284v-50.028c0-20.47-16.654-37.124-37.124-37.124-7.719 0-13.999-6.28-13.999-13.999v-45.97c0-6.088 4.953-11.042 11.042-11.042h186.694c-11.172 38.486-31.907 73.755-61.03 102.879z"/></g></svg>