<svg id="Layer_1" enable-background="new 0 0 480 480" height="512" viewBox="0 0 480 480" width="512" xmlns="http://www.w3.org/2000/svg"><path d="m448 145.5h-22.95c-16.31-39.67-44.99-72.93-81.26-95-105.657-64.029-242.377-18.009-288.84 95h-22.95c-13.25 0-24 10.75-24 24v74c0 13.25 10.75 24 24 24h13.32c11.286 47.976 39.853 89.278 78.767 117h-43.887c-8.4 0-15.2 6.8-15.2 15.2v43.6c0 8.4 6.8 15.2 15.2 15.2h319.6c8.4 0 15.2-6.8 15.2-15.2v-43.6c0-8.4-6.8-15.2-15.2-15.2h-43.887c38.914-27.722 67.481-69.024 78.767-117h13.32c13.25 0 24-10.75 24-24v-74c0-13.25-10.75-24-24-24z" fill="#cbe3fa"/><path d="m472 169.5v74c0 13.25-10.75 24-24 24h-13.32c9.387-39.84 6.474-82.858-9.63-122h22.95c13.25 0 24 10.75 24 24z" fill="#585966"/><path d="m32 145.5h22.95c-16.078 39.078-19.032 82.096-9.63 122h-13.32c-13.25 0-24-10.75-24-24v-74c0-13.25 10.75-24 24-24z" fill="#585966"/><path d="m415 399.7v43.6c0 8.4-6.8 15.2-15.2 15.2h-319.6c-8.4 0-15.2-6.8-15.2-15.2v-43.6c0-8.4 6.8-15.2 15.2-15.2h319.6c8.4 0 15.2 6.8 15.2 15.2z" fill="#cbe3fa"/><path d="m240 79.5c85.26 0 154.37 58.17 154.37 143.42 0 85.26-69.11 115.58-154.37 115.58s-154.37-30.32-154.37-115.58c0-85.25 69.11-143.42 154.37-143.42z" fill="#eef7ff"/><path d="m222.271 22.262c27.917-2.464 35.593 37.361 8.684 45.193-78.491 22.845-137.208 92.225-143.435 177.777-2.007 27.579-42.481 28.672-45.946 1.238-14.215-112.53 68.081-214.27 180.697-224.208z" fill="#eef7ff"/><path d="m294.828 88.09c17.972 5.914 13.031 32.54-5.867 31.625-88.607-4.287-163.691 54.528-163.329 143.841.071 17.598-24.081 22.894-31.049 6.734-5.796-13.441-8.952-29.152-8.952-47.371-.001-85.249 69.109-143.419 154.369-143.419 19.31 0 37.791 2.984 54.828 8.59z" fill="#fff"/><path d="m54.95 145.5c-2.57 6.24-4.83 12.63-6.76 19.17-11.93 1.39-21.202 11.53-21.19 23.83.026 27.143.021 44.397-.005 55.547-.029 12.171-18.342 12.853-18.964.698-.033-.655-.031-75.348-.031-75.245 0-13.255 10.745-24 24-24z" fill="#6e6f80"/><path d="m400.727 384.528c12.732.766 11.856 19.972-.899 19.972h-289.628c-8.395 0-15.2 6.805-15.2 15.2v24c0 8.174-6.626 14.8-14.8 14.8-8.395 0-15.2-6.805-15.2-15.2v-43.6c0-8.395 6.805-15.2 15.2-15.2 0 0 320.22.009 320.527.028z" fill="#eef7ff"/><g><path d="m402.371 222.923c0-54.372-27.235-101.489-73.82-128.48 2.023-4.671 3.946-9.399 5.726-14.135 1.554-4.136-.539-8.749-4.674-10.303-4.137-1.555-8.749.537-10.303 4.674-1.563 4.16-3.246 8.313-5.009 12.424-37.846-17.172-81.95-19.688-120.183-9.944-4.281 1.091-6.868 5.445-5.777 9.728 1.091 4.281 5.447 6.87 9.728 5.776 13.442-3.426 27.554-5.163 41.941-5.163 83.445 0 146.371 58.219 146.371 135.423 0 88.913-79.597 107.577-146.371 107.577s-146.371-18.664-146.371-107.577c0-51.298 26.171-94.273 71.801-117.909 1.877-.972 3.365-2.71 3.993-4.86 1.454-4.961-1.561-5.525-10.101-29.222-1.499-4.156-6.082-6.308-10.239-4.813-4.157 1.498-6.312 6.082-4.814 10.239 2.192 6.081 4.602 12.142 7.183 18.103-45.257 26.248-73.823 72.294-73.823 128.462 0 79.689 57.665 123.577 162.371 123.577s162.371-43.888 162.371-123.577z"/><path d="m153.31 146.451c-16.107 15.908-26.471 36.249-29.97 58.823-.677 4.366 2.314 8.454 6.681 9.131 4.366.678 8.454-2.316 9.131-6.68 2.969-19.159 11.753-36.41 25.401-49.89 3.144-3.105 3.175-8.17.07-11.313-3.103-3.142-8.168-3.173-11.313-.071z"/><path d="m190.291 138.943c1.972 0 3.091-.636 4.719-1.333 4.065-1.731 5.956-6.431 4.224-10.495-1.731-4.064-6.43-5.957-10.496-4.224-.571.243-1.139.489-1.704.74-4.037 1.796-5.854 6.524-4.058 10.562 1.327 2.981 4.25 4.75 7.315 4.75z"/><path d="m106 413.5c-4.418 0-8 3.582-8 8s3.582 8 8 8h43c4.418 0 8-3.582 8-8s-3.582-8-8-8z"/><path d="m196 429.5c4.418 0 8-3.582 8-8s-3.582-8-8-8h-6c-4.418 0-8 3.582-8 8s3.582 8 8 8z"/><path d="m365.94 428.89c5.92 2.469 12.22-2.813 10.9-8.95-.977-4.977-6.288-7.744-10.9-5.83-6.518 2.718-6.626 12.016 0 14.78z"/><path d="m330.56 429.34c6.284-1.24 8.594-9.006 4.1-13.5-3.582-3.587-9.571-2.931-12.31 1.22-2.074 3.078-1.752 7.358.99 10.101 1.944 1.942 4.77 2.709 7.22 2.179z"/><path d="m467.384 144.037c-3.514-2.68-8.534-2.001-11.212 1.513s-2 8.534 1.513 11.212c4.014 3.06 6.315 7.702 6.315 12.738v74c0 8.822-7.178 16-16 16h-3.526c23.928-128.467-75.348-246-204.474-246-84.814 0-157.923 51.033-190.264 124h-10.736v-72c0-4.418-3.582-8-8-8s-8 3.582-8 8v73.297c-13.276 3.898-23 16.183-23 30.703v74c0 5.729 1.534 11.353 4.437 16.264 1.493 2.526 4.158 3.931 6.895 3.931 6.101 0 10.059-6.693 6.88-12.071-1.447-2.448-2.212-5.257-2.212-8.124v-74c0-8.822 7.178-16 16-16h11.427c-26.565 76.575-6.661 165.116 57.904 223h-21.135c-12.79 0-23.196 10.406-23.196 23.196v43.607c0 12.79 10.406 23.196 23.196 23.196h319.607c12.791 0 23.196-10.406 23.196-23.196v-43.607c0-12.79-10.406-23.196-23.196-23.196h-227.448c-4.418 0-8 3.582-8 8s3.582 8 8 8h227.449c3.968 0 7.196 3.229 7.196 7.196v43.607c0 3.968-3.228 7.196-7.196 7.196h-319.608c-3.968 0-7.196-3.229-7.196-7.196v-43.607c0-3.968 3.228-7.196 7.196-7.196 47.024 0 44.922.348 47.316-.781 5.538-2.644 6.138-10.186 1.21-13.734-50.545-36.011-80.722-94.51-80.722-156.485 0-105.869 86.131-192 192-192s192 86.131 192 192c0 44.498-15.569 87.87-43.84 122.127-2.813 3.407-2.33 8.45 1.078 11.262 3.408 2.813 8.45 2.33 11.262-1.078 18.98-22.999 32.67-49.79 40.343-78.311h7.157c17.645 0 32-14.355 32-32v-74c0-10.071-4.599-19.353-12.616-25.463z"/></g></svg>