<svg id="Capa_1" enable-background="new 0 0 511.194 511.194" height="512" viewBox="0 0 511.194 511.194" width="512" xmlns="http://www.w3.org/2000/svg"><path d="m452.168 0h-393.142c-24.813 0-45 20.187-45 45v352.388c0 24.813 20.187 45 45 45h142.667l41.423 62.134c5.918 8.879 19.02 8.913 24.961 0l41.423-62.134h142.667c24.813 0 45-20.187 45-45v-352.388c.001-24.813-20.186-45-44.999-45zm15 397.388c0 8.271-6.729 15-15 15h-150.695c-5.015 0-9.699 2.506-12.481 6.68l-33.395 50.092-33.395-50.092c-2.782-4.173-7.466-6.68-12.481-6.68h-150.695c-8.271 0-15-6.729-15-15v-352.388c0-8.271 6.729-15 15-15h393.142c8.271 0 15 6.729 15 15z"/><path d="m401.002 56.381c-26.223-10.861-56.795 1.457-67.827 28.095l-78.902 190.488c-.934 2.254-1.303 4.703-1.077 7.132l7.338 78.74c1.124 12.06 15.3 17.793 24.512 10.153l60.866-50.489c1.878-1.558 3.348-3.55 4.282-5.805 2.131-5.144 77.914-188.101 78.903-190.488 10.995-26.545-1.641-56.868-28.095-67.826zm.378 56.347-8.673 20.939-40.488-16.771 8.673-20.938c4.625-11.164 17.466-16.484 28.63-11.859 11.183 4.631 16.492 17.442 11.858 28.629zm-77.481 187.055-36.132 29.972-4.356-46.743 57.327-138.399 40.488 16.771z"/><path d="m258.597 171.865c0-8.284-6.716-15-15-15h-150.46c-8.284 0-15 6.716-15 15s6.716 15 15 15h150.459c8.285 0 15.001-6.716 15.001-15z"/><path d="m93.137 117h186.857c8.284 0 15-6.716 15-15s-6.716-15-15-15h-186.857c-8.284 0-15 6.716-15 15s6.716 15 15 15z"/><path d="m93.137 261.299h118.459c8.284 0 15-6.716 15-15s-6.716-15-15-15h-118.459c-8.284 0-15 6.716-15 15s6.716 15 15 15z"/><path d="m220.137 305.733h-127c-8.284 0-15 6.716-15 15s6.716 15 15 15h127c8.284 0 15-6.716 15-15s-6.716-15-15-15z"/></svg>