<svg id="Layer_1" enable-background="new 0 0 480 480" height="512" viewBox="0 0 480 480" width="512" xmlns="http://www.w3.org/2000/svg"><path d="m424 240c-5.312 0-112.563 0-116 0 26.51 0 48-21.49 48-48v-136c0-26.51-21.49-48-48-48h-136c-26.51 0-48 21.49-48 48v136c0 26.51 21.49 48 48 48h-116c-26.51 0-48 21.49-48 48v136c0 26.51 21.49 48 48 48h136c26.51 0 48-21.49 48-48 0 26.51 21.49 48 48 48h136c26.51 0 48-21.49 48-48v-136c0-26.51-21.49-48-48-48zm-184 48c0-26.51-21.49-48-48-48h96c-26.51 0-48 21.49-48 48z" fill="#ffe773"/><path d="m472 288v136c0 26.51-21.49 48-48 48h-136c-26.51 0-48-21.49-48-48v-136c0-26.51 21.49-48 48-48h136c26.51 0 48 21.49 48 48z" fill="#befa91"/><path d="m240 288v136c0 26.51-21.49 48-48 48h-136c-26.51 0-48-21.49-48-48v-136c0-26.51 21.49-48 48-48h136c26.51 0 48 21.49 48 48z" fill="#fe4f60"/><g fill="#e8f8fc"><path d="m302.35 108c5.72 9.9 5.72 22.1 0 32l-17.32 30c-5.71 9.9-16.28 16-27.71 16h-34.64c-11.43 0-22-6.1-27.71-16l-17.32-30c-5.72-9.9-5.72-22.1 0-32l17.32-30c5.71-9.9 16.28-16 27.71-16h34.64c11.43 0 22 6.1 27.71 16z"/><circle cx="356" cy="356" r="57"/><path d="m176.67 327.62c13.12 1.91 18.36 18.04 8.87 27.29l-13.14 12.81c-3.77 3.68-5.49 8.97-4.6 14.16l3.1 18.08c2.24 13.08-11.48 23.04-23.22 16.87l-16.23-8.54c-4.67-2.45-10.23-2.45-14.9 0l-16.23 8.54c-11.74 6.17-25.46-3.79-23.22-16.87l3.1-18.08c.89-5.19-.83-10.48-4.6-14.16l-13.14-12.81c-9.49-9.25-4.25-25.38 8.87-27.29l18.16-2.64c5.21-.75 9.71-4.03 12.04-8.75l8.12-16.45c5.87-11.89 22.83-11.89 28.7 0l8.12 16.45c2.33 4.72 6.83 8 12.04 8.75z"/></g><path d="m308.707 47.969c-20.68.008-51.24.031-96.699.031-26.509 0-48.008 21.499-48.008 48.008 0 45.461-.023 76.024-.031 96.706-.01 25.984-39.969 27.608-39.969-.714v-136c0-26.51 21.49-48 48-48 145.678 0 136.461-.016 137.791.033 25.899.95 24.833 39.925-1.084 39.936z" fill="#ffec8f"/><path d="m424.707 279.969c-20.68.008-51.24.031-96.699.031-26.509 0-48.008 21.499-48.008 48.008 0 45.461-.023 76.024-.031 96.706-.01 25.984-39.969 27.608-39.969-.714v-136c0-26.51 21.49-48 48-48 145.678 0 136.461-.016 137.791.033 25.899.95 24.833 39.925-1.084 39.936z" fill="#d0ffad"/><path d="m192.708 279.969c-20.68.008-51.24.031-96.699.031-26.51 0-48.009 21.499-48.009 48.008 0 45.461-.023 76.024-.031 96.706-.01 25.984-39.969 27.608-39.969-.714v-136c0-26.51 21.49-48 48-48 145.678 0 136.461-.016 137.791.033 25.899.95 24.833 39.925-1.083 39.936z" fill="#ff6d7a"/><path d="m424 232h-30.75c-4.418 0-8 3.582-8 8s3.582 8 8 8h30.75c22.056 0 40 17.944 40 40v136c0 22.056-17.944 40-40 40h-136c-22.056 0-40-17.944-40-40v-136c0-22.056 17.944-40 40-40 29.924 0 29.195.406 31.802-1.262 25.229-5.435 44.198-27.908 44.198-54.738v-136c0-30.878-25.121-56-56-56h-136c-30.878 0-56 25.122-56 56v136c0 15.658 6.467 29.828 16.862 40h-76.862c-30.878 0-56 25.122-56 56v136c0 30.878 25.122 56 56 56h88c4.418 0 8-3.582 8-8s-3.582-8-8-8h-88c-22.056 0-40-17.944-40-40v-136c0-22.056 17.944-40 40-40h136c22.056 0 40 17.944 40 40v136c0 22.056-17.944 40-40 40-4.418 0-8 3.582-8 8s3.582 8 8 8c20.349 0 38.193-10.913 48-27.19 9.807 16.278 27.651 27.19 48 27.19h136c30.879 0 56-25.122 56-56v-136c0-30.878-25.121-56-56-56zm-252 0c-22.056 0-40-17.944-40-40v-136c0-22.056 17.944-40 40-40h136c22.056 0 40 17.944 40 40v136c0 22.056-17.944 40-40 40-28.956 0-105.638 0-136 0zm59.138 16h17.723c-3.404 3.332-6.39 7.088-8.862 11.19-2.471-4.102-5.456-7.858-8.861-11.19zm-55.454 132.53c-.445-2.596.415-5.243 2.301-7.082l13.138-12.806c14.241-13.881 6.371-38.079-13.301-40.937l-18.156-2.638c-2.606-.378-4.858-2.015-6.024-4.376l-8.12-16.452c-8.802-17.834-34.246-17.825-43.043 0l-8.119 16.452c-1.167 2.362-3.418 3.999-6.024 4.377l-18.156 2.638c-19.674 2.859-27.54 27.059-13.301 40.937l13.138 12.807c1.886 1.838 2.746 4.485 2.301 7.082l-3.101 18.082c-3.363 19.6 17.228 34.551 34.822 25.301l16.24-8.538c2.329-1.226 5.113-1.226 7.445 0 16.799 8.831 19.96 11.32 27.43 11.32 14.399 0 26.22-13 23.632-28.083zm-8.868-18.539c-5.658 5.515-8.238 13.456-6.902 21.243l3.101 18.083c1.122 6.543-5.721 11.53-11.607 8.434l-16.239-8.538c-6.994-3.676-15.344-3.677-22.336 0l-16.24 8.538c-5.876 3.089-12.732-1.878-11.607-8.434l3.101-18.083c1.335-7.787-1.245-15.728-6.902-21.243l-13.138-12.807c-4.754-4.633-2.148-12.689 4.434-13.645l18.156-2.638c7.818-1.136 14.573-6.044 18.071-13.129l8.12-16.452c2.939-5.953 11.404-5.964 14.348 0l8.12 16.453c3.497 7.085 10.252 11.993 18.07 13.129l18.156 2.638c6.571.955 9.195 9.004 4.434 13.646zm124.184-5.991c0 35.841 29.159 65 65 65s65-29.159 65-65-29.159-65-65-65-65 29.159-65 65zm114 0c0 27.019-21.981 49-49 49s-49-21.981-49-49 21.981-49 49-49 49 21.981 49 49zm-216.961-182-17.321-30c-7.123-12.336-7.123-27.664 0-40l17.321-30c7.123-12.336 20.396-20 34.641-20h34.641c14.245 0 27.52 7.664 34.642 20l17.32 30c2.209 3.826.897 8.719-2.929 10.928-3.828 2.21-8.72.897-10.929-2.928l-17.319-30c-4.273-7.402-12.238-12-20.785-12h-34.641c-8.547 0-16.511 4.598-20.785 12l-17.321 30c-4.273 7.402-4.273 16.598 0 24l17.321 30c4.273 7.402 12.238 12 20.785 12h34.641c8.547 0 16.512-4.598 20.784-12 2.21-3.828 7.102-5.139 10.929-2.929 3.826 2.209 5.138 7.102 2.929 10.928-7.122 12.337-20.396 20-34.642 20h-34.641c-14.245.001-27.519-7.663-34.641-19.999z"/></svg>