<svg id="Layer_1" enable-background="new 0 0 511.99 511.99" height="512" viewBox="0 0 511.99 511.99" width="512" xmlns="http://www.w3.org/2000/svg"><path d="m492.544 19.444c-15.968-15.968-40.216-22.147-72.076-18.366-49.588 5.886-134.385 28.009-216.03 56.361-53.713 18.652-148.822 54.943-182.301 88.422-28.925 28.502-29.901 62.717-.574 90.555 30.544 29.291 96.531 53.187 146.509 68.074 19.012 5.664 33.728 20.369 39.364 39.335 19.328 59.191 49.87 166.217 112.623 168.164 15.881 0 31.377-7.445 46.069-22.138 69.392-81.83 132.003-307.515 144.784-398.332 3.78-31.856-2.399-56.106-18.368-72.075zm-21.355 67.362c-12.063 101.628-89.823 331.239-133.346 374.762-14.57 14.568-21.973 12.391-32.142 2.427-18.672-18.295-40.513-66.248-59.924-131.564-9.5-31.964-34.28-56.74-66.287-66.275-63.726-18.983-111.198-40.346-130.243-58.61-4.193-4.021-9.203-9.968-9.26-15.471 8.555-54.117 297.454-141.173 385.195-151.276 13.109-1.555 30.53-1.616 39.077 6.93 8.547 8.547 8.487 25.967 6.93 39.077zm-210.19 184.184c-17.561.106-26.752-21.608-14.142-34.142l139-139c19.511-18.017 46.294 8.795 28.284 28.284l-139 139c-3.906 3.905-9.024 5.858-14.142 5.858z"/></svg>