<svg id="Capa_1" enable-background="new 0 0 512 512" height="512" viewBox="0 0 512 512" width="512" xmlns="http://www.w3.org/2000/svg"><g><path d="m191.606 386.607-21.212-21.214-49.394 49.394-19.394-19.394-21.212 21.214 40.606 40.606z"/><path d="m136 181c-24.813 0-45-20.187-45-45h-30c0 41.355 33.645 75 75 75s75-33.645 75-75h-30c0 24.813-20.187 45-45 45z"/><path d="m31 301v211h210v-211zm180 181h-150v-151h150z"/><path d="m376 0c-52.181 0-97.538 29.981-120 73.74-22.462-43.759-67.819-73.74-120-73.74-74.479 0-136 61.23-136 136 0 74.439 61.01 135 136 135 52.181 0 97.538-29.761 120-73.198 22.462 43.437 67.819 73.198 120 73.198 74.99 0 136-60.561 136-135 0-74.776-61.528-136-136-136zm-240 241c-58.448 0-106-47.103-106-105 0-58.448 47.552-106 106-106 57.897 0 105 47.552 105 106 0 57.897-47.103 105-105 105zm240 0c-57.897 0-105-47.103-105-105 0-58.448 47.103-106 105-106 58.448 0 106 47.552 106 106 0 57.897-47.552 105-106 105z"/><path d="m376 121c-41.355 0-75 33.645-75 75h30c0-24.813 20.187-45 45-45s45 20.187 45 45h30c0-41.355-33.645-75-75-75z"/><path d="m271 301v211h210v-211zm180 181h-150v-151h150z"/></g></svg>