<svg id="Capa_1" enable-background="new 0 0 512 512" height="512" viewBox="0 0 512 512" width="512" xmlns="http://www.w3.org/2000/svg"><g><path d="m31 512h210v-211h-210zm70.605-116.605 19.395 19.394 49.395-49.395 21.211 21.211-70.606 70.606-40.605-40.605z"/><path d="m121 241c66.275 0 120-53.725 120-120s-53.725-121-120-121-121 54.725-121 121 54.725 120 121 120zm-45-120c0 24.814 20.186 45 45 45s45-20.186 45-45.01h30c0 41.363-33.647 75.01-75 75.01s-75-33.647-75-75z"/><path d="m391 0c-66.275 0-120 54.725-120 121s53.725 120 120 120 121-53.725 121-120-54.725-121-121-121zm45 181c0-24.814-20.186-45-45-45s-45 20.186-45 45h-30c0-41.353 33.647-75 75-75s75 33.647 75 75z"/><path d="m271 301h210v211h-210z"/></g></svg>