<?xml version="1.0" encoding="iso-8859-1"?>
<!-- Generator: Adobe Illustrator 19.0.0, SVG Export Plug-In . SVG Version: 6.00 Build 0)  -->
<svg version="1.1" id="Capa_1" xmlns="http://www.w3.org/2000/svg" xmlns:xlink="http://www.w3.org/1999/xlink" x="0px" y="0px"
	 viewBox="0 0 512 512" style="enable-background:new 0 0 512 512;" xml:space="preserve">
<polygon style="fill:#FEDA9B;" points="448,224.285 448,502 64,502 64,226 256,74.229 "/>
<polygon style="fill:#D8D8E4;" points="438,152.072 438,47 380.042,47 380.042,106.861 "/>
<rect x="160" y="228" style="fill:#72D8FF;" width="192" height="192"/>
<polygon style="fill:#FF5D5D;" points="256,10 10.029,202.029 46.098,238.098 256,74.229 465.902,238.098 501.971,202.029 "/>
<path d="M448,354c-2.63,0-5.21,1.069-7.07,2.93S438,361.359,438,364c0,2.63,1.069,5.21,2.93,7.069c1.86,1.86,4.44,2.931,7.07,2.931
	s5.21-1.07,7.069-2.931C456.93,369.21,458,366.63,458,364s-1.07-5.21-2.931-7.07C453.21,355.069,450.63,354,448,354z"/>
<path d="M502,492h-44v-93c0-5.522-4.478-10-10-10s-10,4.478-10,10v93H122v-94c0-5.522-4.478-10-10-10s-10,4.478-10,10v94H74V229.002
	L256,86.915l182,142.087V324c0,5.522,4.478,10,10,10s10-4.478,10-10v-79.384l1.748,1.365c1.817,1.419,3.988,2.118,6.15,2.118
	c2.572,0,5.134-0.989,7.074-2.929l36.069-36.07c2.025-2.026,3.085-4.824,2.91-7.684c-0.176-2.86-1.569-5.507-3.828-7.27L448,147.208
	V47c0-5.523-4.478-10-10-10h-57.958c-5.522,0-10,4.477-10,10v39.346L262.153,2.118c-3.615-2.823-8.691-2.823-12.307,0L3.876,194.146
	c-2.259,1.763-3.652,4.41-3.828,7.27c-0.175,2.86,0.885,5.657,2.91,7.684l36.069,36.07c3.57,3.569,9.244,3.919,13.225,0.811
	L54,244.616V492H10c-5.522,0-10,4.478-10,10s4.478,10,10,10h492c5.522,0,10-4.478,10-10S507.522,492,502,492z M390.042,57H428
	v74.594l-37.958-29.634V57z M46.916,224.774l-21.82-21.821L256,22.686l230.904,180.267l-21.82,21.821L262.153,66.346
	c-1.808-1.412-3.98-2.118-6.153-2.118s-4.346,0.706-6.153,2.118L46.916,224.774z"/>
<path d="M160,218c-5.522,0-10,4.477-10,10v192c0,5.522,4.478,10,10,10h192c5.522,0,10-4.478,10-10V228c0-5.523-4.478-10-10-10H160z
	 M342,314h-76v-76h76V314z M246,238v76h-76v-76H246z M170,334h76v76h-76V334z M266,410v-76h76v76H266z"/>
<path d="M102,358.506v0.161c0,5.522,4.478,10,10,10s10-4.478,10-10v-0.161c0-5.522-4.478-10-10-10S102,352.983,102,358.506z"/>
<g>
</g>
<g>
</g>
<g>
</g>
<g>
</g>
<g>
</g>
<g>
</g>
<g>
</g>
<g>
</g>
<g>
</g>
<g>
</g>
<g>
</g>
<g>
</g>
<g>
</g>
<g>
</g>
<g>
</g>
</svg>
