<svg id="Layer_1" enable-background="new 0 0 480.002 480.002" height="512" viewBox="0 0 480.002 480.002" width="512" xmlns="http://www.w3.org/2000/svg"><path d="m437.001 144.521v287.48c0 22.09-17.91 40-40 40h-314c-22.09 0-40-17.91-40-40v-287.48l162.17-105.21c21.18-13.75 48.48-13.75 69.66 0l63.15 40.97v-72.28h71.46v118.64z" fill="#d6f4fc"/><path d="m409.441 8.001v118.64l-71.46-46.36c0-10.038 0-62.173 0-72.28z" fill="#fe4f60"/><path d="m437.001 144.521v39.53l-166.52-108.03c-18.52-12.02-42.44-12.02-60.95 0l-166.53 108.04v-39.54l162.17-105.21c21.18-13.75 48.48-13.75 69.66 0 6.806 4.416 156.699 101.661 162.17 105.21z" fill="#bdeffc"/><path d="m337.981 8.001h71.46v28h-71.46z" fill="#e84857"/><path d="m472.001 235.601v216.8c0 10.83-8.77 19.6-19.6 19.6h-216.8c-10.83 0-19.6-8.77-19.6-19.6v-216.8c0-10.83 8.77-19.6 19.6-19.6h216.8c10.83 0 19.6 8.77 19.6 19.6z" fill="#ffaa64"/><path d="m472.001 235.601c0 10.145-8.221 18.4-18.4 18.4h-180c-10.825 0-19.6 8.775-19.6 19.6v180c0 10.162-8.238 18.4-18.4 18.4-10.817 0-19.6-8.767-19.6-19.6v-216.8c0-10.825 8.775-19.6 19.6-19.6h216.8c10.825 0 19.6 8.775 19.6 19.6z" fill="#ffbd7b"/><path d="m386.261 216.001v67.76c0 11.29-12.19 18.36-21.99 12.76l-13.59-7.76c-4.52-2.58-10.07-2.58-14.58 0l-13.59 7.76c-9.8 5.6-21.99-1.47-21.99-12.76v-67.76z" fill="#d6f4fc"/><path d="m300.521 216.001h85.74v38h-85.74z" fill="#e8f8fc"/><path d="m176.001 472.001c0 4.418-3.582 8-8 8h-85c-26.468 0-48-21.532-48-48v-272.752l-22.646 14.692c-3.706 2.406-8.66 1.35-11.065-2.356-2.405-3.707-1.35-8.661 2.356-11.065l197.166-127.923c23.807-15.445 54.57-15.445 78.377 0l50.788 32.952v-49.548c-5.279 0-8.407-3.904-8.407-8 0-4.418 3.582-8 8-8h89.325c4.418 0 8 3.582 8 8s-3.582 8-8 8h-1.458v57.154c0 4.418-3.582 8-8 8s-8-3.582-8-8v-57.154h-55.46v59.928l130.378 84.59c3.706 2.404 4.762 7.358 2.356 11.065-2.405 3.706-7.358 4.762-11.065 2.356l-197.166-127.922c-18.516-12.012-42.443-12.012-60.959 0l-158.52 102.85v283.133c0 17.645 14.355 32 32 32h85c4.418 0 8 3.582 8 8zm276.402-264h-95.541c-4.418 0-8 3.582-8 8s3.582 8 8 8h95.541c6.395 0 11.598 5.203 11.598 11.598v216.805c0 6.395-5.203 11.598-11.598 11.598h-216.804c-6.395 0-11.598-5.203-11.598-11.598v-216.805c0-6.395 5.203-11.598 11.598-11.598h56.919v59.763c0 17.428 18.82 28.36 33.96 19.708l13.587-7.764c2.051-1.172 4.597-1.172 6.647 0l13.587 7.764c15.129 8.647 33.961-2.267 33.961-19.708v-26.317c0-4.418-3.582-8-8-8s-8 3.582-8 8v26.317c0 5.141-5.548 8.372-10.022 5.815l-13.588-7.764c-6.944-3.969-15.576-3.969-22.522 0l-13.588 7.764c-4.463 2.551-10.021-.664-10.021-5.815v-67.763c0-4.418-3.582-8-8-8h-64.919c-15.218 0-27.598 12.38-27.598 27.598v216.805c0 15.218 12.38 27.598 27.598 27.598h216.805c15.218 0 27.598-12.38 27.598-27.598v-216.805c-.002-15.218-12.382-27.598-27.6-27.598z"/></svg>