<svg id="Layer_1" height="512" viewBox="0 0 32 32" width="512" xmlns="http://www.w3.org/2000/svg" data-name="Layer 1"><path d="m28 11h-5.008v-2a1.978 1.978 0 0 0 -1.18-1.825 2 2 0 0 0 -2.191.37l-7 7a2.1 2.1 0 0 0 -.621 1.538 1.952 1.952 0 0 0 .637 1.389l7.026 7.022a2 2 0 0 0 2.148.33 1.977 1.977 0 0 0 1.181-1.824v-2h5.008a3 3 0 0 0 3-3v-4a3 3 0 0 0 -3-3z"/><path d="m4 30.662a2.557 2.557 0 0 0 .457-.028l9-1.385a2.985 2.985 0 0 0 2.543-2.965v-1.284a1 1 0 0 0 -2 0v1.284a1 1 0 0 1 -.848.988l-9 1.385a1 1 0 0 1 -.8-.229.988.988 0 0 1 -.352-.759v-23.338a1.011 1.011 0 0 1 1.152-.988l9 1.385a.993.993 0 0 1 .848.988v1.284a1 1 0 0 0 2 0v-1.284a2.984 2.984 0 0 0 -2.544-2.965l-9-1.385a3.031 3.031 0 0 0 -3.456 2.965v23.338a3.039 3.039 0 0 0 3 2.993z"/></svg>