<svg id="Layer_1" height="512" viewBox="0 0 32 32" width="512" xmlns="http://www.w3.org/2000/svg" data-name="Layer 1"><path d="m28 11h-5.008v-2a1.978 1.978 0 0 0 -1.18-1.825 2 2 0 0 0 -2.191.37l-7 7a2.1 2.1 0 0 0 -.621 1.538 1.952 1.952 0 0 0 .637 1.389l7.026 7.022a2.038 2.038 0 0 0 2.148.33 1.977 1.977 0 0 0 1.181-1.824v-2h5.008a3 3 0 0 0 3-3v-4a3 3 0 0 0 -3-3zm1 7a1 1 0 0 1 -1 1h-5.008a2 2 0 0 0 -2 2l.043 2.04-7-7a.56.56 0 0 0 -.049-.036c.029-.026.029-.026 7.006-7v2a2 2 0 0 0 2 2h5.008a1 1 0 0 1 1 1z"/><path d="m4 30.668a3.056 3.056 0 0 0 .457-.034l9-1.385a2.985 2.985 0 0 0 2.543-2.965v-1.284a1 1 0 0 0 -2 0v1.284a1 1 0 0 1 -.848.988l-9 1.385a1.011 1.011 0 0 1 -1.152-.988v-23.338a1.01 1.01 0 0 1 1.152-.988l9 1.385a.993.993 0 0 1 .848.988v1.284a1 1 0 0 0 2 0v-1.284a2.984 2.984 0 0 0 -2.544-2.965l-9-1.385a3.032 3.032 0 0 0 -3.456 2.965v23.338a3.032 3.032 0 0 0 3 2.999z"/></svg>