<svg id="Layer_1" height="512" viewBox="0 0 32 32" width="512" xmlns="http://www.w3.org/2000/svg" data-name="Layer 1"><path d="m21.18 24.824a2.072 2.072 0 0 0 2.192-.37l7-7a2.1 2.1 0 0 0 .619-1.537 1.946 1.946 0 0 0 -.637-1.389l-7.025-7.023a2 2 0 0 0 -3.329 1.495v2h-5a3 3 0 0 0 -3 3v4a3 3 0 0 0 3 3h5v2a1.977 1.977 0 0 0 1.18 1.824zm-6.18-5.824a1 1 0 0 1 -1-1v-4a1 1 0 0 1 1-1h5a2 2 0 0 0 2-2l-.042-2.041 7 7c.013.014.034.023.048.036-.029.026-.029.026-7.006 7.005v-2a2 2 0 0 0 -2-2z"/><path d="m4 30.668a3.056 3.056 0 0 0 .457-.034l9-1.385a2.985 2.985 0 0 0 2.543-2.965v-1.284a1 1 0 0 0 -2 0v1.284a1 1 0 0 1 -.848.988l-9 1.385a1 1 0 0 1 -.8-.229.988.988 0 0 1 -.352-.759v-23.338a1.011 1.011 0 0 1 1.152-.988l9 1.385a.993.993 0 0 1 .848.988v1.284a1 1 0 0 0 2 0v-1.284a2.984 2.984 0 0 0 -2.544-2.965l-9-1.385a3.029 3.029 0 0 0 -3.456 2.965v23.338a3.035 3.035 0 0 0 3 2.999z"/></svg>