<svg id="Layer_1" height="512" viewBox="0 0 32 32" width="512" xmlns="http://www.w3.org/2000/svg" data-name="Layer 1"><path d="m21.18 24.824a2.1 2.1 0 0 0 2.192-.37l7-7a2.1 2.1 0 0 0 .619-1.537 1.946 1.946 0 0 0 -.637-1.389l-7.025-7.023a2 2 0 0 0 -3.329 1.495v2h-5a3 3 0 0 0 -3 3v4a3 3 0 0 0 3 3h5v2a1.977 1.977 0 0 0 1.18 1.824z"/><path d="m4 30.667a2.945 2.945 0 0 0 .457-.033l9-1.385a2.985 2.985 0 0 0 2.543-2.965v-1.284a1 1 0 0 0 -2 0v1.284a1 1 0 0 1 -.848.988l-9 1.385a1.012 1.012 0 0 1 -1.152-.988v-23.338a1.008 1.008 0 0 1 1.152-.988l9 1.385a.993.993 0 0 1 .848.988v1.284a1 1 0 0 0 2 0v-1.284a2.984 2.984 0 0 0 -2.544-2.965l-9-1.385a3.031 3.031 0 0 0 -3.456 2.965v23.338a3.062 3.062 0 0 0 3 2.998z"/></svg>