<svg id="Layer_1" height="512" viewBox="0 0 32 32" width="512" xmlns="http://www.w3.org/2000/svg"><path d="m25.718 14.998c.001-5.599-4.318-10.187-9.713-10.187-5.396 0-9.529 4.592-9.723 10.187l-.188 5.427c-1.742 0-3.022 1.288-3.022 2.844 0 1.553 1.28 2.834 2.835 2.834h20.188c1.555 0 2.834-1.281 2.834-2.834 0-1.556-1.279-2.844-3.022-2.844zm-14.679 13.103c1.041 1.654 2.875 2.761 4.957 2.763h.008c2.082-.002 3.914-1.107 4.953-2.763zm4.226-26.906c-1.534.278-2.86 1.198-3.645 2.51 1.352-.569 2.827-.894 4.383-.894 1.554 0 3.029.32 4.379.892-.784-1.313-2.116-2.229-3.654-2.508-.574-.084-.978-.072-1.463 0z"/></svg>