<svg id="Layer_1" height="512" viewBox="0 0 32 32" width="512" xmlns="http://www.w3.org/2000/svg"><path d="m10.497 5.7c-2.973 1.94-4.947 5.385-4.947 9.301v5.836h-.406c-1.671 0-3.048 1.387-3.048 3.057 0 1.672 1.377 3.049 3.048 3.049h4.667c.564 2.91 3.129 5.119 6.188 5.121 3.06-.004 5.619-2.211 6.182-5.121h4.676c1.671 0 3.048-1.377 3.048-3.049 0-1.67-1.377-3.057-3.047-3.057h-.405v-5.836c0-3.918-1.974-7.367-4.947-9.305-.053-2.869-2.075-5.762-5.509-5.76s-5.449 2.895-5.5 5.764zm5.498-3.75h.002.006c1.372.004 2.407 1.082 2.889 2.527-.917-.273-1.884-.432-2.889-.432-1.007 0-1.978.156-2.896.436.481-1.449 1.517-2.529 2.888-2.531zm.009 27.961c-1.837-.002-3.129-1.316-3.683-2.971h7.358c-.55 1.651-1.842 2.967-3.675 2.971zm10.853-5.121h-21.713c-.516 0-.896-.379-.896-.896s.381-.904.896-.904h1.485c.59-.002 1.068-.48 1.07-1.072v-6.914c0-4.926 3.719-8.807 8.304-8.807 4.586 0 8.297 3.881 8.297 8.807v6.914c.002.592.48 1.07 1.071 1.072h1.484c.517 0 .897.387.897.904s-.379.896-.895.896z"/></svg>