<svg id="Layer_1" enable-background="new 0 0 480 480" height="512" viewBox="0 0 480 480" width="512" xmlns="http://www.w3.org/2000/svg"><path d="m394.07 315.88-14.12-141.55c-5.024-62.817-51.596-102.878-111.43-112.89.075-.465.379 2.455-4.46-36.76-1.183-9.59-7.91-16.68-15.82-16.68h-16.48c-7.91 0-14.638 7.09-15.82 16.68-4.841 39.279-4.525 36.296-4.45 36.76-59.912 10.01-106.416 50.035-111.44 112.89l-14.12 141.55c-2.023 44.56-29.332 34.99-26.11 88.44.64 10.51 9.43 18.68 19.96 18.68h111.58c0 27.06 21.78 49 48.64 49s48.64-21.94 48.64-49h111.58c10.53 0 19.32-8.17 19.96-18.68 3.216-53.384-24.092-43.98-26.11-88.44z" fill="#ffd500"/><path d="m151.035 196c4.732 0 8.438 4.078 7.969 8.787-15.291 153.341-13.879 141.574-15.344 147.23-.913 3.527-4.102 5.983-7.746 5.983h-65.834c6.89-10.43 14.8-18.99 15.85-42.12l11.97-120.02c1.874.193-4.256.145 53.135.14z" fill="#fff8d6"/><path d="m281.298 80.086c-39.858 4.317-77.68 22.481-100.284 54.533-1.495 2.12-3.927 3.382-6.521 3.382h-66.143c26.296-66.09 107.195-90.833 174.089-73.628 8.658 2.226 7.747 14.75-1.141 15.713z" fill="#fff8d6"/><path d="m409.92 358c6.34 9.59 11.8 20.76 10.26 46.32-.64 10.51-9.43 18.68-19.96 18.68h-320.44c-10.53 0-19.32-8.17-19.96-18.68-1.54-25.55 3.92-36.73 10.26-46.32z" fill="#ffe773"/><path d="m119.564 415.01c-.036 4.413-3.585 7.99-7.999 7.99h-31.785c-10.53 0-19.32-8.17-19.96-18.68-1.54-25.55 3.92-36.73 10.26-46.32h58.471c6.377 0 10.179 7.091 6.672 12.417-7.226 10.976-15.454 19.551-15.659 44.593z" fill="#fff0a6"/><path d="m379.95 174.33 2.15 21.53c-1.788.184-281.664.261-284.2 0l2.15-21.53c1.06-13.26 3.93-25.37 8.3-36.33h263.3c4.37 10.97 7.24 23.08 8.3 36.33z" fill="#ffda22"/><path d="m172.116 149.566c-7.949 16.073-10.534 30.906-11.525 39.363-.473 4.034-3.883 7.071-7.945 7.071-59.595.004-52.875.052-54.746-.14l2.15-21.53c1.06-13.26 3.93-25.37 8.3-36.33h56.61c5.941 0 9.789 6.241 7.156 11.566z" fill="#fff0a6"/><path d="m191.36 423h97.28c0 27.06-21.78 49-48.64 49s-48.64-21.94-48.64-49z" fill="#facf5f"/><path d="m227.085 470.258c-20.029-5.628-35.725-24.023-35.725-47.258h22.558c4.03 0 7.368 3.007 7.935 6.997 1.484 10.452 6.243 19.839 13.195 27.073 5.594 5.823-.189 15.373-7.963 13.188z" fill="#ffe699"/><path d="m264.06 24.68c4.847 39.279 4.535 36.296 4.46 36.76-18.77-3.15-38.26-3.15-57.03 0-.075-.465-.383 2.455 4.45-36.76 1.182-9.59 7.91-16.68 15.82-16.68h16.48c7.91 0 14.637 7.09 15.82 16.68z" fill="#ffe773"/><path d="m253.554 9.11c4.63 2 3.25 8.89-1.794 8.89-7.91 0-14.64 7.09-15.82 16.68l-2.555 20.698c-.271 2.193-2.054 3.907-4.26 4.042-5.917.364-11.807 1.039-17.636 2.02-.075-.465-.384 2.455 4.45-36.76 1.183-9.59 7.911-16.68 15.821-16.68 17.239 0 18.362-.371 21.794 1.11z" fill="#ffde3b"/><g><path d="m416.575 353.563c-7.129-10.76-13.587-17.51-14.515-38.041-.017-.357-.851 5.373-14.138-141.906-1.287-14.269-4.366-27.469-8.859-38.625-.789-1.937-2.251-3.423-4.094-4.265-2.293-1.049 11.244-.726-223.065-.726-4.418 0-8 3.582-8 8s3.582 8 8 8h214.162c3.104 9.09 5.099 18.805 5.913 28.971.004.051 14.107 141.494 14.107 141.494.749 15.871 4.585 25.793 9.029 33.535h-280.051c-4.418 0-8 3.582-8 8s3.582 8 8 8h290.42c4.69 8.035 7.913 17.852 6.707 37.835-.378 6.261-5.636 11.165-11.971 11.165h-320.44c-6.335 0-11.593-4.904-11.972-11.164-1.579-26.157 4.431-34.901 11.389-45.025 6.402-9.315 13.656-19.868 14.717-42.346l11.214-112.465h231.872c4.418 0 8-3.582 8-8s-3.582-8-8-8h-230.276s1.294-12.979 1.298-13.031c4.949-61.721 49.214-87.659 75.158-97.627 53.588-20.588 117.422-10.013 155.234 25.72 3.212 3.034 8.274 2.894 11.31-.319 3.034-3.212 2.892-8.275-.319-11.31-19.662-18.58-45.553-31.083-73.585-36.83l-3.818-30.904c-1.698-13.732-11.69-23.699-23.761-23.699h-16.482c-8.559 0-16.521 5.268-20.78 13.748-1.982 3.948-.39 8.757 3.559 10.74 3.949 1.982 8.758.391 10.74-3.559 1.526-3.041 4.011-4.93 6.481-4.93h16.482c3.749 0 7.211 4.244 7.881 9.661l3.26 26.383c-79.958-8.667-160.372 35.706-167.303 121.567 0 0-14.132 141.767-14.139 141.911-.816 18.058-5.967 25.551-11.93 34.227-7.539 10.97-16.084 23.402-14.173 55.053.889 14.691 13.163 26.199 27.943 26.199h104.152c3.878 27.654 27.537 49 56.068 49 15.713 0 30.854-6.653 41.54-18.255 2.994-3.249 2.786-8.311-.464-11.304-3.249-2.994-8.31-2.787-11.304.464-22.514 24.439-63.177 12.859-69.627-19.905h200.075c14.782 0 27.056-11.509 27.942-26.2 1.695-28.065-4.831-41.016-11.587-51.237z"/></g></svg>