<svg id="Capa_1" enable-background="new 0 0 512.003 512.003" height="512" viewBox="0 0 512.003 512.003" width="512" xmlns="http://www.w3.org/2000/svg"><g><g><g><g><circle cx="256.001" cy="437.16" fill="#f8e883" r="67.342"/></g></g></g><g><g><g><path d="m256.001 369.818c-5.158 0-10.174.599-15 1.698 29.968 6.821 52.342 33.611 52.342 65.644s-22.374 58.824-52.342 65.644c4.826 1.098 9.842 1.698 15 1.698 37.192 0 67.342-30.15 67.342-67.342s-30.15-67.342-67.342-67.342z" fill="#f7e365"/></g></g></g><g><g><g><path d="m454.475 437.813c-.002-27.54-7.442-54.497-21.094-78.414-23.823-41.736-36.517-89.148-36.517-137.639v-1.573c0-77.882-63.136-141.018-141.018-141.018-77.882 0-141.018 63.136-141.018 141.018v1.573c0 41.064-25.753 103.172-42.729 139.652-9.606 20.642-14.569 43.133-14.569 65.9v11.658c0 5.132 4.161 9.293 9.293 9.293h378.361c5.133 0 9.293-4.161 9.293-9.294v-1.156z" fill="#faf0b0"/></g></g></g><g><g><g><path d="m433.38 359.399c-23.823-41.736-36.517-89.149-36.517-137.639v-1.573c0-77.882-63.136-141.018-141.018-141.018-5.068 0-10.071.273-15 .795 70.829 7.49 126.018 67.409 126.018 140.224v1.573c0 48.49 12.694 95.903 36.517 137.639 13.652 23.918 21.092 50.874 21.094 78.414v1.156c0 5.133-4.16 9.294-9.293 9.294h30c5.133 0 9.293-4.161 9.293-9.294v-1.156c-.002-27.541-7.441-54.497-21.094-78.415z" fill="#f8e883"/></g></g></g><g><path d="m144.55 133.253c-3.393-2.376-8.069-1.551-10.445 1.842-17.519 25.019-26.778 54.443-26.778 85.092v1.573c0 40.172-26.333 102.757-42.029 136.488-9.989 21.467-15.27 45.349-15.27 69.064v11.658c0 9.26 7.533 16.793 16.793 16.793h58.828c4.143 0 7.5-3.358 7.5-7.5s-3.357-7.5-7.5-7.5h-58.828c-.988 0-1.793-.804-1.793-1.793v-11.658c0-10.487 1.145-21.008 3.358-31.295h67.263c4.143 0 7.5-3.358 7.5-7.5s-3.357-7.5-7.5-7.5h-63.212c1.831-5.611 3.979-11.11 6.46-16.441 35.896-77.136 43.43-120.239 43.43-142.816v-1.573c0-27.555 8.321-54.004 24.065-76.489 2.376-3.393 1.552-8.069-1.842-10.445z"/><path d="m439.894 355.681c-23.244-40.721-35.53-87.03-35.53-133.921v-1.573c0-81.893-66.625-148.518-148.519-148.518-37.832 0-73.87 14.231-101.476 40.072-3.024 2.831-3.181 7.577-.351 10.601 2.829 3.023 7.575 3.181 10.601.35 24.816-23.23 57.215-36.023 91.226-36.023 73.622 0 133.519 59.896 133.519 133.518v1.573c0 49.494 12.969 98.375 37.503 141.357 3.313 5.805 6.231 11.787 8.745 17.9h-198.316c-4.143 0-7.5 3.358-7.5 7.5s3.357 7.5 7.5 7.5h202.66c.306 0 .607-.024.903-.06 4.025 13.652 6.114 27.753 6.115 41.856v1.156c0 .989-.805 1.794-1.793 1.794h-289.532c-4.143 0-7.5 3.358-7.5 7.5s3.357 7.5 7.5 7.5h27.847c8.396 32.791 38.336 56.239 72.505 56.239 34.184 0 64.108-23.443 72.503-56.239h116.678c9.26 0 16.793-7.534 16.793-16.794v-1.157c-.002-28.426-7.638-56.827-22.081-82.131zm-183.893 141.322c-26.012 0-48.948-16.993-56.88-41.239h113.761c-7.931 24.25-30.857 41.239-56.881 41.239z"/><path d="m102.084 95.906c-2.06 3.594-.816 8.177 2.777 10.236 1.177.674 2.458.994 3.723.994 2.601 0 5.129-1.354 6.514-3.772 18.388-32.087 51.142-54.225 87.616-59.219 4.104-.562 6.975-4.344 6.413-8.448s-4.347-6.973-8.448-6.413c-41.052 5.621-77.91 30.526-98.595 66.622z"/><path d="m87.679 58.772c1.412 1.203 3.141 1.791 4.86 1.791 2.121 0 4.229-.895 5.713-2.636 16.607-19.493 38.004-34.499 61.874-43.396 3.882-1.447 5.855-5.766 4.408-9.647-1.446-3.881-5.765-5.854-9.646-4.408-26.26 9.788-49.793 26.291-68.054 47.724-2.686 3.152-2.307 7.885.845 10.572z"/><path d="m308.976 44.145c36.475 4.994 69.229 27.132 87.616 59.219 1.386 2.418 3.913 3.772 6.514 3.772 1.265 0 2.547-.32 3.723-.994 3.594-2.06 4.837-6.643 2.777-10.236-20.685-36.096-57.543-61.001-98.595-66.622-4.111-.563-7.886 2.31-8.448 6.413-.562 4.104 2.309 7.886 6.413 8.448z"/><path d="m351.565 14.53c23.869 8.897 45.265 23.904 61.873 43.396 1.483 1.741 3.592 2.636 5.713 2.636 1.72 0 3.448-.589 4.86-1.791 3.152-2.686 3.531-7.42.845-10.573-18.262-21.434-41.794-37.936-68.053-47.724-3.883-1.448-8.199.527-9.646 4.408s.526 8.202 4.408 9.648z"/></g></g></svg>