<?xml version="1.0" encoding="iso-8859-1"?>
<!-- Generator: Adobe Illustrator 19.0.0, SVG Export Plug-In . SVG Version: 6.00 Build 0)  -->
<svg version="1.1" id="Capa_1" xmlns="http://www.w3.org/2000/svg" xmlns:xlink="http://www.w3.org/1999/xlink" x="0px" y="0px"
	 viewBox="0 0 512 512" style="enable-background:new 0 0 512 512;" xml:space="preserve">
<g>
	<g>
		<path d="M376.5,224.865c-2.228,0-4.444,0.058-6.646,0.165c13.69-21.164,21.648-46.366,21.648-73.393
			c0-74.715-60.785-135.5-135.5-135.5s-135.5,60.785-135.5,135.5c0,27.027,7.959,52.229,21.649,73.393
			c-2.204-0.107-4.421-0.165-6.651-0.165C60.785,224.865,0,285.65,0,360.365c0,74.714,60.785,135.498,135.5,135.498
			c52.417,0,97.974-29.919,120.5-73.574c22.526,43.655,68.084,73.574,120.5,73.574c74.715,0,135.5-60.784,135.5-135.498
			C512,285.65,451.214,224.865,376.5,224.865z M256.002,46.136c58.172,0,105.5,47.327,105.5,105.5
			c0,58.173-47.327,105.5-105.5,105.5c-58.173,0-105.5-47.327-105.5-105.5C150.502,93.464,197.829,46.136,256.002,46.136z
			 M135.5,465.863c-58.173,0-105.5-47.326-105.5-105.498c0-58.173,47.327-105.5,105.5-105.5c58.173,0,105.5,47.327,105.5,105.5
			C241,418.537,193.673,465.863,135.5,465.863z M256,298.44c-2.032-3.939-4.253-7.765-6.648-11.468
			c2.204,0.107,4.421,0.165,6.651,0.165c2.228-0.001,4.443-0.058,6.645-0.165C260.253,290.675,258.032,294.501,256,298.44z
			 M376.5,465.863c-58.173,0-105.5-47.326-105.5-105.498c0-58.173,47.327-105.5,105.5-105.5c58.173,0,105.5,47.327,105.5,105.5
			C482,418.537,434.672,465.863,376.5,465.863z"/>
	</g>
</g>
<g>
	<g>
		<path d="M159.601,360.105c-8.284,0-15,6.716-15,15c0,5.018-4.083,9.1-9.101,9.1s-9.1-4.082-9.1-9.1c0-8.284-6.716-15-15-15
			s-15,6.716-15,15c0,21.56,17.54,39.1,39.1,39.1s39.101-17.54,39.101-39.1C174.601,366.821,167.885,360.105,159.601,360.105z"/>
	</g>
</g>
<g>
	<g>
		<path d="M400.599,360.105c-8.284,0-15,6.716-15,15c0,5.018-4.082,9.1-9.1,9.1s-9.1-4.082-9.1-9.1c0-8.284-6.716-15-15-15
			s-15,6.716-15,15c0,21.56,17.54,39.1,39.1,39.1s39.1-17.54,39.1-39.1C415.599,366.821,408.883,360.105,400.599,360.105z"/>
	</g>
</g>
<g>
	<g>
		<path d="M280.101,151.376c-8.284,0-15,6.716-15,15c0,5.018-4.082,9.1-9.099,9.1c-5.018,0-9.102-4.082-9.102-9.1
			c0-8.284-6.716-15-15-15s-15,6.716-15,15c0,21.56,17.541,39.1,39.102,39.1c21.559,0,39.099-17.54,39.099-39.1
			C295.101,158.092,288.385,151.376,280.101,151.376z"/>
	</g>
</g>
<g>
	<g>
		<circle cx="212.67" cy="122.98" r="14.985"/>
	</g>
</g>
<g>
	<g>
		<circle cx="299.33" cy="122.98" r="14.985"/>
	</g>
</g>
<g>
	<g>
		<circle cx="92.03" cy="327.75" r="14.985"/>
	</g>
</g>
<g>
	<g>
		<circle cx="178.7" cy="327.75" r="14.985"/>
	</g>
</g>
<g>
	<g>
		<circle cx="333.17" cy="327.75" r="14.985"/>
	</g>
</g>
<g>
	<g>
		<circle cx="419.83" cy="327.75" r="14.985"/>
	</g>
</g>
<g>
</g>
<g>
</g>
<g>
</g>
<g>
</g>
<g>
</g>
<g>
</g>
<g>
</g>
<g>
</g>
<g>
</g>
<g>
</g>
<g>
</g>
<g>
</g>
<g>
</g>
<g>
</g>
<g>
</g>
</svg>
