<svg id="Capa_1" enable-background="new 0 0 512 512" height="512" viewBox="0 0 512 512" width="512" xmlns="http://www.w3.org/2000/svg"><g><g><path d="m256 512c-68.38 0-132.667-26.629-181.02-74.98-48.351-48.353-74.98-112.64-74.98-181.02s26.629-132.667 74.98-181.02c48.353-48.351 112.64-74.98 181.02-74.98s132.667 26.629 181.02 74.98c48.351 48.353 74.98 112.64 74.98 181.02s-26.629 132.667-74.98 181.02c-48.353 48.351-112.64 74.98-181.02 74.98zm0-482c-60.367 0-117.12 23.508-159.806 66.194s-66.194 99.439-66.194 159.806 23.508 117.12 66.194 159.806 99.439 66.194 159.806 66.194 117.12-23.508 159.806-66.194 66.194-99.439 66.194-159.806-23.508-117.12-66.194-159.806-99.439-66.194-159.806-66.194z"/></g><g><path d="m356.482 378.338h-30c0-22.656-18.433-41.089-41.089-41.089h-58.788c-22.656 0-41.089 18.433-41.089 41.089h-30c0-39.198 31.891-71.089 71.089-71.089h58.788c39.199 0 71.089 31.891 71.089 71.089z"/></g><g><g><path d="m192.498 261.6h-70.639v-30h58.212l24.818-24.819 21.213 21.215z"/></g><g><path d="m390.141 261.6h-70.639l-33.604-33.604 21.213-21.215 24.818 24.819h58.212z"/></g></g></g></svg>