<svg id="Layer_1" enable-background="new 0 0 509.974 509.974" height="512" viewBox="0 0 509.974 509.974" width="512" xmlns="http://www.w3.org/2000/svg"><g><path d="m507.12 155.895-97.233-134.156c-2.821-3.893-7.338-6.197-12.146-6.197s-9.324 2.304-12.146 6.197l-97.233 134.156c-3.309 4.564-3.778 10.599-1.216 15.62s7.724 8.183 13.361 8.183h35.018v299.735c0 3.982 1.584 7.801 4.401 10.615 2.813 2.809 6.624 4.385 10.599 4.385h.023l90.733-.141c8.275-.013 14.977-6.725 14.977-15v-299.594h38.715c5.638 0 10.799-3.161 13.361-8.182 2.564-5.022 2.094-11.056-1.214-15.621z"/><path d="m273.497 211.416h-90.734c-8.284 0-15 6.716-15 15v253.017c0 3.982 1.583 7.801 4.402 10.615 2.813 2.808 6.625 4.385 10.598 4.385h.023l90.734-.142c8.275-.013 14.976-6.725 14.976-15v-252.875c.001-8.284-6.714-15-14.999-15z"/><path d="m105.734 287.416h-90.734c-8.284 0-15 6.716-15 15v177.017c0 3.982 1.583 7.801 4.402 10.615 2.813 2.809 6.624 4.385 10.598 4.385h.023l90.734-.142c8.275-.013 14.977-6.725 14.977-15v-176.875c0-8.284-6.716-15-15-15z"/></g></svg>