<svg height="512" viewBox="0 0 32 32" width="512" xmlns="http://www.w3.org/2000/svg"><g id="Layer_2" data-name="Layer 2"><path d="m1 29h30v2h-30z"/><path d="m4 26a2.99 2.99 0 0 0 2.189-5.037l5.119-8.052a2.837 2.837 0 0 0 1.977-.212l4.015 4.016a2.951 2.951 0 0 0 -.3 1.285 3 3 0 0 0 6 0 2.972 2.972 0 0 0 -.7-1.908l5.2-9.142a3.023 3.023 0 1 0 -1.746-.976l-5.176 9.085a3.015 3.015 0 0 0 -.578-.059 2.951 2.951 0 0 0 -1.285.3l-4.015-4.015a2.951 2.951 0 0 0 .3-1.285 3 3 0 0 0 -6 0 2.968 2.968 0 0 0 .632 1.82l-5.227 8.221a3 3 0 0 0 -.405-.041 3 3 0 0 0 0 6zm16-7a1 1 0 1 1 1-1 1 1 0 0 1 -1 1zm8-16a1 1 0 1 1 -1 1 1 1 0 0 1 1-1zm-16 6a1 1 0 1 1 -1 1 1 1 0 0 1 1-1zm-8 13a1 1 0 1 1 -1 1 1 1 0 0 1 1-1z"/></g></svg>