<svg id="Layer_1" enable-background="new 0 0 480 480" height="512" viewBox="0 0 480 480" width="512" xmlns="http://www.w3.org/2000/svg"><path d="m472 46.499v301c0 13.25-10.75 24-24 24h-416c-13.25 0-24-10.75-24-24v-301c0-13.25 10.75-24 24-24h416c13.25 0 24 10.75 24 24z" fill="#d6f4fc"/><path d="m472 46.499c0 14.35-11.631 26-26 26h-150.5c-131.168 0-237.5 106.332-237.5 237.5v61.5h-26c-13.255 0-24-10.745-24-24v-301c0-13.255 10.745-24 24-24h416c13.255 0 24 10.745 24 24z" fill="#e8f8fc"/><path d="m8 315.679v31.82c0 13.25 10.75 24 24 24h180v70.93c18.374-1.23 37.077-1.254 56 .01v-70.94h180c13.25 0 24-10.75 24-24v-31.82z" fill="#42434d"/><path d="m212 371.499h56v30h-56z" fill="#2c2c33"/><path d="m58 315.679v29.82c0 14.359-11.641 26-26 26-13.233 0-24-10.723-24-24v-31.82z" fill="#585966"/><path d="m480 46.499v301c0 17.645-14.355 32-32 32h-172v29c0 4.418-3.582 8-8 8s-8-3.582-8-8v-29h-40v29c0 4.418-3.582 8-8 8s-8-3.582-8-8v-29h-172c-17.645 0-32-14.355-32-32v-31.815c0-4.418 3.582-8 8-8h408c4.418 0 8 3.582 8 8s-3.582 8-8 8h-400v23.815c0 8.822 7.178 16 16 16h416c8.822 0 16-7.178 16-16v-301c0-8.822-7.178-16-16-16h-416c-8.822 0-16 7.178-16 16v215.333c0 4.418-3.582 8-8 8s-8-3.582-8-8v-215.333c0-17.645 14.355-32 32-32h416c17.645 0 32 14.356 32 32zm-125.623 403.361c-70.193-21.838-158.708-21.792-228.754 0-4.219 1.313-6.574 5.796-5.262 10.016 1.313 4.219 5.797 6.572 10.016 5.262 66.691-20.747 151.89-20.956 219.246 0 4.228 1.314 8.705-1.051 10.016-5.262 1.312-4.219-1.043-8.703-5.262-10.016zm-20.377-204.861c0 4.418 3.582 8 8 8 25.791 0 24.321.231 26.562-.609.102 0 2.184-.855 3.587-2.942 1.802-2.883 1.352-2.155 1.352-27.949 0-4.418-3.582-8-8-8s-8 3.582-8 8v4.187l-41.343-41.344c-3.125-3.123-8.189-3.123-11.314 0l-18.344 18.344-68.843-68.844c-3.125-3.123-8.189-3.123-11.314 0l-37.343 37.344-48.343-48.344c-3.125-3.123-8.189-3.123-11.314 0-3.124 3.125-3.124 8.189 0 11.314l54 54c3.125 3.123 8.189 3.123 11.314 0l37.343-37.343 68.843 68.844c3.125 3.123 8.189 3.123 11.314 0l18.343-18.344 35.686 35.687h-4.186c-4.418-.001-8 3.581-8 7.999z"/></svg>