<svg id="Layer_1" enable-background="new 0 0 512 512" height="512" viewBox="0 0 512 512" width="512" xmlns="http://www.w3.org/2000/svg"><g><path d="m509.146 156.527-97.643-134.723c-2.821-3.893-7.338-6.197-12.146-6.197s-9.324 2.305-12.146 6.197l-97.644 134.723c-3.309 4.564-3.778 10.599-1.216 15.62 2.563 5.022 7.724 8.183 13.361 8.183h35.229v301.063c0 3.982 1.584 7.801 4.401 10.615 2.813 2.809 6.625 4.385 10.599 4.385h.023l91.117-.142c8.275-.013 14.977-6.725 14.977-15v-300.921h38.942c5.638 0 10.799-3.161 13.361-8.182 2.563-5.022 2.093-11.056-1.215-15.621zm-66.086-6.197c-8.284 0-15 6.716-15 15v300.945l-61.117.095v-301.04c0-8.284-6.716-15-15-15h-20.831l68.246-94.163 68.246 94.163z"/><path d="m274.588 212.309h-91.117c-8.284 0-15 6.716-15 15v254.085c0 3.982 1.583 7.801 4.402 10.615 2.813 2.808 6.624 4.385 10.598 4.385h.024l91.117-.143c8.275-.013 14.977-6.725 14.977-15v-253.942c-.001-8.285-6.717-15-15.001-15zm-15 253.965-61.117.096v-224.061h61.117z"/><path d="m106.117 288.629h-91.117c-8.284 0-15 6.716-15 15v177.764c0 3.982 1.583 7.801 4.402 10.615 2.813 2.809 6.624 4.385 10.598 4.385h.023l91.117-.143c8.275-.013 14.977-6.725 14.977-15v-177.621c0-8.284-6.716-15-15-15zm-15 177.645-61.117.096v-147.741h61.117z"/></g></svg>