<svg height="480pt" viewBox="0 0 480 480" width="480pt" xmlns="http://www.w3.org/2000/svg"><path d="m440 8h-400c-17.671875 0-32 14.328125-32 32v400c0 17.671875 14.328125 32 32 32h400c17.671875 0 32-14.328125 32-32v-400c0-17.671875-14.328125-32-32-32zm-304 416h-80v-240h80zm144 0h-80v-368h80zm144 0h-80v-160h80zm0 0" fill="#f1f2f2"/><path d="m56 184h80v240h-80zm0 0" fill="#ffcd00"/><path d="m200 56h80v368h-80zm0 0" fill="#ff3051"/><path d="m344 264h80v160h-80zm0 0" fill="#5eac24"/><path d="m440 0h-400c-22.082031.0273438-39.9726562 17.917969-40 40v400c.0273438 22.082031 17.917969 39.972656 40 40h400c22.082031-.027344 39.972656-17.917969 40-40v-400c-.027344-22.082031-17.917969-39.9726562-40-40zm24 440c0 13.253906-10.746094 24-24 24h-400c-13.253906 0-24-10.746094-24-24v-400c0-13.253906 10.746094-24 24-24h400c13.253906 0 24 10.746094 24 24zm0 0"/><path d="m136 176h-80c-4.417969 0-8 3.582031-8 8v240c0 4.417969 3.582031 8 8 8h80c4.417969 0 8-3.582031 8-8v-240c0-4.417969-3.582031-8-8-8zm-8 240h-64v-224h64zm0 0"/><path d="m280 48h-80c-4.417969 0-8 3.582031-8 8v368c0 4.417969 3.582031 8 8 8h80c4.417969 0 8-3.582031 8-8v-368c0-4.417969-3.582031-8-8-8zm-8 368h-64v-352h64zm0 0"/><path d="m424 256h-80c-4.417969 0-8 3.582031-8 8v160c0 4.417969 3.582031 8 8 8h80c4.417969 0 8-3.582031 8-8v-160c0-4.417969-3.582031-8-8-8zm-8 160h-64v-144h64zm0 0"/></svg>