<svg id="Layer_1" enable-background="new 0 0 480 480" height="512" viewBox="0 0 480 480" width="512" xmlns="http://www.w3.org/2000/svg"><path d="m448 350.5h-48c8.84 0 16-7.16 16-16v-259c0-8.84-7.16-16-16-16h-80c-8.84 0-16 7.16-16 16v39c0-8.84-7.16-16-16-16h-48c-8.84 0-16 7.16-16 16v220c0 8.84 7.16 16 16 16h-208c-13.25 0-24 10.75-24 24v22c0 13.25 10.75 24 24 24h416c13.25 0 24-10.75 24-24v-22c0-13.25-10.75-24-24-24zm-160 0c8.84 0 16-7.16 16-16 0 8.84 7.16 16 16 16z" fill="#ffaa64"/><path d="m416 75.5v259c0 8.84-7.16 16-16 16h-80c-8.84 0-16-7.16-16-16 0 8.84-7.16 16-16 16h-48c-8.84 0-16-7.16-16-16v-220c0-8.84 7.16-16 16-16h48c8.84 0 16 7.16 16 16v-39c0-8.84 7.16-16 16-16h80c8.84 0 16 7.16 16 16z" fill="#d6f4fc"/><path d="m416 75.5v259c0 8.84-7.16 16-16 16h-80c-8.84 0-16-7.16-16-16 0-14.105 0-248.823 0-259 0-8.84 7.16-16 16-16h80c8.84 0 16 7.16 16 16z" fill="#fe4f60"/><path d="m221.64 152.24c-48.73 84.391-62.049 107.479-110 190.52-4.43 7.692-14.249 10.269-21.86 5.86l-41.56-24c-7.66-4.42-10.28-14.2-5.86-21.86 47.95-83.039 61.458-106.456 110-190.52 4.42-7.66 14.2-10.28 21.86-5.86l41.56 24c7.693 4.43 10.269 14.25 5.86 21.86z" fill="#befa91"/><g><path d="m360 278.5c-4.418 0-8-3.582-8-8v-132c0-4.418 3.582-8 8-8s8 3.582 8 8v132c0 4.418-3.582 8-8 8z" fill="#fff"/></g><path d="m60.998 187.501h142.004v79.998h-142.004z" fill="#d6f4fc" transform="matrix(.5 -.866 .866 .5 -131.021 228.069)"/><path d="m206.838 146.288-20.618-11.908c-7.66-4.42-17.44-1.8-21.86 5.86-54.018 93.549-69.164 119.807-100.939 174.822-7.496 12.979-27.723 3.462-22.002-10.391.578-1.4-6.608 11.14 110.942-192.431 4.42-7.66 14.2-10.28 21.86-5.86l41.56 24c11.17 6.433 1.263 21.802-8.943 15.908z" fill="#d0ffad"/><path d="m153.99 158.21c-12.169 21.059.246-.44-71.01 122.98l-21.12-12.2 71-122.98z" fill="#e8f8fc"/><path d="m287.887 122.5h-23.887c-8.837 0-16 7.163-16 16v195.887c0 15.25-22.969 16.391-23.965 1.174-.054-.823-.035-221.885-.035-221.061 0-8.837 7.163-16 16-16h48c16.339 0 15.468 24-.113 24z" fill="#e8f8fc"/><path d="m406.539 60.893c14.592 6.543 9.431 28.607-6.561 28.607h-49.978c-8.837 0-16 7.163-16 16v228.979c0 15.992-22.064 21.153-28.607 6.561-.895-1.996-1.393-4.21-1.393-6.539v-259c0-8.837 7.163-16 16-16 86.862-.001 82.257-.528 86.539 1.392z" fill="#ff6d7a"/><path d="m450.991 375.5h-393.991c-13.255 0-24 10.745-24 24 0 15.278-25 18.755-25-3v-22c0-13.255 10.745-24 24-24 445.141 0 417.792-.452 422.621.927 13.579 3.879 10.492 24.073-3.63 24.073z" fill="#ffbd7b"/><path d="m472 366.5c-4.418 0-8 3.582-8 8v22c0 8.822-7.178 16-16 16h-416c-8.822 0-16-7.178-16-16v-22c0-8.822 7.178-16 16-16h391c4.418 0 8-3.582 8-8s-3.582-8-8-8c-4.819 0-78.227 0-103 0-4.411 0-8-3.589-8-8 0-14.105 0-248.823 0-259 0-4.411 3.589-8 8-8h80c4.411 0 8 3.589 8 8v233.174c0 4.418 3.582 8 8 8s8-3.582 8-8v-233.174c0-13.234-10.767-24-24-24h-80c-13.233 0-24 10.766-24 24v259c0 4.411-3.589 8-8 8h-48c-4.411 0-8-3.589-8-8v-220c0-4.411 3.589-8 8-8h28.5c4.418 0 8-3.582 8-8s-3.582-8-8-8h-28.5c-13.234 0-24 10.766-24 24v3.768l-37.784-21.815c-11.487-6.633-26.152-2.704-32.785 8.785l-19.5 33.775c-2.209 3.826-.898 8.719 2.928 10.928l40.703 23.5c3.824 2.208 8.717.9 10.928-2.928 2.209-3.826.898-8.719-2.928-10.928l-33.775-19.5 15.5-26.847c2.215-3.836 7.107-5.135 10.928-2.928l41.569 24c3.82 2.206 5.134 7.108 2.928 10.928l-110 190.525c-2.21 3.828-7.099 5.14-10.928 2.928l-41.569-24c-3.82-2.206-5.134-7.108-2.928-10.928l15.5-26.847 33.775 19.5c3.824 2.208 8.717.9 10.928-2.928 2.209-3.826.898-8.719-2.928-10.928l-33.775-19.5 46.5-80.541c2.209-3.826.898-8.719-2.928-10.928-3.826-2.21-8.719-.898-10.928 2.928-9.505 16.463-69.129 119.736-70 121.244-6.616 11.46-2.676 26.167 8.785 32.784l24.166 13.953h-36.382c-17.645 0-32 14.355-32 32v22c0 17.645 14.355 32 32 32h416c17.645 0 32-14.355 32-32v-22c0-4.418-3.582-8-8-8zm-256-191.492c0 174.048-.572 161.999 1.376 167.492h-98.078zm144-44.508c4.418 0 8 3.582 8 8v132c0 4.418-3.582 8-8 8s-8-3.582-8-8v-132c0-4.418 3.582-8 8-8z"/></svg>