<svg id="Capa_1" enable-background="new 0 0 510 510" height="512" viewBox="0 0 510 510" width="512" xmlns="http://www.w3.org/2000/svg"><g><path d="m0 0h174v150h-174z"/><path d="m54.5 390.45-54.5 13.41v106.14h174v-134.92l-51.98 31.99z"/><path d="m0 372.96 54.5-13.41 62.49 15.38 57.01-35.08v-155.85h-174zm87-132.96c17.09 0 31 13.91 31 31s-13.91 31-31 31-31-13.91-31-31 13.91-31 31-31z"/><path d="m208 336h302v174h-302z"/><circle cx="359" cy="143" r="25"/><path d="m208 0v302h72v-60.96c0-26.96 14.68-50.55 36.47-63.21-29.199-35.533-3.983-89.83 42.53-89.83 46.547 0 71.704 54.327 42.53 89.83 21.79 12.66 36.47 36.25 36.47 63.21v60.96h72v-302z"/><path d="m310 241.04v60.96h98v-60.96c0-23.73-19.31-43.04-43.04-43.04h-11.92c-23.73 0-43.04 19.31-43.04 43.04z"/></g></svg>