<?xml version="1.0" encoding="iso-8859-1"?>
<!-- Generator: Adobe Illustrator 19.0.0, SVG Export Plug-In . SVG Version: 6.00 Build 0)  -->
<svg version="1.1" id="Layer_1" xmlns="http://www.w3.org/2000/svg" xmlns:xlink="http://www.w3.org/1999/xlink" x="0px" y="0px"
	 viewBox="0 0 512 512" style="enable-background:new 0 0 512 512;" xml:space="preserve">
<g>
	<g>
		<path d="M493.177,69.02H267.294V442.98h225.882c10.396,0,18.823-8.507,18.823-18.903V87.922
			C512,77.527,503.572,69.02,493.177,69.02z M439.216,347.608H338.824c-8.316,0-15.059-6.743-15.059-15.059
			c0-8.316,6.743-15.059,15.059-15.059h100.392c8.316,0,15.059,6.743,15.059,15.059
			C454.275,340.865,447.532,347.608,439.216,347.608z M439.216,274.824H338.824c-8.316,0-15.059-6.743-15.059-15.059
			c0-8.316,6.743-15.059,15.059-15.059h100.392c8.316,0,15.059,6.743,15.059,15.059
			C454.275,268.081,447.532,274.824,439.216,274.824z M439.216,202.039H338.824c-8.316,0-15.059-6.743-15.059-15.059
			s6.743-15.059,15.059-15.059h100.392c8.316,0,15.059,6.743,15.059,15.059S447.532,202.039,439.216,202.039z"/>
	</g>
</g>
<g>
	<g>
		<path d="M18.824,69.02C8.428,69.02,0,77.527,0,87.922v336.156c0,10.396,8.428,18.903,18.824,18.903h218.353V69.02H18.824z
			 M171.922,347.608H71.529c-8.316,0-15.059-6.743-15.059-15.059c0-8.316,6.743-15.059,15.059-15.059h100.392
			c8.316,0,15.059,6.743,15.059,15.059C186.98,340.865,180.238,347.608,171.922,347.608z M171.922,274.824H71.529
			c-8.316,0-15.059-6.743-15.059-15.059c0-8.316,6.743-15.059,15.059-15.059h100.392c8.316,0,15.059,6.743,15.059,15.059
			C186.98,268.081,180.238,274.824,171.922,274.824z M171.922,202.039H71.529c-8.316,0-15.059-6.743-15.059-15.059
			s6.743-15.059,15.059-15.059h100.392c8.316,0,15.059,6.743,15.059,15.059S180.238,202.039,171.922,202.039z"/>
	</g>
</g>
<g>
</g>
<g>
</g>
<g>
</g>
<g>
</g>
<g>
</g>
<g>
</g>
<g>
</g>
<g>
</g>
<g>
</g>
<g>
</g>
<g>
</g>
<g>
</g>
<g>
</g>
<g>
</g>
<g>
</g>
</svg>
