<svg id="Capa_1" enable-background="new 0 0 512 512" height="512" viewBox="0 0 512 512" width="512" xmlns="http://www.w3.org/2000/svg"><g><g><g><g><g><path d="m394.451 456.277h-347.73c-5.373 0-9.729-4.356-9.729-9.729v-429.319c0-5.373 4.356-9.729 9.729-9.729h347.73c5.373 0 9.729 4.356 9.729 9.729v429.319c0 5.373-4.356 9.729-9.729 9.729z" fill="#fbfbfb"/></g></g></g><g><g><g><path d="m75.553 379.038v-323.249c0-5.373 4.356-9.729 9.729-9.729h270.609c5.373 0 9.729 4.356 9.729 9.729v323.248c0 5.373-4.356 9.729-9.729 9.729h-270.609c-5.374.001-9.729-4.355-9.729-9.728z" fill="#9ec8fc"/></g></g></g><g><g><g><path d="m393.789 7.5h-29.338c5.373 0 9.729 4.356 9.729 9.729v429.319c0 5.373-4.356 9.729-9.729 9.729h29.338c5.373 0 9.729-4.356 9.729-9.729v-429.319c0-5.373-4.356-9.729-9.729-9.729z" fill="#e6e6e6"/></g></g></g><g><g><g><path d="m355.891 46.06h-30c5.373 0 9.729 4.356 9.729 9.729v323.248c0 5.374-4.356 9.729-9.729 9.729h30c5.373 0 9.729-4.355 9.729-9.729v-323.248c0-5.373-4.356-9.729-9.729-9.729z" fill="#80b6fc"/></g></g></g><g><g><g><path d="m365.62 340.803v-45.974h-36.486c-9.482 0-18.361-4.651-23.761-12.445l-9.944-14.356c-10.956-15.817-34.019-16.714-46.171-1.796-11.849 14.547-34.202 14.125-45.493-.859l-43.236-57.37c-11.415-15.147-34.079-15.38-45.804-.471l-39.172 49.813v151.55c0 5.452 2.048 9.872 7.5 9.872h228.258z" fill="#b1f8d3"/></g></g></g><g><g><g><path d="m316.445 388.767h39.303c5.452 0 9.872-4.42 9.872-9.872v-38.091" fill="#b1f8d3"/></g></g></g><g><g><g><circle cx="240.353" cy="139.929" fill="#faf0b0" r="40.63"/></g></g></g><g><g><g><circle cx="393.159" cy="422.651" fill="#ffbee6" r="81.849"/></g></g></g><g><g><g><path d="m335.62 294.829v69.618l30-23.644v-45.974z" fill="#88f2a9"/></g></g></g><g><g><g><path d="m240.353 99.299c-5.3 0-10.358 1.026-15 2.872 15.012 5.97 25.63 20.619 25.63 37.758s-10.618 31.789-25.63 37.758c4.642 1.846 9.7 2.872 15 2.872 22.439 0 40.63-18.19 40.63-40.629 0-22.44-18.191-40.631-40.63-40.631z" fill="#f8e883"/></g></g></g><g><g><g><path d="m393.159 340.803c-5.126 0-10.135.494-15 1.396 38.036 7.049 66.849 40.375 66.849 80.453 0 40.077-28.813 73.404-66.849 80.453 4.865.901 9.874 1.396 15 1.396 45.204 0 81.849-36.645 81.849-81.848 0-45.205-36.645-81.85-81.849-81.85z" fill="#eaacde"/></g></g></g><g><g><g><path d="m410.374 393.972c-7.503 0-14.008 4.273-17.215 10.518-3.207-6.245-9.712-10.518-17.215-10.518-10.682 0-19.341 8.659-19.341 19.341 0 4.342 1.507 8.294 3.846 11.577 5.824 8.172 32.71 26.442 32.71 26.442s26.642-18.542 32.71-26.442c2.456-3.197 3.846-7.235 3.846-11.577 0-10.682-8.659-19.341-19.341-19.341z" fill="#e592d0"/></g></g></g></g><g><path d="m192.224 139.929c0 26.539 21.591 48.129 48.129 48.129 26.539 0 48.13-21.591 48.13-48.129 0-26.539-21.591-48.13-48.13-48.13s-48.129 21.591-48.129 48.13zm81.259 0c0 18.268-14.862 33.129-33.13 33.129s-33.129-14.862-33.129-33.129c0-18.268 14.862-33.13 33.129-33.13 18.268 0 33.13 14.862 33.13 33.13z"/><path d="m411.68 335.239v-318.01c0-9.5-7.729-17.229-17.229-17.229h-347.73c-9.5 0-17.229 7.729-17.229 17.229v170.185c0 4.142 3.358 7.5 7.5 7.5s7.5-3.358 7.5-7.5v-170.185c0-1.229 1-2.229 2.229-2.229h347.73c1.229 0 2.229 1 2.229 2.229v316.15c-1.169-.045-2.341-.076-3.521-.076-6.888 0-13.595.785-20.04 2.267v-152.591c0-4.142-3.358-7.5-7.5-7.5s-7.5 3.358-7.5 7.5v104.35h-28.986c-7.02 0-13.598-3.445-17.595-9.216l-9.944-14.356c-6.578-9.496-16.97-15.199-28.512-15.648-11.532-.449-22.345 4.429-29.64 13.385-4.183 5.134-10.369 7.995-16.999 7.883-6.621-.125-12.705-3.23-16.69-8.519l-43.236-57.37c-6.853-9.093-17.313-14.375-28.698-14.493-11.416-.151-21.953 4.949-28.991 13.899l-25.777 32.779v-179.883c0-1.229 1-2.229 2.229-2.229h270.609c1.229 0 2.229 1 2.229 2.229v97.189c0 4.142 3.358 7.5 7.5 7.5s7.5-3.358 7.5-7.5v-97.189c0-9.5-7.729-17.229-17.229-17.229h-270.607c-9.5 0-17.229 7.729-17.229 17.229v353.249c0 9.5 7.729 17.229 17.229 17.229h218.608c.312 7.799 1.626 15.345 3.821 22.51h-260.99c-1.229 0-2.229-1-2.229-2.229v-229.135c0-4.142-3.358-7.5-7.5-7.5s-7.5 3.358-7.5 7.5v229.134c0 9.5 7.729 17.229 17.229 17.229h267.134c14.906 28.627 44.858 48.223 79.304 48.223 49.267 0 89.348-40.082 89.348-89.348 0-42.918-30.418-78.861-70.827-87.413zm-328.627 73.799v-149.156c.163-.171.322-.351.471-.541l37.097-47.174c4.139-5.262 10.376-8.203 17.045-8.172 6.694.069 12.844 3.175 16.873 8.521l43.236 57.37c6.779 8.995 17.125 14.276 28.386 14.488 11.27.204 21.799-4.673 28.912-13.406 4.289-5.266 10.635-8.132 17.427-7.87 6.786.264 12.896 3.617 16.764 9.2l9.944 14.356c6.799 9.815 17.986 15.675 29.926 15.675h28.986v38.136c-28.561 12.223-49.513 38.911-53.587 70.802h-219.251c-1.229 0-2.229-1-2.229-2.229zm310.106 87.962c-40.996 0-74.349-33.353-74.349-74.348 0-40.996 33.353-74.349 74.349-74.349s74.348 33.353 74.348 74.349c0 40.995-33.352 74.348-74.348 74.348z"/><path d="m410.375 386.472c-6.433 0-12.479 2.263-17.215 6.227-4.737-3.964-10.783-6.227-17.216-6.227-14.8 0-26.84 12.041-26.84 26.841 0 5.613 1.812 11.122 5.239 15.931 6.286 8.82 29.927 25.115 34.602 28.292 1.273.865 2.744 1.297 4.215 1.297 1.499 0 2.998-.448 4.284-1.344 2.825-1.966 27.787-19.454 34.374-28.029 3.481-4.533 5.398-10.267 5.398-16.146-.001-14.802-12.041-26.842-26.841-26.842zm9.546 33.849c-3.389 4.412-16.826 14.699-26.808 21.857-10.402-7.321-23.517-17.375-26.557-21.641-1.628-2.285-2.454-4.716-2.454-7.225 0-6.529 5.312-11.841 11.84-11.841 4.462 0 8.503 2.469 10.544 6.444 1.285 2.501 3.86 4.074 6.672 4.074s5.387-1.573 6.672-4.074c2.041-3.975 6.081-6.444 10.543-6.444 6.529 0 11.841 5.312 11.841 11.841.001 2.631-.792 5.055-2.293 7.009z"/></g></g></svg>