<?xml version="1.0" encoding="iso-8859-1"?>
<!-- Generator: Adobe Illustrator 19.0.0, SVG Export Plug-In . SVG Version: 6.00 Build 0)  -->
<svg version="1.1" id="Layer_1" xmlns="http://www.w3.org/2000/svg" xmlns:xlink="http://www.w3.org/1999/xlink" x="0px" y="0px"
	 viewBox="0 0 512 512" style="enable-background:new 0 0 512 512;" xml:space="preserve">
<g>
	<g>
		<path d="M493.177,69.02H18.824C8.428,69.02,0,77.447,0,87.843v336.314c0,10.396,8.428,18.824,18.824,18.824h474.353
			c10.396,0,18.823-8.428,18.823-18.824V87.843C512,77.447,503.572,69.02,493.177,69.02z M237.176,405.333H37.647V106.667h199.529
			V405.333z M474.353,405.333H274.824V106.667h199.529V405.333z"/>
	</g>
</g>
<g>
	<g>
		<path d="M424.157,164.392H323.765c-10.396,0-18.824,8.428-18.824,18.824c0,10.396,8.428,18.824,18.824,18.824h100.392
			c10.396,0,18.824-8.428,18.824-18.824C442.98,172.82,434.552,164.392,424.157,164.392z"/>
	</g>
</g>
<g>
	<g>
		<path d="M424.157,237.176H323.765c-10.396,0-18.824,8.428-18.824,18.824c0,10.396,8.428,18.824,18.824,18.824h100.392
			c10.396,0,18.824-8.428,18.824-18.824C442.98,245.604,434.552,237.176,424.157,237.176z"/>
	</g>
</g>
<g>
	<g>
		<path d="M424.157,309.961H323.765c-10.396,0-18.824,8.428-18.824,18.823c0,10.396,8.428,18.824,18.824,18.824h100.392
			c10.396,0,18.824-8.428,18.824-18.824C442.98,318.389,434.552,309.961,424.157,309.961z"/>
	</g>
</g>
<g>
	<g>
		<path d="M186.98,164.392H86.588c-10.396,0-18.824,8.428-18.824,18.824c0,10.396,8.428,18.824,18.824,18.824H186.98
			c10.396,0,18.824-8.428,18.824-18.824C205.804,172.82,197.376,164.392,186.98,164.392z"/>
	</g>
</g>
<g>
	<g>
		<path d="M186.98,237.176H86.588c-10.396,0-18.824,8.428-18.824,18.824c0,10.396,8.428,18.824,18.824,18.824H186.98
			c10.396,0,18.824-8.428,18.824-18.824C205.804,245.604,197.376,237.176,186.98,237.176z"/>
	</g>
</g>
<g>
	<g>
		<path d="M186.98,309.961H86.588c-10.396,0-18.824,8.428-18.824,18.823c0,10.396,8.428,18.824,18.824,18.824H186.98
			c10.396,0,18.824-8.428,18.824-18.824C205.804,318.389,197.376,309.961,186.98,309.961z"/>
	</g>
</g>
<g>
</g>
<g>
</g>
<g>
</g>
<g>
</g>
<g>
</g>
<g>
</g>
<g>
</g>
<g>
</g>
<g>
</g>
<g>
</g>
<g>
</g>
<g>
</g>
<g>
</g>
<g>
</g>
<g>
</g>
</svg>
