<svg id="Layer_1" enable-background="new 0 0 512 512" height="512" viewBox="0 0 512 512" width="512" xmlns="http://www.w3.org/2000/svg"><g id="XMLID_1229_"><g id="XMLID_146_"><path id="XMLID_966_" d="m488 385.4v-87.503c0-5.523-4.478-10-10-10h-109.517c-41.588 0-82.029 15.938-112.483 44.018-30.455-28.079-70.895-44.018-112.483-44.018h-109.517c-5.522 0-10 4.477-10 10v87.503c-13.883 4.281-24 17.229-24 32.497 0 18.748 15.252 34 34 34h172.794c4.649 22.909 24.945 40.206 49.206 40.206s44.557-17.297 49.206-40.206h172.794c18.748 0 34-15.252 34-34 0-15.269-10.117-28.217-24-32.497zm-20-77.503v28h-54.517c-5.522 0-10 4.477-10 10s4.478 10 10 10h54.517v28h-185.383c13.344-9.721 28.293-17.175 44.194-21.919 5.293-1.579 8.303-7.149 6.725-12.441-1.579-5.292-7.149-8.304-12.441-6.724-20.029 5.975-38.735 15.727-55.095 28.584v-21.399c27.144-26.802 64.265-42.101 102.483-42.101zm-424 48h99.517c30.903 0 61.09 10.002 85.864 28h-185.381zm99.517-48c38.218 0 75.339 15.299 102.483 42.101v21.41c-29.033-22.767-65.299-35.511-102.483-35.511h-99.517v-28zm334.483 124h-181.794c-5.522 0-10 4.477-10 10 0 16.656-13.551 30.206-30.206 30.206s-30.206-13.55-30.206-30.206c0-5.523-4.478-10-10-10h-181.794c-7.72 0-14-6.28-14-14s6.28-14 14-14h444c7.72 0 14 6.28 14 14s-6.28 14-14 14z"/><path id="XMLID_1145_" d="m379.658 105.903c23.572 0 42.75 19.178 42.75 42.75 0 5.523 4.478 10 10 10s10-4.477 10-10c0-23.572 19.178-42.75 42.75-42.75 5.522 0 10-4.477 10-10s-4.478-10-10-10c-23.572 0-42.75-19.178-42.75-42.75 0-5.523-4.478-10-10-10s-10 4.477-10 10c0 23.572-19.178 42.75-42.75 42.75-5.522 0-10 4.477-10 10s4.478 10 10 10zm52.75-28.797c4.857 7.521 11.275 13.939 18.797 18.797-7.521 4.857-13.939 11.275-18.797 18.797-4.857-7.521-11.275-13.939-18.797-18.797 7.522-4.858 13.94-11.276 18.797-18.797z"/><path id="XMLID_2233_" d="m92.25 193.147c23.572 0 42.75 19.178 42.75 42.75 0 5.523 4.478 10 10 10s10-4.477 10-10c0-23.572 19.178-42.75 42.75-42.75 5.522 0 10-4.477 10-10s-4.478-10-10-10c-23.572 0-42.75-19.178-42.75-42.75 0-5.523-4.478-10-10-10s-10 4.477-10 10c0 23.572-19.178 42.75-42.75 42.75-5.522 0-10 4.477-10 10s4.478 10 10 10zm52.75-28.797c4.857 7.521 11.275 13.939 18.797 18.797-7.521 4.857-13.939 11.275-18.797 18.797-4.857-7.521-11.275-13.939-18.797-18.797 7.522-4.857 13.94-11.275 18.797-18.797z"/><path id="XMLID_2234_" d="m235.667 121.897c5.522 0 10-4.477 10-10v-82c0-5.523-4.478-10-10-10s-10 4.477-10 10v82c0 5.523 4.478 10 10 10z"/><path id="XMLID_2235_" d="m308.333 159.563c-5.522 0-10 4.477-10 10v82c0 5.523 4.478 10 10 10s10-4.477 10-10v-82c0-5.522-4.478-10-10-10z"/><path id="XMLID_2236_" d="m308.33 121.9c2.64 0 5.21-1.07 7.069-2.93 1.87-1.86 2.931-4.44 2.931-7.07s-1.061-5.21-2.931-7.07c-1.859-1.87-4.43-2.93-7.069-2.93-2.63 0-5.21 1.06-7.07 2.93-1.86 1.86-2.93 4.43-2.93 7.07 0 2.63 1.069 5.21 2.93 7.07 1.86 1.86 4.44 2.93 7.07 2.93z"/><path id="XMLID_2237_" d="m368.479 355.9c2.63 0 5.21-1.07 7.07-2.93 1.87-1.87 2.93-4.44 2.93-7.07s-1.06-5.21-2.93-7.07c-1.86-1.87-4.44-2.93-7.07-2.93s-5.21 1.06-7.069 2.93c-1.86 1.86-2.931 4.44-2.931 7.07s1.07 5.2 2.931 7.07c1.86 1.86 4.44 2.93 7.069 2.93z"/></g></g></svg>