<svg id="Layer_1" height="512" viewBox="0 0 32 32" width="512" xmlns="http://www.w3.org/2000/svg" data-name="Layer 1"><path d="m30.12 4.32-1.4-1.41a3.018 3.018 0 0 0 -4.24 0l-11.48 11.49a.9536.9536 0 0 0 -.29.56l-.7 4.93a1.0116 1.0116 0 0 0 .28.85 1.0288 1.0288 0 0 0 .85.29l4.93-.71a1.06 1.06 0 0 0 .57-.28l11.48-11.49a2.9876 2.9876 0 0 0 0-4.23zm-12.66 14.07-3.28.47.47-3.28 9.13-9.14 2.81 2.81zm11.25-11.25-.7.7-2.81-2.81.7-.7a.9839.9839 0 0 1 1.4 0l1.41 1.4a.9959.9959 0 0 1 0 1.41z"/><path d="m30 12a1 1 0 0 0 -1 1v14a1.0013 1.0013 0 0 1 -1 1h-24a1.0013 1.0013 0 0 1 -1-1v-21a1.0013 1.0013 0 0 1 1-1h15a1 1 0 0 0 0-2h-15a3.0033 3.0033 0 0 0 -3 3v21a3.0033 3.0033 0 0 0 3 3h24a3.0033 3.0033 0 0 0 3-3v-14a1 1 0 0 0 -1-1z"/></svg>