<svg id="Layer_1" enable-background="new 0 0 511.333 511.333" height="512" viewBox="0 0 511.333 511.333" width="512" xmlns="http://www.w3.org/2000/svg"><path d="m174.342 378.698c-13.65 0-21.168-16.262-11.953-26.63l302.319-340.11c5.871-6.605 15.983-7.198 22.589-1.329 6.604 5.871 7.199 15.984 1.329 22.589l-302.319 340.11c-3.161 3.555-7.553 5.37-11.965 5.37z"/><path d="m443.411 2.145c-4.343 1.327 24.372-11.23-407.219 180.511-35.356 15.708-40.952 64.299-10.041 87.751l131.818 99.951v85.091c0 40.928 47.862 62.777 81.481 39.065.318-.225-1.713 1.3 41.269-31.081l49.785 37.75c28.984 21.98 70.903 6.49 79.127-29.469l94.466-412.954c8.313-36.338-25.976-67.317-60.686-56.615zm-1.235 35.161-269.953 303.699-126.733-96.097c-11.459-8.69-9.456-27.163 3.698-33.008 16.191-7.193 368.133-163.551 392.988-174.594zm-221.346 431.182c-12.239 8.442-30.86 1.922-30.86-13.039v-60.82l64.244 48.71zm157.609-3.908c-3.081 13.464-18.169 19.017-28.6 11.106l-152.04-115.287 275.283-309.694c-.152.88-93.355 408.246-94.643 413.875z"/></svg>