<?xml version="1.0"?>
<svg xmlns="http://www.w3.org/2000/svg" viewBox="0 0 64 64" width="512" height="512"><g id="store-shop"><path d="M57.28,13.9l-4.82-6A4.94,4.94,0,0,0,48.56,6H15.34a5,5,0,0,0-3.72,1.66l-5.44,6A12.37,12.37,0,0,0,3,22v8a2,2,0,0,0,2,2H8V54a6,6,0,0,0,6,6H50a6,6,0,0,0,6-6V32h2a2,2,0,0,0,2-2V21.65A12.4,12.4,0,0,0,57.28,13.9Zm-18.4,2.79a7.88,7.88,0,0,1,1.12,4V28H24V20.73a7.88,7.88,0,0,1,1.12-4l4-6.69h5.74ZM7,22a8.4,8.4,0,0,1,2.16-5.62l5.43-6a1,1,0,0,1,.75-.33h9.13l-2.78,4.63A11.8,11.8,0,0,0,20,20.73V28H7ZM25,56V47a4,4,0,0,1,4-4h6a4,4,0,0,1,4,4v9Zm27-2a2,2,0,0,1-2,2H43V47a8,8,0,0,0-8-8H29a8,8,0,0,0-8,8v9H14a2,2,0,0,1-2-2V32H52Zm4-26H44V20.73a11.8,11.8,0,0,0-1.69-6.1L39.53,10h9a1,1,0,0,1,.78.38l4.82,6A8.41,8.41,0,0,1,56,21.65Z"/></g></svg>
