<svg id="Layer_1" enable-background="new 0 0 468 468" height="512" viewBox="0 0 468 468" width="512" xmlns="http://www.w3.org/2000/svg"><g id="XMLID_6251_"><g><path d="m368.296 278.926h30.001v23.596h-30.001z"/></g><path d="m458.831 104.622-139.9-59.889c-4.904-2.102-10.555-1.436-14.84 1.742l-50.054 37.128-32.631-45.362c-3.574-4.969-9.808-7.266-15.75-5.809l-183.934 45.117c-9.812 2.408-14.523 14.135-9.055 22.664l35.311 55.078-44.158 48.526c-6.649 7.309-4.302 19.329 4.586 23.61l140.517 67.675c6.57 3.162 14.682 1.021 18.835-4.966l19.928-28.732v137.123l-105.87-43.944v-75.677h-30.001v85.691c0 6.062 3.65 11.529 9.249 13.853l135.851 56.387c3.158 1.39 6.969 1.51 10.241.473l180.61-56.396c6.264-1.956 10.53-7.757 10.53-14.318v-42.078h-30.001v31.047l-150.61 47.028v-143.459l26.261 33.724c3.869 4.968 10.626 7.008 16.6 5.007l159.082-53.291c8.25-2.763 12.481-12.324 8.951-20.296l-26.019-58.755 57.644-31.998c12.39-7.192 8.557-22.859-1.373-26.903zm-255.411 92.893-91.12-37.944 137.657-39.037 88.311 34.874zm-.455-133.533 23.12 32.139-152.651 43.289-24.186-37.724zm-52.561 198.536-110.854-53.389 31.25-34.342 108.978 45.38zm110.688 1.527-33.268-42.722 147.174-45.955 19.482 43.993zm121.121-123.537-100.846-39.826 33.677-24.98 103.839 44.451z"/></g></svg>