<svg id="Capa_1" enable-background="new 0 0 512 512" height="512" viewBox="0 0 512 512" width="512" xmlns="http://www.w3.org/2000/svg"><path d="m354.33 267.47h-218.364c-20.008 0-36.228-16.22-36.228-36.228v-155.82c0-20.008 16.22-36.228 36.228-36.228h218.364c20.008 0 36.228 16.22 36.228 36.228v155.82c0 20.008-16.22 36.228-36.228 36.228z" fill="#fea613"/><path d="m390.559 75.417v155.825c0 20.01-16.22 36.23-36.23 36.23h-23.964c20.01 0 36.23-16.22 36.23-36.23v-155.825c0-19.999-16.22-36.219-36.23-36.219h23.964c20.01 0 36.23 16.22 36.23 36.219z" fill="#fe9901"/><path d="m257.408 132.794h218.364c20.008 0 36.228 16.22 36.228 36.228v155.82c0 20.008-16.22 36.228-36.228 36.228h.967c-5.321 0-9.787 4.059-10.234 9.361-.573 6.797-.684 16.333 1.623 25.28 1.089 4.224-3.333 7.814-7.26 5.916-9.806-4.74-23.751-14.609-31.865-34.267-1.577-3.82-5.332-6.289-9.464-6.289h-162.131c-20.008 0-36.228-16.22-36.228-36.228v-155.82c0-20.01 16.22-36.229 36.228-36.229z" fill="#68ca44"/><path d="m511.998 169.02v155.825c0 20.01-16.22 36.23-36.23 36.23h.968c-5.314 0-9.784 4.057-10.227 9.351-.577 6.797-.69 16.333 1.617 25.283 1.092 4.222-3.326 7.817-7.26 5.922-5.201-2.523-11.575-6.477-17.62-12.585 1.174-1.195 1.761-2.935 1.287-4.809-2.317-8.939-2.204-18.475-1.627-25.272.443-5.304 4.912-9.361 10.237-9.361h-.968c20.01 0 36.23-16.22 36.23-36.23v-155.827c0-9.516-3.666-18.166-9.67-24.634 18.618 1.504 33.263 17.096 33.263 36.107z" fill="#4fc123"/><path d="m338.076 101.763h-185.857c-4.143 0-7.5-3.358-7.5-7.5s3.357-7.5 7.5-7.5h185.857c4.143 0 7.5 3.358 7.5 7.5s-3.357 7.5-7.5 7.5z" fill="#d87c03"/><path d="m197.579 135.377h-45.36c-4.143 0-7.5-3.358-7.5-7.5s3.357-7.5 7.5-7.5h45.36c4.143 0 7.5 3.358 7.5 7.5s-3.357 7.5-7.5 7.5z" fill="#d87c03"/><path d="m188.729 165.682h-36.51c-4.143 0-7.5-3.358-7.5-7.5s3.357-7.5 7.5-7.5h36.51c4.143 0 7.5 3.358 7.5 7.5s-3.358 7.5-7.5 7.5z" fill="#d87c03"/><g fill="#3aa30d"><path d="m459.519 188.3h-185.858c-4.143 0-7.5-3.358-7.5-7.5s3.357-7.5 7.5-7.5h185.857c4.143 0 7.5 3.358 7.5 7.5s-3.357 7.5-7.499 7.5z"/><path d="m459.519 221.914h-135.298c-4.143 0-7.5-3.358-7.5-7.5s3.357-7.5 7.5-7.5h135.298c4.143 0 7.5 3.358 7.5 7.5s-3.358 7.5-7.5 7.5z"/><path d="m459.519 255.169h-135.298c-4.143 0-7.5-3.358-7.5-7.5s3.357-7.5 7.5-7.5h135.298c4.143 0 7.5 3.358 7.5 7.5s-3.358 7.5-7.5 7.5z"/><path d="m459.519 288.425h-135.298c-4.143 0-7.5-3.358-7.5-7.5s3.357-7.5 7.5-7.5h135.298c4.143 0 7.5 3.358 7.5 7.5s-3.358 7.5-7.5 7.5z"/><path d="m407.038 319.088h-82.817c-4.143 0-7.5-3.358-7.5-7.5s3.357-7.5 7.5-7.5h82.817c4.143 0 7.5 3.358 7.5 7.5s-3.357 7.5-7.5 7.5z"/></g><path d="m254.592 203.452h-218.364c-20.008 0-36.228 16.22-36.228 36.228v155.82c0 20.008 16.22 36.228 36.228 36.228h-.968c5.321 0 9.787 4.059 10.234 9.361.573 6.797.684 16.333-1.623 25.28-1.089 4.224 3.333 7.814 7.26 5.916 9.806-4.74 23.751-14.609 31.865-34.267 1.577-3.82 5.332-6.289 9.464-6.289h162.132c20.008 0 36.228-16.22 36.228-36.228v-155.821c0-20.008-16.22-36.228-36.228-36.228z" fill="#f3eae6"/><path d="m290.82 239.672v155.825c0 20.01-16.22 36.23-36.23 36.23h-23.964c20.01 0 36.23-16.22 36.23-36.23v-155.825c0-19.999-16.22-36.219-36.23-36.219h23.964c20.01-.001 36.23 16.219 36.23 36.219z" fill="#e8dcd9"/><path d="m219.839 270.318c-14.684-20.414-43.473-23.66-62.716-5.792-4.732 4.394-7.702 9.09-9.467 12.602-.93 1.851-3.563 1.851-4.493 0-1.765-3.512-4.735-8.208-9.467-12.602-19.243-17.869-48.032-14.622-62.716 5.792-6.444 8.958-9.375 19.966-9.466 30.918-.182 21.956 10.579 40.623 26.836 55.166 12.311 11.014 24.188 16.265 38.373 24.708.665.396 10.26 5.655 15.435 8.583 2.021 1.144 4.482 1.144 6.503 0 5.174-2.928 14.77-8.188 15.435-8.583 14.185-8.443 26.062-13.694 38.373-24.708 16.256-14.543 27.018-33.21 26.836-55.166-.091-10.951-3.022-21.959-9.466-30.918z" fill="#fb2b3a"/><path d="m229.306 301.235c.185 21.958-10.577 40.622-26.839 55.167-12.305 11.012-24.186 16.262-38.372 24.708-.663.391-10.262 5.652-15.436 8.577-2.022 1.152-4.479 1.152-6.5 0-5.174-2.924-14.773-8.185-15.436-8.577-1.391-.826-2.772-1.631-4.12-2.403 1.674.467 3.489.272 5.044-.609 5.174-2.935 14.773-8.185 15.436-8.588 14.186-8.435 26.056-13.696 38.372-24.708 16.251-14.545 27.013-33.209 26.839-55.167-.098-10.946-3.022-21.958-9.468-30.915-1.294-1.794-2.685-3.446-4.174-4.968 9.772 2.065 18.806 7.696 25.187 16.566 6.445 8.959 9.38 19.971 9.467 30.917z" fill="#d6132b"/></svg>