<svg id="Capa_1" enable-background="new 0 0 512.021 512.021" height="512" viewBox="0 0 512.021 512.021" width="512" xmlns="http://www.w3.org/2000/svg"><g><g><g><g><path d="m431.623 431.771c96.178-96.179 96.981-251.616 2.408-348.784-96.566-99.216-253.969-100.854-352.489-3.577-79.315 78.314-94.755 196.608-46.353 290.507 3.225 6.257 3.915 13.518 2.093 20.318l-22.578 84.261c-3.737 13.945 9.024 26.705 22.969 22.969l84.261-22.578c6.802-1.823 14.065-1.129 20.325 2.097 93.446 48.164 211.048 33.103 289.364-45.213z" fill="#92e0c4"/></g></g></g><g><g><g><path d="m112.26 476.984c-6.26-3.227-13.522-3.92-20.325-2.097l-70.942 19.009c4.398 3.591 10.417 5.247 16.681 3.569l75.229-20.157c-.214-.11-.43-.214-.643-.324z" fill="#77d1b3"/></g></g></g><g><g><g><path d="m434.031 82.987c-52.716-54.162-123.561-79.241-193.06-75.027 59.494 3.601 117.924 28.652 163.061 75.028 94.573 97.168 93.77 252.605-2.408 348.784-44.678 44.678-102.142 68.758-160.612 72.269 68.461 4.124 138.3-19.957 190.612-72.269 96.178-96.18 96.981-251.617 2.407-348.785z" fill="#77d1b3"/></g></g></g><g><g><g><path d="m442.431 427.762c-1.763 0-3.532-.618-4.958-1.875-3.106-2.74-3.404-7.479-.664-10.586 40.091-45.456 61.396-103.964 59.99-164.747-1.41-60.985-25.61-118.637-68.143-162.336-44.646-45.87-104.205-71.854-167.706-73.166-63.418-1.304-123.869 22.099-170.227 65.916-3.011 2.846-7.757 2.712-10.603-.299-2.845-3.01-2.711-7.757.299-10.602 49.241-46.54 113.47-71.403 180.841-70.012 67.467 1.394 130.734 28.988 178.146 77.701 45.183 46.422 70.892 107.667 72.39 172.451 1.493 64.567-21.142 126.722-63.736 175.016-1.483 1.681-3.551 2.539-5.629 2.539z"/></g></g></g><g><g><g><path d="m255.774 512.021c-40.659 0-80.588-9.628-116.951-28.37-4.548-2.344-9.856-2.884-14.948-1.52l-84.261 22.578c-9.17 2.456-18.648-.083-25.36-6.795-6.711-6.711-9.251-16.191-6.795-25.359l22.578-84.261c1.365-5.092.827-10.398-1.515-14.94-22.733-44.103-32.081-93.641-27.032-143.262 5.115-50.281 24.76-97.431 56.811-136.354 2.632-3.197 7.359-3.656 10.557-1.022 3.197 2.633 3.655 7.36 1.022 10.557-30.164 36.632-48.652 81.01-53.467 128.338-4.753 46.721 4.045 93.359 25.443 134.87 4.055 7.866 5.003 16.992 2.671 25.696l-22.578 84.26c-1.053 3.93.036 7.994 2.913 10.871 2.876 2.877 6.942 3.965 10.87 2.913l84.262-22.578c8.704-2.332 17.832-1.382 25.702 2.675 42.625 21.97 90.471 30.635 138.365 25.057 48.615-5.662 93.747-25.687 130.517-57.911 3.115-2.73 7.854-2.418 10.584.697s2.417 7.854-.697 10.584c-39.067 34.237-87.018 55.514-138.668 61.529-10.023 1.167-20.046 1.747-30.023 1.747z"/></g></g></g><g><g><g><path d="m355.382 165.852h-99.366c-4.142 0-7.5-3.358-7.5-7.5s3.358-7.5 7.5-7.5h99.366c4.142 0 7.5 3.358 7.5 7.5s-3.358 7.5-7.5 7.5z"/></g></g></g><g><g><g><path d="m355.382 214.676h-198.731c-4.142 0-7.5-3.358-7.5-7.5s3.358-7.5 7.5-7.5h198.731c4.142 0 7.5 3.358 7.5 7.5s-3.358 7.5-7.5 7.5z"/></g></g></g><g><g><g><path d="m355.382 263.501h-198.731c-4.142 0-7.5-3.358-7.5-7.5s3.358-7.5 7.5-7.5h198.731c4.142 0 7.5 3.358 7.5 7.5s-3.358 7.5-7.5 7.5z"/></g></g></g><g><g><g><path d="m355.382 312.325h-198.731c-4.142 0-7.5-3.358-7.5-7.5s3.358-7.5 7.5-7.5h198.731c4.142 0 7.5 3.358 7.5 7.5s-3.358 7.5-7.5 7.5z"/></g></g></g><g><g><g><path d="m256.017 361.149h-99.366c-4.142 0-7.5-3.358-7.5-7.5s3.358-7.5 7.5-7.5h99.366c4.142 0 7.5 3.358 7.5 7.5s-3.358 7.5-7.5 7.5z"/></g></g></g></g></svg>