<svg id="Capa_1" enable-background="new 0 0 495.992 495.992" height="512" viewBox="0 0 495.992 495.992" width="512" xmlns="http://www.w3.org/2000/svg"><g><g><path d="m15.509 495.991c-4.005 0-7.948-1.55-10.924-4.495-4.749-4.712-5.939-11.935-2.957-17.924l42.246-84.709c-28.736-41.508-43.87-89.997-43.87-140.867 0-136.744 111.25-247.994 247.994-247.994s247.994 111.25 247.994 247.994-111.25 247.994-247.994 247.994c-51.161 0-99.886-15.307-141.549-44.366l-83.915 42.686c-2.232 1.129-4.638 1.681-7.025 1.681zm92.366-77.989c3.311 0 6.603 1.06 9.356 3.137 37.912 28.687 83.134 43.852 130.767 43.852 119.651 0 216.995-97.344 216.995-216.995s-97.344-216.995-216.995-216.995-216.995 97.344-216.995 216.995c0 47.342 14.979 92.335 43.325 130.104 3.515 4.693 4.086 10.974 1.469 16.219l-25.469 51.068 50.516-25.698c2.226-1.129 4.638-1.687 7.031-1.687z"/><ellipse cx="131.781" cy="247.339" rx="30.999" ry="30.999" transform="matrix(.16 -.987 .987 .16 -133.473 337.799)"/><circle cx="248.655" cy="247.339" r="30.999"/><circle cx="364.245" cy="247.339" r="30.999"/></g></g></svg>