<svg id="Capa_1" enable-background="new 0 0 512.044 512.044" height="512" viewBox="0 0 512.044 512.044" width="512" xmlns="http://www.w3.org/2000/svg"><g><g><g><g><path d="m431.607 431.768c96.179-96.179 96.981-251.616 2.408-348.784-96.567-99.216-253.97-100.854-352.49-3.577-79.314 78.314-94.755 196.608-46.353 290.507 3.225 6.257 3.915 13.518 2.093 20.318l-22.578 84.261c-3.736 13.945 9.024 26.705 22.969 22.969l84.262-22.578c6.802-1.823 14.065-1.129 20.325 2.097 93.445 48.164 211.047 33.103 289.364-45.213z" fill="#fbfbfb"/></g></g></g><g><g><g><path d="m112.243 476.981c-6.26-3.227-13.522-3.92-20.325-2.097l-70.942 19.009c4.398 3.591 10.417 5.247 16.681 3.569l75.229-20.157c-.214-.11-.43-.214-.643-.324z" fill="#e6e6e6"/></g></g></g><g><g><g><path d="m434.015 82.984c-52.716-54.163-123.562-79.241-193.061-75.028 59.494 3.601 117.924 28.652 163.061 75.028 94.573 97.168 93.77 252.605-2.408 348.784-44.678 44.678-102.142 68.758-160.612 72.269 68.461 4.124 138.3-19.957 190.612-72.269 96.178-96.179 96.981-251.616 2.408-348.784z" fill="#e6e6e6"/></g></g></g><g><g><g><path d="m315.337 168.975c-25.862 0-48.283 14.727-59.337 36.253-11.054-21.525-33.475-36.253-59.337-36.253-36.817 0-66.663 29.846-66.663 66.663 0 14.965 5.193 28.588 13.257 39.904 20.074 28.167 112.743 91.137 112.743 91.137s91.827-63.909 112.743-91.137c8.465-11.02 13.257-24.939 13.257-39.904 0-36.817-29.846-66.663-66.663-66.663z" fill="#ffbee6"/></g></g></g><g><g><g><path d="m315.337 168.975c-5.168 0-10.195.597-15.024 1.71 29.601 6.799 51.687 33.288 51.687 64.953 0 14.965-4.792 28.884-13.257 39.904-15.654 20.379-71.027 61.302-97.897 80.603 9.204 6.49 15.154 10.534 15.154 10.534s91.827-63.909 112.743-91.137c8.465-11.02 13.257-24.939 13.257-39.904 0-36.817-29.846-66.663-66.663-66.663z" fill="#eaacde"/></g></g></g><g><path d="m439.389 77.753c-91.402-93.91-237.857-103.998-340.668-23.466-3.261 2.554-3.833 7.268-1.279 10.529 2.555 3.261 7.269 3.833 10.529 1.279 96.764-75.796 234.623-66.287 320.669 22.12 44.387 45.604 68.608 105.795 68.203 169.484-.406 63.748-25.458 123.683-70.54 168.766-36.827 36.827-83.442 60.314-134.804 67.921-50.371 7.461-100.794-.863-145.82-24.071-7.872-4.057-16.999-5.007-25.702-2.675l-84.262 22.578c-3.93 1.053-7.993-.036-10.87-2.913s-3.966-6.941-2.913-10.871l22.578-84.261c2.332-8.704 1.383-17.829-2.671-25.695-22.997-44.613-31.509-96.655-23.968-146.541 7.804-51.628 31.638-98.377 68.924-135.193 2.947-2.91 2.978-7.659.067-10.606s-7.659-2.978-10.606-.067c-39.607 39.108-64.925 88.772-73.217 143.625-8.008 52.98 1.036 108.26 25.467 155.655 2.341 4.543 2.879 9.849 1.515 14.941l-22.578 84.26c-2.456 9.168.084 18.648 6.795 25.36 6.711 6.711 16.189 9.251 25.359 6.795l84.262-22.578c5.092-1.364 10.399-.824 14.947 1.52 36.457 18.791 76.235 28.397 116.78 28.397 12.653 0 25.386-.936 38.11-2.821 54.57-8.082 104.092-33.032 143.213-72.153 47.89-47.89 74.501-111.558 74.933-179.276.432-67.657-25.3-131.596-72.453-180.043z"/><path d="m323.872 306.753c-3.229 2.595-3.741 7.316-1.146 10.545 2.595 3.228 7.316 3.741 10.544 1.146 20.777-16.705 34.713-29.602 41.419-38.333 9.688-12.613 14.81-27.991 14.81-44.473 0-40.893-33.269-74.163-74.163-74.163-23.687 0-45.47 11.104-59.337 29.639-13.867-18.535-35.651-29.639-59.337-29.639-40.894 0-74.163 33.269-74.163 74.163 0 15.505 5.066 30.809 14.65 44.257 20.617 28.929 110.806 90.386 114.635 92.988 1.273.865 2.744 1.297 4.215 1.297 1.499 0 2.998-.448 4.284-1.344.231-.161 23.375-16.287 48.774-35.536 3.301-2.502 3.949-7.206 1.447-10.508s-7.207-3.949-10.507-1.447c-18.752 14.212-36.26 26.703-44.045 32.202-7.838-5.418-25.465-17.746-44.295-31.873-41.674-31.265-56.877-46.886-62.292-54.485-7.762-10.892-11.865-23.185-11.865-35.551 0-32.622 26.54-59.163 59.163-59.163 22.292 0 42.473 12.33 52.666 32.179 1.285 2.501 3.86 4.074 6.672 4.074s5.387-1.573 6.672-4.074c10.192-19.848 30.373-32.178 52.665-32.178 32.623 0 59.163 26.54 59.163 59.163 0 13.147-4.047 25.366-11.705 35.335-4.113 5.351-14.203 15.903-38.924 35.779z"/></g></g></svg>