<svg id="Capa_1" enable-background="new 0 0 512.001 512.001" height="512" viewBox="0 0 512.001 512.001" width="512" xmlns="http://www.w3.org/2000/svg"><path d="m256.001 477.407c-2.59 0-5.179-.669-7.499-2.009-2.52-1.454-62.391-36.216-123.121-88.594-35.994-31.043-64.726-61.833-85.396-91.513-26.748-38.406-40.199-75.348-39.982-109.801.254-40.09 14.613-77.792 40.435-106.162 26.258-28.848 61.3-44.734 98.673-44.734 47.897 0 91.688 26.83 116.891 69.332 25.203-42.501 68.994-69.332 116.891-69.332 35.308 0 68.995 14.334 94.859 40.362 28.384 28.563 44.511 68.921 44.247 110.724-.218 34.393-13.921 71.279-40.728 109.632-20.734 29.665-49.426 60.441-85.279 91.475-60.508 52.373-119.949 87.134-122.45 88.588-2.331 1.354-4.937 2.032-7.541 2.032zm-116.891-412.813c-28.822 0-55.985 12.404-76.486 34.928-20.83 22.885-32.415 53.483-32.621 86.158-.411 65.041 62.109 132.758 114.63 178.112 46.391 40.061 93.445 70.134 111.341 81.102 17.804-10.986 64.526-41.048 110.724-81.085 52.372-45.389 114.889-113.17 115.301-178.318.214-33.871-12.735-66.451-35.527-89.388-20.19-20.318-46.321-31.508-73.579-31.508-45.863 0-87.103 32.256-102.617 80.266-2.001 6.192-7.767 10.387-14.273 10.387-6.508 0-12.273-4.196-14.273-10.388-15.517-48.009-56.756-80.266-102.62-80.266z"/></svg>