<svg height="512" viewBox="0 0 64 64" width="512" xmlns="http://www.w3.org/2000/svg"><g id="_16_Group" data-name="16 Group"><path d="m32 35.0547c-14.6679-.2592-14.6656-21.7429 0-22 14.6678.2592 14.6656 21.7429 0 22zm20.7182 9.5332a12.0372 12.0372 0 0 0 -10.8582-11.9633c-4.6916 5.9163-15.0293 5.9155-19.72 0a12.0373 12.0373 0 0 0 -10.8583 11.9633c-.359 3.6467.3631 8.2072 4.6353 8.9985a59.1625 59.1625 0 0 0 32.166 0c4.2711-.7912 4.9949-5.3506 4.6353-8.9985zm-8.7177-36.48a9.1365 9.1365 0 0 0 -7.6405 3.6282 13.1177 13.1177 0 0 1 8.3568 15.3339c11.9359-.7668 11.7038-18.8982-.7162-18.9626zm17.8086 27.0029a10.3369 10.3369 0 0 0 -8.7832-10.2439 11.5719 11.5719 0 0 1 -9.0019 4.3331 13.0216 13.0216 0 0 1 -.85 1.6226 13.9271 13.9271 0 0 1 11.4989 12.7487c1.0723-.2147 2.1137-.4343 3.0688-.6455 3.7083-.6902 4.3883-4.6302 4.0674-7.815zm-34.1307-23.3888a8.8926 8.8926 0 0 0 -7.6775-3.6135c-12.422-.1685-12.6541 18.4128-.7148 18.973a13.1178 13.1178 0 0 1 8.3923-15.3595zm-7.7024 17.478a11.5719 11.5719 0 0 1 -9.0019-4.3329c-8.0816.4051-13.1407 14.93-4.7158 18.0589.9551.2112 1.9965.4308 3.0688.6455a13.9271 13.9271 0 0 1 11.4993-12.7491 13.0216 13.0216 0 0 1 -.8504-1.6224z"/></g></svg>