<svg id="Capa_1" enable-background="new 0 0 512 512" height="512" viewBox="0 0 512 512" width="512" xmlns="http://www.w3.org/2000/svg"><g><g><g><path d="m415.419 417.143h-345.336c-8.284 0-15-6.716-15-15v-387.143c0-8.284 6.716-15 15-15h345.336c8.284 0 15 6.716 15 15v387.143c0 8.284-6.716 15-15 15z" fill="#d3effb"/></g><g><path d="m415.935 0h-12.255v375.919c0 7.999-6.485 14.484-14.484 14.484h-334.113v12.255c0 7.999 6.485 14.484 14.484 14.484h346.368c7.999 0 14.484-6.485 14.484-14.484v-388.174c0-7.999-6.485-14.484-14.484-14.484z" fill="#b1e4f9"/></g><g><path d="m370.1 311.727h-10.414l-161.48-13.229-92.802-79.99v-121.981c0-5.523 4.477-10 10-10h254.696c5.523 0 10 4.477 10 10v205.2c0 5.523-4.478 10-10 10z" fill="#3d4fc3"/></g><g><g><circle cx="115.904" cy="354.177" fill="#90d8f9" r="10.501"/></g><g><circle cx="153.012" cy="354.177" fill="#90d8f9" r="10.501"/></g><g><circle cx="190.121" cy="354.177" fill="#90d8f9" r="10.501"/></g></g><g><path d="m271.585 54.819h-32.483c-4.141 0-7.497-3.356-7.497-7.497s3.356-7.497 7.497-7.497h32.483c4.141 0 7.497 3.356 7.497 7.497s-3.357 7.497-7.497 7.497z" fill="#90d8f9"/></g><g><path d="m200.622 54.819h-88.716c-4.141 0-7.497-3.356-7.497-7.497s3.356-7.497 7.497-7.497h88.716c4.141 0 7.497 3.356 7.497 7.497s-3.356 7.497-7.497 7.497z" fill="#90d8f9"/></g><g><path d="m115.398 311.727h244.287l-95.596-95.596c-3.904-3.903-10.232-3.903-14.136 0l-20.971 20.971c-1.952 1.952-5.116 1.952-7.068 0l-60.485-60.485c-3.904-3.904-10.232-3.903-14.136 0l-41.891 41.891v83.224c.001 5.52 4.476 9.995 9.996 9.995z" fill="#5766cb"/></g><g><circle cx="306.257" cy="157.632" fill="#5766cb" r="19.055"/></g></g><g><g><circle cx="380.099" cy="435.183" fill="#ffd064" r="76.817"/></g><g><path d="m419.383 369.17c6.856 11.496 10.805 24.926 10.805 39.283 0 42.425-34.392 76.817-76.817 76.817-14.357 0-27.787-3.949-39.283-10.805 13.402 22.475 37.944 37.535 66.012 37.535 42.425 0 76.817-34.392 76.817-76.817 0-28.068-15.06-52.609-37.534-66.013z" fill="#ffc250"/></g><path d="m411.395 427.902h-23.799v-23.799c0-4.14-3.356-7.497-7.497-7.497s-7.497 3.356-7.497 7.497v23.799h-23.799c-4.141 0-7.497 3.356-7.497 7.497 0 4.14 3.356 7.497 7.497 7.497h23.799v23.799c0 4.14 3.356 7.497 7.497 7.497s7.497-3.356 7.497-7.497v-23.799h23.799c4.141 0 7.497-3.356 7.497-7.497s-3.356-7.497-7.497-7.497z" fill="#d56617"/></g></g></svg>