<?xml version="1.0" encoding="iso-8859-1"?>
<!-- Generator: Adobe Illustrator 19.0.0, SVG Export Plug-In . SVG Version: 6.00 Build 0)  -->
<svg xmlns="http://www.w3.org/2000/svg" xmlns:xlink="http://www.w3.org/1999/xlink" version="1.1" id="Layer_1" x="0px" y="0px" viewBox="0 0 512 512" style="enable-background:new 0 0 512 512;" xml:space="preserve" width="512" height="512">
<g>
	<ellipse style="fill:#F7AA55;" cx="256" cy="256" rx="248.459" ry="248.5"/>
	<path style="fill:#F78E3D;" d="M407.435,58.998c32.28,41.931,51.49,94.447,51.49,151.46c0,137.243-111.239,248.5-248.459,248.5   c-57.002,0-109.511-19.212-151.435-51.497C104.457,466.467,175.782,504.5,256,504.5c137.22,0,248.459-111.257,248.459-248.5   C504.459,175.769,466.433,104.432,407.435,58.998z"/>
	<g>
		<g>
			<path style="fill:#FFF0D7;" d="M341.489,358.426H170.511c-8.624,0-15.616-6.992-15.616-15.616V169.19     c0-8.624,6.992-15.616,15.616-15.616h170.977c8.624,0,15.616,6.992,15.616,15.616v173.62     C357.105,351.435,350.113,358.426,341.489,358.426z"/>
		</g>
		<path style="fill:#FFE3BD;" d="M341.49,153.574h-48.734c8.624,0,15.615,6.992,15.615,15.617v173.618    c0,8.625-6.991,15.617-15.615,15.617h48.734c8.624,0,15.615-6.992,15.615-15.617V169.191    C357.105,160.566,350.114,153.574,341.49,153.574z"/>
	</g>
</g>
<g>
	<path d="M436.991,74.98C388.646,26.629,324.369,0,256,0C196.515,0,138.567,20.865,92.833,58.751   c-3.19,2.643-3.634,7.37-0.991,10.56c2.643,3.191,7.371,3.633,10.56,0.991C145.451,34.64,200.001,15,256,15   c64.362,0,124.873,25.068,170.384,70.587S496.959,191.626,496.959,256s-25.064,124.895-70.575,170.413S320.362,497,256,497   s-124.873-25.068-170.384-70.587S15.041,320.374,15.041,256c0-61.359,23.067-119.814,64.952-164.599   c2.829-3.025,2.671-7.771-0.354-10.601s-7.771-2.67-10.601,0.354C24.545,128.728,0.041,190.822,0.041,256   c0,68.38,26.624,132.667,74.968,181.02C123.354,485.371,187.631,512,256,512s132.646-26.629,180.991-74.98   c48.344-48.353,74.968-112.64,74.968-181.02S485.335,123.333,436.991,74.98z"/>
	<path d="M357.104,289.249c4.143,0,7.5-3.357,7.5-7.5V169.191c0-12.747-10.369-23.117-23.114-23.117H170.51   c-12.745,0-23.114,10.37-23.114,23.117v173.617c0,12.747,10.369,23.117,23.114,23.117h170.98c12.745,0,23.114-10.37,23.114-23.117   v-23.114c0-4.143-3.357-7.5-7.5-7.5s-7.5,3.357-7.5,7.5v23.114c0,4.476-3.64,8.117-8.114,8.117H170.51   c-4.475,0-8.114-3.642-8.114-8.117V169.191c0-4.476,3.64-8.117,8.114-8.117h170.98c4.475,0,8.114,3.642,8.114,8.117v112.558   C349.604,285.892,352.962,289.249,357.104,289.249z"/>
	<circle cx="197.215" cy="192.305" r="10.052"/>
	<circle cx="197.215" cy="256" r="10.052"/>
	<circle cx="197.215" cy="319.695" r="10.052"/>
	<path d="M315.827,184.806h-82.261c-4.143,0-7.5,3.357-7.5,7.5s3.357,7.5,7.5,7.5h82.261c4.143,0,7.5-3.357,7.5-7.5   S319.97,184.806,315.827,184.806z"/>
	<path d="M315.827,248.5h-82.261c-4.143,0-7.5,3.357-7.5,7.5s3.357,7.5,7.5,7.5h82.261c4.143,0,7.5-3.357,7.5-7.5   S319.97,248.5,315.827,248.5z"/>
	<path d="M315.827,312.194h-82.261c-4.143,0-7.5,3.357-7.5,7.5s3.357,7.5,7.5,7.5h82.261c4.143,0,7.5-3.357,7.5-7.5   S319.97,312.194,315.827,312.194z"/>
</g>















</svg>
