<svg id="Capa_1" enable-background="new 0 0 508 508" height="512" viewBox="0 0 508 508" width="512" xmlns="http://www.w3.org/2000/svg"><g><path d="m470.958 169.333h-433.916c-20.32 0-37.042 16.722-37.042 37.042v264.583c0 20.32 16.722 37.042 37.042 37.042h433.917c20.32 0 37.042-16.722 37.042-37.042v-264.583c-.001-20.32-16.723-37.042-37.043-37.042zm-26.458 100.542v137.583c0 20.32-16.51 37.042-37.042 37.042h-116.416c-20.532 0-37.042-16.722-37.042-37.042v-137.583c0-20.32 16.51-37.042 37.042-37.042h116.417c20.531 0 37.041 16.722 37.041 37.042zm-248.708 79.375h-116.417c-8.678 0-15.875-7.197-15.875-15.875s7.197-15.875 15.875-15.875h116.417c8.678 0 15.875 7.197 15.875 15.875s-7.197 15.875-15.875 15.875zm15.875 47.625c0 8.678-7.197 15.875-15.875 15.875h-116.417c-8.678 0-15.875-7.197-15.875-15.875s7.197-15.875 15.875-15.875h116.417c8.678 0 15.875 7.197 15.875 15.875zm-15.875-111.125h-116.417c-8.678 0-15.875-7.197-15.875-15.875s7.197-15.875 15.875-15.875h116.417c8.678 0 15.875 7.197 15.875 15.875s-7.197 15.875-15.875 15.875z"/><path d="m470.958 0h-433.916c-20.426 0-37.042 16.616-37.042 37.042v52.917c0 20.425 16.616 37.041 37.042 37.041h433.917c20.425 0 37.041-16.616 37.041-37.042v-52.916c0-20.426-16.616-37.042-37.042-37.042z"/></g></svg>